<?xml version="1.0" encoding="UTF-8"?>
<!-- Generator: CustomSymbols v2.7.0.46 by @serious_bret https://bretlester.com/app_content/CustomSymbols/ -->
<!-- Guides: Left/Right -0.011000000000000001/0.006999999999999999 Cap/Base 0.132/0.132 -->
<!-- Settings: RefScale 1.0 Min/Max Stroke Scales 0.5/2.21 -->
<!DOCTYPE svg
PUBLIC "-//W3C//DTD SVG 1.1//EN"
       "http://www.w3.org/Graphics/SVG/1.1/DTD/svg11.dtd">
<svg version="1.1" xmlns="http://www.w3.org/2000/svg" xmlns:xlink="http://www.w3.org/1999/xlink" width="3300" height="2200">
<![CDATA[<?xml version="1.0" standalone="no"?>
<!DOCTYPE svg PUBLIC "-//W3C//DTD SVG 20010904//EN"
 "http://www.w3.org/TR/2001/REC-SVG-20010904/DTD/svg10.dtd">
<svg version="1.0" xmlns="http://www.w3.org/2000/svg"
 width="512.000000pt" height="512.000000pt" viewBox="0 0 512.000000 512.000000"
 preserveAspectRatio="xMidYMid meet">

<g transform="translate(0.000000,512.000000) scale(0.100000,-0.100000)"
fill="#000000" stroke="none">
<path d="M2321 5110 c-868 -84 -1644 -610 -2037 -1382 -139 -273 -221 -536
-266 -853 -20 -140 -17 -504 6 -660 39 -278 121 -541 247 -794 249 -502 647
-900 1150 -1150 815 -406 1779 -350 2539 147 297 194 579 482 771 788 74 116
184 342 234 478 51 138 110 376 131 531 23 157 26 521 6 660 -59 415 -191 769
-410 1099 -92 140 -185 254 -315 385 -399 403 -895 653 -1462 737 -122 18
-466 26 -594 14z m-695 -1594 c172 -79 240 -288 147 -457 -33 -62 -80 -104
-153 -138 -80 -38 -192 -37 -271 2 -66 32 -132 99 -162 165 -30 66 -31 198 -1
263 77 166 275 241 440 165z m2139 0 c72 -33 129 -87 162 -154 24 -49 28 -69
28 -142 0 -101 -20 -154 -85 -224 -119 -129 -326 -137 -461 -18 -134 117 -138
343 -9 472 97 97 240 123 365 66z m-2369 -1591 c19 -8 80 -55 135 -105 448
-402 898 -550 1332 -439 231 59 449 187 689 406 66 59 138 118 161 131 104 56
238 -5 273 -126 30 -102 -2 -161 -169 -311 -204 -183 -340 -278 -532 -371
-136 -66 -295 -119 -435 -146 -144 -27 -409 -25 -558 4 -372 74 -752 282
-1060 580 -73 71 -92 95 -102 132 -43 163 114 309 266 245z"/>
</g>
</svg>
]]>
 <g id="Notes">
  <rect height="2200" id="artboard" style="fill:white;opacity:1" width="3300" x="0" y="0"/>
  <line id="" style="fill:none;stroke:black;opacity:1;stroke-width:0.5;" x1="263" x2="3036" y1="292" y2="292"/>
  <text id="reftext1" style="stroke:none;fill:black;font-family:-apple-system,&quot;SF Pro Display&quot;,&quot;SF Pro Text&quot;,Helvetica,sans-serif;font-weight:bold;" transform="matrix(1 0 0 1 263 322)">Weight/Scale Variations</text>
  <text id="reftext2" style="stroke:none;fill:black;font-family:-apple-system,&quot;SF Pro Display&quot;,&quot;SF Pro Text&quot;,Helvetica,sans-serif;text-anchor:middle;" transform="matrix(1 0 0 1 559.711 322)">Ultralight</text>
  <text style="stroke:none;fill:black;font-family:-apple-system,&quot;SF Pro Display&quot;,&quot;SF Pro Text&quot;,Helvetica,sans-serif;text-anchor:middle;" transform="matrix(1 0 0 1 856.422 322)">Thin</text>
  <text style="stroke:none;fill:black;font-family:-apple-system,&quot;SF Pro Display&quot;,&quot;SF Pro Text&quot;,Helvetica,sans-serif;text-anchor:middle;" transform="matrix(1 0 0 1 1153.13 322)">Light</text>
  <text style="stroke:none;fill:black;font-family:-apple-system,&quot;SF Pro Display&quot;,&quot;SF Pro Text&quot;,Helvetica,sans-serif;text-anchor:middle;" transform="matrix(1 0 0 1 1449.84 322)">Regular</text>
  <text style="stroke:none;fill:black;font-family:-apple-system,&quot;SF Pro Display&quot;,&quot;SF Pro Text&quot;,Helvetica,sans-serif;text-anchor:middle;" transform="matrix(1 0 0 1 1746.56 322)">Medium</text>
  <text style="stroke:none;fill:black;font-family:-apple-system,&quot;SF Pro Display&quot;,&quot;SF Pro Text&quot;,Helvetica,sans-serif;text-anchor:middle;" transform="matrix(1 0 0 1 2043.27 322)">Semibold</text>
  <text style="stroke:none;fill:black;font-family:-apple-system,&quot;SF Pro Display&quot;,&quot;SF Pro Text&quot;,Helvetica,sans-serif;text-anchor:middle;" transform="matrix(1 0 0 1 2339.98 322)">Bold</text>
  <text style="stroke:none;fill:black;font-family:-apple-system,&quot;SF Pro Display&quot;,&quot;SF Pro Text&quot;,Helvetica,sans-serif;text-anchor:middle;" transform="matrix(1 0 0 1 2636.69 322)">Heavy</text>
  <text style="stroke:none;fill:black;font-family:-apple-system,&quot;SF Pro Display&quot;,&quot;SF Pro Text&quot;,Helvetica,sans-serif;text-anchor:middle;" transform="matrix(1 0 0 1 2933.4 322)">Black</text>
  <line id="" style="fill:none;stroke:black;opacity:1;stroke-width:0.5;" x1="263" x2="3036" y1="1903" y2="1903"/>
  <g id="" transform="matrix(1 0 0 1 263 1933)">
   <path d="M9.24805 0.830078C13.5547 0.830078 17.1387-2.74414 17.1387-7.05078C17.1387-11.3574 13.5449-14.9316 9.23828-14.9316C4.94141-14.9316 1.36719-11.3574 1.36719-7.05078C1.36719-2.74414 4.95117 0.830078 9.24805 0.830078ZM9.24805-0.654297C5.70312-0.654297 2.87109-3.49609 2.87109-7.05078C2.87109-10.6055 5.69336-13.4473 9.23828-13.4473C12.793-13.4473 15.6348-10.6055 15.6445-7.05078C15.6543-3.49609 12.8027-0.654297 9.24805-0.654297ZM6.39648-6.31836L8.50586-6.31836L8.50586-4.19922C8.50586-3.75977 8.79883-3.45703 9.22852-3.45703C9.67773-3.45703 9.9707-3.75977 9.9707-4.19922L9.9707-6.31836L12.0996-6.31836C12.5391-6.31836 12.8418-6.61133 12.8418-7.04102C12.8418-7.48047 12.5391-7.7832 12.0996-7.7832L9.9707-7.7832L9.9707-9.89258C9.9707-10.3418 9.67773-10.6445 9.22852-10.6445C8.79883-10.6445 8.50586-10.3418 8.50586-9.89258L8.50586-7.7832L6.39648-7.7832C5.94727-7.7832 5.64453-7.48047 5.64453-7.04102C5.64453-6.61133 5.94727-6.31836 6.39648-6.31836Z"/>
  </g>
  <g id="" transform="matrix(1 0 0 1 281.506 1933)">
   <path d="M11.709 2.91016C17.1582 2.91016 21.6699-1.61133 21.6699-7.05078C21.6699-12.5 17.1484-17.0117 11.6992-17.0117C6.25977-17.0117 1.74805-12.5 1.74805-7.05078C1.74805-1.61133 6.26953 2.91016 11.709 2.91016ZM11.709 1.25C7.09961 1.25 3.41797-2.44141 3.41797-7.05078C3.41797-11.6602 7.08984-15.3516 11.6992-15.3516C16.3086-15.3516 20-11.6602 20.0098-7.05078C20.0195-2.44141 16.3184 1.25 11.709 1.25ZM7.98828-6.23047L10.8789-6.23047L10.8789-3.32031C10.8789-2.83203 11.2109-2.5 11.6895-2.5C12.1777-2.5 12.5195-2.83203 12.5195-3.32031L12.5195-6.23047L15.4297-6.23047C15.918-6.23047 16.25-6.5625 16.25-7.04102C16.25-7.5293 15.918-7.87109 15.4297-7.87109L12.5195-7.87109L12.5195-10.7617C12.5195-11.2695 12.1777-11.6016 11.6895-11.6016C11.2109-11.6016 10.8789-11.2598 10.8789-10.7617L10.8789-7.87109L7.98828-7.87109C7.48047-7.87109 7.14844-7.5293 7.14844-7.04102C7.14844-6.5625 7.49023-6.23047 7.98828-6.23047Z"/>
  </g>
  <g id="" transform="matrix(1 0 0 1 304.924 1933)">
   <path d="M14.9707 5.66406C21.9336 5.66406 27.6953-0.0976562 27.6953-7.05078C27.6953-14.0137 21.9238-19.7754 14.9609-19.7754C8.00781-19.7754 2.25586-14.0137 2.25586-7.05078C2.25586-0.0976562 8.01758 5.66406 14.9707 5.66406ZM14.9707 3.84766C8.93555 3.84766 4.08203-1.01562 4.08203-7.05078C4.08203-13.0957 8.92578-17.9492 14.9609-17.9492C21.0059-17.9492 25.8594-13.0957 25.8691-7.05078C25.8789-1.01562 21.0156 3.84766 14.9707 3.84766ZM10.0586-6.14258L14.0625-6.14258L14.0625-2.12891C14.0625-1.5918 14.4336-1.2207 14.9512-1.2207C15.4883-1.2207 15.8594-1.5918 15.8594-2.12891L15.8594-6.14258L19.8828-6.14258C20.4102-6.14258 20.791-6.51367 20.791-7.03125C20.791-7.56836 20.4199-7.94922 19.8828-7.94922L15.8594-7.94922L15.8594-11.9531C15.8594-12.5098 15.4883-12.8809 14.9512-12.8809C14.4336-12.8809 14.0625-12.5 14.0625-11.9531L14.0625-7.94922L10.0586-7.94922C9.50195-7.94922 9.13086-7.56836 9.13086-7.03125C9.13086-6.51367 9.51172-6.14258 10.0586-6.14258Z"/>
  </g>
  <text style="stroke:none;fill:black;font-family:-apple-system,&quot;SF Pro Display&quot;,&quot;SF Pro Text&quot;,Helvetica,sans-serif;font-weight:bold;" transform="matrix(1 0 0 1 263 1953)">Design Variations</text>
  <text style="stroke:none;fill:black;font-family:-apple-system,&quot;SF Pro Display&quot;,&quot;SF Pro Text&quot;,Helvetica,sans-serif;" transform="matrix(1 0 0 1 263 1971)">Symbols are supported in up to nine weights and three scales.</text>
  <text style="stroke:none;fill:black;font-family:-apple-system,&quot;SF Pro Display&quot;,&quot;SF Pro Text&quot;,Helvetica,sans-serif;" transform="matrix(1 0 0 1 263 1989)">For optimal layout with text and other symbols, vertically align</text>
  <text style="stroke:none;fill:black;font-family:-apple-system,&quot;SF Pro Display&quot;,&quot;SF Pro Text&quot;,Helvetica,sans-serif;" transform="matrix(1 0 0 1 263 2007)">symbols with the adjacent text.</text>
  <line id="" style="fill:none;stroke:#00AEEF;stroke-width:0.5;opacity:1.0;" x1="776" x2="776" y1="1919" y2="1933"/>
  <g id="" transform="matrix(1 0 0 1 776 1933)">
   <path d="M3.31055 0.126953C3.82812 0.126953 4.08203-0.0683594 4.26758-0.605469L5.52734-4.0625L11.2891-4.0625L12.5488-0.605469C12.7344-0.0683594 12.9883 0.126953 13.4961 0.126953C14.0137 0.126953 14.3457-0.185547 14.3457-0.673828C14.3457-0.839844 14.3164-0.986328 14.2383-1.20117L9.6582-13.3887C9.43359-13.9941 9.0332-14.2871 8.4082-14.2871C7.80273-14.2871 7.39258-13.9941 7.17773-13.3984L2.59766-1.19141C2.51953-0.976562 2.49023-0.830078 2.49023-0.664062C2.49023-0.175781 2.80273 0.126953 3.31055 0.126953ZM6.00586-5.53711L8.37891-12.1094L8.42773-12.1094L10.8008-5.53711Z"/>
  </g>
  <line id="" style="fill:none;stroke:#00AEEF;stroke-width:0.5;opacity:1.0;" x1="792.836" x2="792.836" y1="1919" y2="1933"/>
  <text style="stroke:none;fill:black;font-family:-apple-system,&quot;SF Pro Display&quot;,&quot;SF Pro Text&quot;,Helvetica,sans-serif;font-weight:bold;" transform="matrix(1 0 0 1 776 1953)">Margins</text>
  <text style="stroke:none;fill:black;font-family:-apple-system,&quot;SF Pro Display&quot;,&quot;SF Pro Text&quot;,Helvetica,sans-serif;" transform="matrix(1 0 0 1 776 1971)">Leading and trailing margins on the left and right side of each symbol</text>
  <text style="stroke:none;fill:black;font-family:-apple-system,&quot;SF Pro Display&quot;,&quot;SF Pro Text&quot;,Helvetica,sans-serif;" transform="matrix(1 0 0 1 776 1989)">can be adjusted by modifying the x-location of the margin guidelines.</text>
  <text style="stroke:none;fill:black;font-family:-apple-system,&quot;SF Pro Display&quot;,&quot;SF Pro Text&quot;,Helvetica,sans-serif;" transform="matrix(1 0 0 1 776 2007)">Modifications are automatically applied proportionally to all</text>
  <text style="stroke:none;fill:black;font-family:-apple-system,&quot;SF Pro Display&quot;,&quot;SF Pro Text&quot;,Helvetica,sans-serif;" transform="matrix(1 0 0 1 776 2025)">scales and weights.</text>
  <g id="" transform="matrix(1 0 0 1 1289 1933)">
   <path d="M2.8418 1.86523L4.54102 3.57422C5.40039 4.44336 6.38672 4.38477 7.31445 3.35938L17.4902-7.85156C17.7539-7.76367 18.0273-7.7832 18.3398-7.8418L19.4043-8.03711L20.0684-7.36328L20.0293-6.80664C19.9902-6.30859 20.1172-5.92773 20.6055-5.44922L21.3672-4.70703C21.8457-4.22852 22.4609-4.19922 22.9297-4.66797L25.8398-7.58789C26.3086-8.05664 26.2891-8.65234 25.8105-9.13086L25.0391-9.89258C24.5605-10.3711 24.1895-10.5273 23.7109-10.4883L23.1348-10.4395L22.4902-11.0742L22.7344-12.1973C22.8613-12.7637 22.7051-13.2031 22.1191-13.7891L19.9219-15.9766C16.582-19.2969 12.1484-19.2188 9.25781-16.3281C8.83789-15.918 8.80859-15.3418 9.04297-14.9512C9.27734-14.5898 9.73633-14.3555 10.3809-14.5215C11.8457-14.8633 13.3691-14.9219 14.7949-13.9844L14.209-12.5293C14.0137-12.0508 13.9844-11.6504 14.1113-11.2891L3.04688-0.898438C2.06055 0.0195312 1.98242 0.996094 2.8418 1.86523ZM10.752-15.957C13.1836-17.7344 16.4746-17.4316 18.7012-15.2051L21.1328-12.793C21.3672-12.5586 21.4062-12.373 21.3379-12.0312L21.0156-10.5469L22.5195-9.0625L23.5059-9.12109C23.7598-9.13086 23.8379-9.11133 24.0332-8.91602L24.6094-8.33984L22.168-5.89844L21.5918-6.47461C21.3965-6.66992 21.3672-6.74805 21.377-7.01172L21.4453-7.98828L19.9512-9.47266L18.4277-9.21875C18.1055-9.15039 17.959-9.17969 17.7148-9.41406L15.7129-11.416C15.459-11.6504 15.4297-11.8164 15.5859-12.1875L16.4648-14.2773C14.9023-15.7324 12.8711-16.3574 10.8398-15.7617C10.6836-15.7227 10.625-15.8496 10.752-15.957ZM5.27344 2.30469L4.10156 1.14258C3.63281 0.683594 3.74023 0.341797 4.14062-0.0195312L14.9512-10.1953L16.416-8.71094L6.42578 2.27539C6.07422 2.67578 5.74219 2.77344 5.27344 2.30469Z"/>
  </g>
  <text style="stroke:none;fill:black;font-family:-apple-system,&quot;SF Pro Display&quot;,&quot;SF Pro Text&quot;,Helvetica,sans-serif;font-weight:bold;" transform="matrix(1 0 0 1 1289 1953)">Exporting</text>
  <text style="stroke:none;fill:black;font-family:-apple-system,&quot;SF Pro Display&quot;,&quot;SF Pro Text&quot;,Helvetica,sans-serif;" transform="matrix(1 0 0 1 1289 1971)">Symbols should be outlined when exporting to ensure the</text>
  <text style="stroke:none;fill:black;font-family:-apple-system,&quot;SF Pro Display&quot;,&quot;SF Pro Text&quot;,Helvetica,sans-serif;" transform="matrix(1 0 0 1 1289 1989)">design is preserved when submitting to Xcode.</text>
  <text id="template-version" style="stroke:none;fill:black;font-family:-apple-system,&quot;SF Pro Display&quot;,&quot;SF Pro Text&quot;,Helvetica,sans-serif;text-anchor:end;" transform="matrix(1 0 0 1 3036 1933)">Template v.2.0</text>
  <text style="stroke:none;fill:black;font-family:-apple-system,&quot;SF Pro Display&quot;,&quot;SF Pro Text&quot;,Helvetica,sans-serif;text-anchor:end;" transform="matrix(1 0 0 1 3036 1951)">Requires Xcode 12 or greater</text>
  <text style="stroke:none;fill:black;font-family:-apple-system,&quot;SF Pro Display&quot;,&quot;SF Pro Text&quot;,Helvetica,sans-serif;" transform="matrix(1 0 0 1 263 726)">Small</text>
  <text style="stroke:none;fill:black;font-family:-apple-system,&quot;SF Pro Display&quot;,&quot;SF Pro Text&quot;,Helvetica,sans-serif;" transform="matrix(1 0 0 1 263 1156)">Medium</text>
  <text style="stroke:none;fill:black;font-family:-apple-system,&quot;SF Pro Display&quot;,&quot;SF Pro Text&quot;,Helvetica,sans-serif;" transform="matrix(1 0 0 1 263 1586)">Large</text>
 </g>
 <g id="Guides">
  <g id="H-reference" style="fill:#27AAE1;stroke:none;" transform="matrix(1 0 0 1 339 696)">
   <path d="M0.976562 0L3.66211 0L12.9883-24.4629L45.752-24.4629L55.127 0L57.7637 0L30.6152-70.459L28.125-70.459ZM29.3457-67.1387L29.4434-67.1387L44.873-26.709L13.8672-26.709Z"/>
  </g>
  <line id="Baseline-S" style="fill:none;stroke:#27AAE1;opacity:1;stroke-width:0.5;" x1="263" x2="3036" y1="696" y2="696"/>
  <line id="Capline-S" style="fill:none;stroke:#27AAE1;opacity:1;stroke-width:0.5;" x1="263" x2="3036" y1="625.541" y2="625.541"/>
  <g id="H-reference" style="fill:#27AAE1;stroke:none;" transform="matrix(1 0 0 1 339 1126)">
   <path d="M0.976562 0L3.66211 0L12.9883-24.4629L45.752-24.4629L55.127 0L57.7637 0L30.6152-70.459L28.125-70.459ZM29.3457-67.1387L29.4434-67.1387L44.873-26.709L13.8672-26.709Z"/>
  </g>
  <line id="Baseline-M" style="fill:none;stroke:#27AAE1;opacity:1;stroke-width:0.5;" x1="263" x2="3036" y1="1126" y2="1126"/>
  <line id="Capline-M" style="fill:none;stroke:#27AAE1;opacity:1;stroke-width:0.5;" x1="263" x2="3036" y1="1055.54" y2="1055.54"/>
  <g id="H-reference" style="fill:#27AAE1;stroke:none;" transform="matrix(1 0 0 1 339 1556)">
   <path d="M0.976562 0L3.66211 0L12.9883-24.4629L45.752-24.4629L55.127 0L57.7637 0L30.6152-70.459L28.125-70.459ZM29.3457-67.1387L29.4434-67.1387L44.873-26.709L13.8672-26.709Z"/>
  </g>
  <line id="Baseline-L" style="fill:none;stroke:#27AAE1;opacity:1;stroke-width:0.5;" x1="263" x2="3036" y1="1556" y2="1556"/>
  <line id="Capline-L" style="fill:none;stroke:#27AAE1;opacity:1;stroke-width:0.5;" x1="263" x2="3036" y1="1485.54" y2="1485.54"/>
  <line id="left-margin" x1="1402.210108642578" x2="1402.210108642578" y1="1030.79" y2="1150.12" style="fill:none;stroke:#00AEEF;stroke-width:0.5;opacity:1.0;"/>
  <line id="right-margin" x1="1498.3266857910155" x2="1498.3266857910155" y1="1030.79" y2="1150.12" style="fill:none;stroke:#00AEEF;stroke-width:0.5;opacity:1.0;"/>
 </g>
 <g id="Symbols">
  <g id="Black-L" transform="matrix(1.0,0.0,0.0,1.0,2872.931800537109,1459.0218200683594)">  <path stroke-linecap="butt" stroke-width="1px" stroke-opacity="1" version="1.0" preserveAspectRatio="xMidYMid meet" stroke-miterlimit="4" fill-opacity="1" fill-rule="nonzero" stroke="none" stroke-linejoin="miter" stroke-dasharray="none" fill="#000000" d="M55.983,0.241C35.047,2.267,16.33,14.955,6.85,33.576C3.497,40.16,1.52,46.504,0.434,54.15C-0.048,57.527,0.024,66.307,0.579,70.07C1.52,76.775,3.497,83.119,6.537,89.221C12.543,101.33,22.143,110.93,34.275,116.96C53.933,126.753,77.185,125.402,95.517,113.414C102.681,108.735,109.482,101.788,114.114,94.407C115.898,91.609,118.552,86.158,119.758,82.878C120.988,79.549,122.411,73.808,122.918,70.07C123.472,66.283,123.545,57.503,123.062,54.15C121.639,44.14,118.455,35.602,113.173,27.642C110.954,24.265,108.711,21.515,105.575,18.356C95.951,8.635,83.987,2.605,70.311,0.579C67.368,0.145,59.071,-0.048,55.983,0.241ZM39.22,38.689C43.368,40.595,45.009,45.636,42.765,49.712C41.969,51.208,40.836,52.221,39.075,53.041C37.145,53.957,34.444,53.933,32.538,52.992C30.946,52.221,29.355,50.605,28.631,49.013C27.907,47.421,27.883,44.237,28.607,42.669C30.464,38.665,35.24,36.856,39.22,38.689ZM90.813,38.689C92.55,39.485,93.925,40.788,94.721,42.404C95.3,43.586,95.396,44.068,95.396,45.829C95.396,48.265,94.914,49.543,93.346,51.232C90.476,54.343,85.483,54.536,82.226,51.666C78.994,48.844,78.898,43.393,82.009,40.281C84.349,37.941,87.798,37.314,90.813,38.689ZM33.672,77.065C34.13,77.258,35.602,78.391,36.928,79.597C47.734,89.294,58.588,92.864,69.057,90.186C74.628,88.763,79.887,85.676,85.676,80.393C87.268,78.97,89.004,77.547,89.559,77.233C92.068,75.883,95.3,77.354,96.144,80.273C96.867,82.733,96.096,84.156,92.068,87.774C87.147,92.188,83.867,94.48,79.235,96.723C75.955,98.315,72.12,99.593,68.743,100.244C65.27,100.896,58.878,100.847,55.284,100.148C46.311,98.363,37.145,93.346,29.716,86.158C27.956,84.445,27.497,83.867,27.256,82.974C26.219,79.043,30.006,75.521,33.672,77.065ZM33.672,77.065"/>
</g>
  <g id="Heavy-L" transform="matrix(1.0,0.0,0.0,1.0,2576.221800537109,1459.0218200683594)">  <path stroke-linecap="butt" stroke-opacity="1" version="1.0" stroke-dasharray="none" stroke-width="1px" fill-rule="nonzero" stroke="none" fill-opacity="1" fill="#000000" preserveAspectRatio="xMidYMid meet" stroke-miterlimit="4" stroke-linejoin="miter" d="M55.983,0.241C35.047,2.267,16.33,14.955,6.85,33.576C3.497,40.16,1.52,46.504,0.434,54.15C-0.048,57.527,0.024,66.307,0.579,70.07C1.52,76.775,3.497,83.119,6.537,89.221C12.543,101.33,22.143,110.93,34.275,116.96C53.933,126.753,77.185,125.402,95.517,113.414C102.681,108.735,109.482,101.788,114.114,94.407C115.898,91.609,118.552,86.158,119.758,82.878C120.988,79.549,122.411,73.808,122.918,70.07C123.472,66.283,123.545,57.503,123.062,54.15C121.639,44.14,118.455,35.602,113.173,27.642C110.954,24.265,108.711,21.515,105.575,18.356C95.951,8.635,83.987,2.605,70.311,0.579C67.368,0.145,59.071,-0.048,55.983,0.241ZM39.22,38.689C43.368,40.595,45.009,45.636,42.765,49.712C41.969,51.208,40.836,52.221,39.075,53.041C37.145,53.957,34.444,53.933,32.538,52.992C30.946,52.221,29.355,50.605,28.631,49.013C27.907,47.421,27.883,44.237,28.607,42.669C30.464,38.665,35.24,36.856,39.22,38.689ZM90.813,38.689C92.55,39.485,93.925,40.788,94.721,42.404C95.3,43.586,95.396,44.068,95.396,45.829C95.396,48.265,94.914,49.543,93.346,51.232C90.476,54.343,85.483,54.536,82.226,51.666C78.994,48.844,78.898,43.393,82.009,40.281C84.349,37.941,87.798,37.314,90.813,38.689ZM33.672,77.065C34.13,77.258,35.602,78.391,36.928,79.597C47.734,89.294,58.588,92.864,69.057,90.186C74.628,88.763,79.887,85.676,85.676,80.393C87.268,78.97,89.004,77.547,89.559,77.233C92.068,75.883,95.3,77.354,96.144,80.273C96.867,82.733,96.096,84.156,92.068,87.774C87.147,92.188,83.867,94.48,79.235,96.723C75.955,98.315,72.12,99.593,68.743,100.244C65.27,100.896,58.878,100.847,55.284,100.148C46.311,98.363,37.145,93.346,29.716,86.158C27.956,84.445,27.497,83.867,27.256,82.974C26.219,79.043,30.006,75.521,33.672,77.065ZM33.672,77.065"/>
</g>
  <g id="Bold-L" transform="matrix(1.0,0.0,0.0,1.0,2279.511800537109,1459.0218200683594)">  <path stroke="none" fill="#000000" stroke-linecap="butt" preserveAspectRatio="xMidYMid meet" fill-rule="nonzero" fill-opacity="1" stroke-opacity="1" stroke-linejoin="miter" version="1.0" stroke-miterlimit="4" stroke-width="1px" stroke-dasharray="none" d="M55.983,0.241C35.047,2.267,16.33,14.955,6.85,33.576C3.497,40.16,1.52,46.504,0.434,54.15C-0.048,57.527,0.024,66.307,0.579,70.07C1.52,76.775,3.497,83.119,6.537,89.221C12.543,101.33,22.143,110.93,34.275,116.96C53.933,126.753,77.185,125.402,95.517,113.414C102.681,108.735,109.482,101.788,114.114,94.407C115.898,91.609,118.552,86.158,119.758,82.878C120.988,79.549,122.411,73.808,122.918,70.07C123.472,66.283,123.545,57.503,123.062,54.15C121.639,44.14,118.455,35.602,113.173,27.642C110.954,24.265,108.711,21.515,105.575,18.356C95.951,8.635,83.987,2.605,70.311,0.579C67.368,0.145,59.071,-0.048,55.983,0.241ZM39.22,38.689C43.368,40.595,45.009,45.636,42.765,49.712C41.969,51.208,40.836,52.221,39.075,53.041C37.145,53.957,34.444,53.933,32.538,52.992C30.946,52.221,29.355,50.605,28.631,49.013C27.907,47.421,27.883,44.237,28.607,42.669C30.464,38.665,35.24,36.856,39.22,38.689ZM90.813,38.689C92.55,39.485,93.925,40.788,94.721,42.404C95.3,43.586,95.396,44.068,95.396,45.829C95.396,48.265,94.914,49.543,93.346,51.232C90.476,54.343,85.483,54.536,82.226,51.666C78.994,48.844,78.898,43.393,82.009,40.281C84.349,37.941,87.798,37.314,90.813,38.689ZM33.672,77.065C34.13,77.258,35.602,78.391,36.928,79.597C47.734,89.294,58.588,92.864,69.057,90.186C74.628,88.763,79.887,85.676,85.676,80.393C87.268,78.97,89.004,77.547,89.559,77.233C92.068,75.883,95.3,77.354,96.144,80.273C96.867,82.733,96.096,84.156,92.068,87.774C87.147,92.188,83.867,94.48,79.235,96.723C75.955,98.315,72.12,99.593,68.743,100.244C65.27,100.896,58.878,100.847,55.284,100.148C46.311,98.363,37.145,93.346,29.716,86.158C27.956,84.445,27.497,83.867,27.256,82.974C26.219,79.043,30.006,75.521,33.672,77.065ZM33.672,77.065"/>
</g>
  <g id="Semibold-L" transform="matrix(1.0,0.0,0.0,1.0,1982.8018005371093,1459.0218200683594)">  <path stroke-width="1px" stroke="none" preserveAspectRatio="xMidYMid meet" fill="#000000" fill-rule="nonzero" stroke-linejoin="miter" stroke-linecap="butt" stroke-dasharray="none" stroke-miterlimit="4" fill-opacity="1" version="1.0" stroke-opacity="1" d="M55.983,0.241C35.047,2.267,16.33,14.955,6.85,33.576C3.497,40.16,1.52,46.504,0.434,54.15C-0.048,57.527,0.024,66.307,0.579,70.07C1.52,76.775,3.497,83.119,6.537,89.221C12.543,101.33,22.143,110.93,34.275,116.96C53.933,126.753,77.185,125.402,95.517,113.414C102.681,108.735,109.482,101.788,114.114,94.407C115.898,91.609,118.552,86.158,119.758,82.878C120.988,79.549,122.411,73.808,122.918,70.07C123.472,66.283,123.545,57.503,123.062,54.15C121.639,44.14,118.455,35.602,113.173,27.642C110.954,24.265,108.711,21.515,105.575,18.356C95.951,8.635,83.987,2.605,70.311,0.579C67.368,0.145,59.071,-0.048,55.983,0.241ZM39.22,38.689C43.368,40.595,45.009,45.636,42.765,49.712C41.969,51.208,40.836,52.221,39.075,53.041C37.145,53.957,34.444,53.933,32.538,52.992C30.946,52.221,29.355,50.605,28.631,49.013C27.907,47.421,27.883,44.237,28.607,42.669C30.464,38.665,35.24,36.856,39.22,38.689ZM90.813,38.689C92.55,39.485,93.925,40.788,94.721,42.404C95.3,43.586,95.396,44.068,95.396,45.829C95.396,48.265,94.914,49.543,93.346,51.232C90.476,54.343,85.483,54.536,82.226,51.666C78.994,48.844,78.898,43.393,82.009,40.281C84.349,37.941,87.798,37.314,90.813,38.689ZM33.672,77.065C34.13,77.258,35.602,78.391,36.928,79.597C47.734,89.294,58.588,92.864,69.057,90.186C74.628,88.763,79.887,85.676,85.676,80.393C87.268,78.97,89.004,77.547,89.559,77.233C92.068,75.883,95.3,77.354,96.144,80.273C96.867,82.733,96.096,84.156,92.068,87.774C87.147,92.188,83.867,94.48,79.235,96.723C75.955,98.315,72.12,99.593,68.743,100.244C65.27,100.896,58.878,100.847,55.284,100.148C46.311,98.363,37.145,93.346,29.716,86.158C27.956,84.445,27.497,83.867,27.256,82.974C26.219,79.043,30.006,75.521,33.672,77.065ZM33.672,77.065"/>
</g>
  <g id="Medium-L" transform="matrix(1.0,0.0,0.0,1.0,1686.0918005371093,1459.0218200683594)">  <path stroke-dasharray="none" stroke-width="1px" stroke-miterlimit="4" stroke-linejoin="miter" stroke-opacity="1" preserveAspectRatio="xMidYMid meet" fill="#000000" version="1.0" stroke-linecap="butt" fill-rule="nonzero" fill-opacity="1" stroke="none" d="M55.983,0.241C35.047,2.267,16.33,14.955,6.85,33.576C3.497,40.16,1.52,46.504,0.434,54.15C-0.048,57.527,0.024,66.307,0.579,70.07C1.52,76.775,3.497,83.119,6.537,89.221C12.543,101.33,22.143,110.93,34.275,116.96C53.933,126.753,77.185,125.402,95.517,113.414C102.681,108.735,109.482,101.788,114.114,94.407C115.898,91.609,118.552,86.158,119.758,82.878C120.988,79.549,122.411,73.808,122.918,70.07C123.472,66.283,123.545,57.503,123.062,54.15C121.639,44.14,118.455,35.602,113.173,27.642C110.954,24.265,108.711,21.515,105.575,18.356C95.951,8.635,83.987,2.605,70.311,0.579C67.368,0.145,59.071,-0.048,55.983,0.241ZM39.22,38.689C43.368,40.595,45.009,45.636,42.765,49.712C41.969,51.208,40.836,52.221,39.075,53.041C37.145,53.957,34.444,53.933,32.538,52.992C30.946,52.221,29.355,50.605,28.631,49.013C27.907,47.421,27.883,44.237,28.607,42.669C30.464,38.665,35.24,36.856,39.22,38.689ZM90.813,38.689C92.55,39.485,93.925,40.788,94.721,42.404C95.3,43.586,95.396,44.068,95.396,45.829C95.396,48.265,94.914,49.543,93.346,51.232C90.476,54.343,85.483,54.536,82.226,51.666C78.994,48.844,78.898,43.393,82.009,40.281C84.349,37.941,87.798,37.314,90.813,38.689ZM33.672,77.065C34.13,77.258,35.602,78.391,36.928,79.597C47.734,89.294,58.588,92.864,69.057,90.186C74.628,88.763,79.887,85.676,85.676,80.393C87.268,78.97,89.004,77.547,89.559,77.233C92.068,75.883,95.3,77.354,96.144,80.273C96.867,82.733,96.096,84.156,92.068,87.774C87.147,92.188,83.867,94.48,79.235,96.723C75.955,98.315,72.12,99.593,68.743,100.244C65.27,100.896,58.878,100.847,55.284,100.148C46.311,98.363,37.145,93.346,29.716,86.158C27.956,84.445,27.497,83.867,27.256,82.974C26.219,79.043,30.006,75.521,33.672,77.065ZM33.672,77.065"/>
</g>
  <g id="Regular-L" transform="matrix(1.0,0.0,0.0,1.0,1389.3818005371093,1459.0218200683594)">  <path stroke="none" stroke-linecap="butt" fill="#000000" stroke-opacity="1" stroke-width="1px" stroke-dasharray="none" fill-opacity="1" preserveAspectRatio="xMidYMid meet" fill-rule="nonzero" stroke-linejoin="miter" stroke-miterlimit="4" version="1.0" d="M55.983,0.241C35.047,2.267,16.33,14.955,6.85,33.576C3.497,40.16,1.52,46.504,0.434,54.15C-0.048,57.527,0.024,66.307,0.579,70.07C1.52,76.775,3.497,83.119,6.537,89.221C12.543,101.33,22.143,110.93,34.275,116.96C53.933,126.753,77.185,125.402,95.517,113.414C102.681,108.735,109.482,101.788,114.114,94.407C115.898,91.609,118.552,86.158,119.758,82.878C120.988,79.549,122.411,73.808,122.918,70.07C123.472,66.283,123.545,57.503,123.062,54.15C121.639,44.14,118.455,35.602,113.173,27.642C110.954,24.265,108.711,21.515,105.575,18.356C95.951,8.635,83.987,2.605,70.311,0.579C67.368,0.145,59.071,-0.048,55.983,0.241ZM39.22,38.689C43.368,40.595,45.009,45.636,42.765,49.712C41.969,51.208,40.836,52.221,39.075,53.041C37.145,53.957,34.444,53.933,32.538,52.992C30.946,52.221,29.355,50.605,28.631,49.013C27.907,47.421,27.883,44.237,28.607,42.669C30.464,38.665,35.24,36.856,39.22,38.689ZM90.813,38.689C92.55,39.485,93.925,40.788,94.721,42.404C95.3,43.586,95.396,44.068,95.396,45.829C95.396,48.265,94.914,49.543,93.346,51.232C90.476,54.343,85.483,54.536,82.226,51.666C78.994,48.844,78.898,43.393,82.009,40.281C84.349,37.941,87.798,37.314,90.813,38.689ZM33.672,77.065C34.13,77.258,35.602,78.391,36.928,79.597C47.734,89.294,58.588,92.864,69.057,90.186C74.628,88.763,79.887,85.676,85.676,80.393C87.268,78.97,89.004,77.547,89.559,77.233C92.068,75.883,95.3,77.354,96.144,80.273C96.867,82.733,96.096,84.156,92.068,87.774C87.147,92.188,83.867,94.48,79.235,96.723C75.955,98.315,72.12,99.593,68.743,100.244C65.27,100.896,58.878,100.847,55.284,100.148C46.311,98.363,37.145,93.346,29.716,86.158C27.956,84.445,27.497,83.867,27.256,82.974C26.219,79.043,30.006,75.521,33.672,77.065ZM33.672,77.065"/>
</g>
  <g id="Light-L" transform="matrix(1.0,0.0,0.0,1.0,1092.6718005371094,1459.0218200683594)">  <path stroke="none" stroke-opacity="1" stroke-linecap="butt" fill="#000000" stroke-dasharray="none" version="1.0" stroke-width="1px" preserveAspectRatio="xMidYMid meet" stroke-linejoin="miter" fill-opacity="1" stroke-miterlimit="4" fill-rule="nonzero" d="M55.983,0.241C35.047,2.267,16.33,14.955,6.85,33.576C3.497,40.16,1.52,46.504,0.434,54.15C-0.048,57.527,0.024,66.307,0.579,70.07C1.52,76.775,3.497,83.119,6.537,89.221C12.543,101.33,22.143,110.93,34.275,116.96C53.933,126.753,77.185,125.402,95.517,113.414C102.681,108.735,109.482,101.788,114.114,94.407C115.898,91.609,118.552,86.158,119.758,82.878C120.988,79.549,122.411,73.808,122.918,70.07C123.472,66.283,123.545,57.503,123.062,54.15C121.639,44.14,118.455,35.602,113.173,27.642C110.954,24.265,108.711,21.515,105.575,18.356C95.951,8.635,83.987,2.605,70.311,0.579C67.368,0.145,59.071,-0.048,55.983,0.241ZM39.22,38.689C43.368,40.595,45.009,45.636,42.765,49.712C41.969,51.208,40.836,52.221,39.075,53.041C37.145,53.957,34.444,53.933,32.538,52.992C30.946,52.221,29.355,50.605,28.631,49.013C27.907,47.421,27.883,44.237,28.607,42.669C30.464,38.665,35.24,36.856,39.22,38.689ZM90.813,38.689C92.55,39.485,93.925,40.788,94.721,42.404C95.3,43.586,95.396,44.068,95.396,45.829C95.396,48.265,94.914,49.543,93.346,51.232C90.476,54.343,85.483,54.536,82.226,51.666C78.994,48.844,78.898,43.393,82.009,40.281C84.349,37.941,87.798,37.314,90.813,38.689ZM33.672,77.065C34.13,77.258,35.602,78.391,36.928,79.597C47.734,89.294,58.588,92.864,69.057,90.186C74.628,88.763,79.887,85.676,85.676,80.393C87.268,78.97,89.004,77.547,89.559,77.233C92.068,75.883,95.3,77.354,96.144,80.273C96.867,82.733,96.096,84.156,92.068,87.774C87.147,92.188,83.867,94.48,79.235,96.723C75.955,98.315,72.12,99.593,68.743,100.244C65.27,100.896,58.878,100.847,55.284,100.148C46.311,98.363,37.145,93.346,29.716,86.158C27.956,84.445,27.497,83.867,27.256,82.974C26.219,79.043,30.006,75.521,33.672,77.065ZM33.672,77.065"/>
</g>
  <g id="Thin-L" transform="matrix(1.0,0.0,0.0,1.0,795.9618005371094,1459.0218200683594)">  <path stroke="none" stroke-miterlimit="4" fill-opacity="1" fill="#000000" stroke-linecap="butt" stroke-linejoin="miter" stroke-opacity="1" preserveAspectRatio="xMidYMid meet" version="1.0" stroke-dasharray="none" fill-rule="nonzero" stroke-width="1px" d="M55.983,0.241C35.047,2.267,16.33,14.955,6.85,33.576C3.497,40.16,1.52,46.504,0.434,54.15C-0.048,57.527,0.024,66.307,0.579,70.07C1.52,76.775,3.497,83.119,6.537,89.221C12.543,101.33,22.143,110.93,34.275,116.96C53.933,126.753,77.185,125.402,95.517,113.414C102.681,108.735,109.482,101.788,114.114,94.407C115.898,91.609,118.552,86.158,119.758,82.878C120.988,79.549,122.411,73.808,122.918,70.07C123.472,66.283,123.545,57.503,123.062,54.15C121.639,44.14,118.455,35.602,113.173,27.642C110.954,24.265,108.711,21.515,105.575,18.356C95.951,8.635,83.987,2.605,70.311,0.579C67.368,0.145,59.071,-0.048,55.983,0.241ZM39.22,38.689C43.368,40.595,45.009,45.636,42.765,49.712C41.969,51.208,40.836,52.221,39.075,53.041C37.145,53.957,34.444,53.933,32.538,52.992C30.946,52.221,29.355,50.605,28.631,49.013C27.907,47.421,27.883,44.237,28.607,42.669C30.464,38.665,35.24,36.856,39.22,38.689ZM90.813,38.689C92.55,39.485,93.925,40.788,94.721,42.404C95.3,43.586,95.396,44.068,95.396,45.829C95.396,48.265,94.914,49.543,93.346,51.232C90.476,54.343,85.483,54.536,82.226,51.666C78.994,48.844,78.898,43.393,82.009,40.281C84.349,37.941,87.798,37.314,90.813,38.689ZM33.672,77.065C34.13,77.258,35.602,78.391,36.928,79.597C47.734,89.294,58.588,92.864,69.057,90.186C74.628,88.763,79.887,85.676,85.676,80.393C87.268,78.97,89.004,77.547,89.559,77.233C92.068,75.883,95.3,77.354,96.144,80.273C96.867,82.733,96.096,84.156,92.068,87.774C87.147,92.188,83.867,94.48,79.235,96.723C75.955,98.315,72.12,99.593,68.743,100.244C65.27,100.896,58.878,100.847,55.284,100.148C46.311,98.363,37.145,93.346,29.716,86.158C27.956,84.445,27.497,83.867,27.256,82.974C26.219,79.043,30.006,75.521,33.672,77.065ZM33.672,77.065"/>
</g>
  <g id="Ultralight-L" transform="matrix(1.0,0.0,0.0,1.0,499.2518005371094,1459.0218200683594)">  <path stroke-linecap="butt" stroke-miterlimit="4" stroke-dasharray="none" fill="#000000" stroke-opacity="1" preserveAspectRatio="xMidYMid meet" fill-opacity="1" stroke-linejoin="miter" stroke="none" stroke-width="1px" version="1.0" fill-rule="nonzero" d="M55.983,0.241C35.047,2.267,16.33,14.955,6.85,33.576C3.497,40.16,1.52,46.504,0.434,54.15C-0.048,57.527,0.024,66.307,0.579,70.07C1.52,76.775,3.497,83.119,6.537,89.221C12.543,101.33,22.143,110.93,34.275,116.96C53.933,126.753,77.185,125.402,95.517,113.414C102.681,108.735,109.482,101.788,114.114,94.407C115.898,91.609,118.552,86.158,119.758,82.878C120.988,79.549,122.411,73.808,122.918,70.07C123.472,66.283,123.545,57.503,123.062,54.15C121.639,44.14,118.455,35.602,113.173,27.642C110.954,24.265,108.711,21.515,105.575,18.356C95.951,8.635,83.987,2.605,70.311,0.579C67.368,0.145,59.071,-0.048,55.983,0.241ZM39.22,38.689C43.368,40.595,45.009,45.636,42.765,49.712C41.969,51.208,40.836,52.221,39.075,53.041C37.145,53.957,34.444,53.933,32.538,52.992C30.946,52.221,29.355,50.605,28.631,49.013C27.907,47.421,27.883,44.237,28.607,42.669C30.464,38.665,35.24,36.856,39.22,38.689ZM90.813,38.689C92.55,39.485,93.925,40.788,94.721,42.404C95.3,43.586,95.396,44.068,95.396,45.829C95.396,48.265,94.914,49.543,93.346,51.232C90.476,54.343,85.483,54.536,82.226,51.666C78.994,48.844,78.898,43.393,82.009,40.281C84.349,37.941,87.798,37.314,90.813,38.689ZM33.672,77.065C34.13,77.258,35.602,78.391,36.928,79.597C47.734,89.294,58.588,92.864,69.057,90.186C74.628,88.763,79.887,85.676,85.676,80.393C87.268,78.97,89.004,77.547,89.559,77.233C92.068,75.883,95.3,77.354,96.144,80.273C96.867,82.733,96.096,84.156,92.068,87.774C87.147,92.188,83.867,94.48,79.235,96.723C75.955,98.315,72.12,99.593,68.743,100.244C65.27,100.896,58.878,100.847,55.284,100.148C46.311,98.363,37.145,93.346,29.716,86.158C27.956,84.445,27.497,83.867,27.256,82.974C26.219,79.043,30.006,75.521,33.672,77.065ZM33.672,77.065"/>
</g>
  <g id="Black-M" transform="matrix(1.0,0.0,0.0,1.0,2886.8131787109373,1042.9031982421875)">  <path stroke-linecap="butt" stroke-width="1px" stroke-opacity="1" version="1.0" preserveAspectRatio="xMidYMid meet" stroke-miterlimit="4" fill-opacity="1" fill-rule="nonzero" stroke="none" stroke-linejoin="miter" stroke-dasharray="none" fill="#000000" d="M43.398,0.187C27.168,1.758,12.659,11.593,5.31,26.028C2.711,31.132,1.178,36.05,0.337,41.977C-0.037,44.595,0.019,51.401,0.449,54.318C1.178,59.516,2.711,64.433,5.067,69.164C9.723,78.55,17.165,85.992,26.57,90.666C41.809,98.258,59.834,97.211,74.044,87.918C79.597,84.29,84.87,78.905,88.46,73.184C89.844,71.015,91.901,66.789,92.835,64.246C93.789,61.666,94.892,57.216,95.285,54.318C95.715,51.382,95.771,44.576,95.397,41.977C94.294,34.217,91.826,27.598,87.731,21.428C86.011,18.81,84.272,16.679,81.841,14.229C74.381,6.694,65.106,2.019,54.505,0.449C52.223,0.112,45.791,-0.037,43.398,0.187ZM30.403,29.992C33.619,31.469,34.89,35.377,33.152,38.537C32.534,39.696,31.656,40.481,30.291,41.117C28.795,41.827,26.701,41.809,25.224,41.079C23.99,40.481,22.755,39.228,22.194,37.994C21.634,36.76,21.615,34.292,22.176,33.077C23.616,29.973,27.318,28.571,30.403,29.992ZM70.398,29.992C71.744,30.609,72.81,31.618,73.427,32.871C73.876,33.787,73.951,34.161,73.951,35.526C73.951,37.415,73.577,38.406,72.361,39.715C70.136,42.127,66.266,42.276,63.741,40.051C61.236,37.863,61.161,33.638,63.573,31.226C65.387,29.412,68.061,28.926,70.398,29.992ZM26.102,59.74C26.458,59.89,27.598,60.768,28.627,61.703C37.003,69.22,45.417,71.987,53.532,69.912C57.852,68.809,61.928,66.415,66.415,62.32C67.649,61.217,68.996,60.114,69.426,59.871C71.37,58.824,73.876,59.964,74.53,62.227C75.091,64.134,74.493,65.237,71.37,68.042C67.556,71.464,65.013,73.24,61.423,74.979C58.88,76.213,55.907,77.204,53.289,77.709C50.597,78.214,45.642,78.176,42.856,77.634C35.9,76.25,28.795,72.361,23.036,66.789C21.671,65.462,21.316,65.013,21.129,64.321C20.325,61.273,23.26,58.543,26.102,59.74ZM26.102,59.74"/>
</g>
  <g id="Heavy-M" transform="matrix(1.0,0.0,0.0,1.0,2590.1031787109373,1042.9031982421875)">  <path stroke-linecap="butt" stroke-opacity="1" version="1.0" stroke-dasharray="none" stroke-width="1px" fill-rule="nonzero" stroke="none" fill-opacity="1" fill="#000000" preserveAspectRatio="xMidYMid meet" stroke-miterlimit="4" stroke-linejoin="miter" d="M43.398,0.187C27.168,1.758,12.659,11.593,5.31,26.028C2.711,31.132,1.178,36.05,0.337,41.977C-0.037,44.595,0.019,51.401,0.449,54.318C1.178,59.516,2.711,64.433,5.067,69.164C9.723,78.55,17.165,85.992,26.57,90.666C41.809,98.258,59.834,97.211,74.044,87.918C79.597,84.29,84.87,78.905,88.46,73.184C89.844,71.015,91.901,66.789,92.835,64.246C93.789,61.666,94.892,57.216,95.285,54.318C95.715,51.382,95.771,44.576,95.397,41.977C94.294,34.217,91.826,27.598,87.731,21.428C86.011,18.81,84.272,16.679,81.841,14.229C74.381,6.694,65.106,2.019,54.505,0.449C52.223,0.112,45.791,-0.037,43.398,0.187ZM30.403,29.992C33.619,31.469,34.89,35.377,33.152,38.537C32.534,39.696,31.656,40.481,30.291,41.117C28.795,41.827,26.701,41.809,25.224,41.079C23.99,40.481,22.755,39.228,22.194,37.994C21.634,36.76,21.615,34.292,22.176,33.077C23.616,29.973,27.318,28.571,30.403,29.992ZM70.398,29.992C71.744,30.609,72.81,31.618,73.427,32.871C73.876,33.787,73.951,34.161,73.951,35.526C73.951,37.415,73.577,38.406,72.361,39.715C70.136,42.127,66.266,42.276,63.741,40.051C61.236,37.863,61.161,33.638,63.573,31.226C65.387,29.412,68.061,28.926,70.398,29.992ZM26.102,59.74C26.458,59.89,27.598,60.768,28.627,61.703C37.003,69.22,45.417,71.987,53.532,69.912C57.852,68.809,61.928,66.415,66.415,62.32C67.649,61.217,68.996,60.114,69.426,59.871C71.37,58.824,73.876,59.964,74.53,62.227C75.091,64.134,74.493,65.237,71.37,68.042C67.556,71.464,65.013,73.24,61.423,74.979C58.88,76.213,55.907,77.204,53.289,77.709C50.597,78.214,45.642,78.176,42.856,77.634C35.9,76.25,28.795,72.361,23.036,66.789C21.671,65.462,21.316,65.013,21.129,64.321C20.325,61.273,23.26,58.543,26.102,59.74ZM26.102,59.74"/>
</g>
  <g id="Bold-M" transform="matrix(1.0,0.0,0.0,1.0,2293.3931787109373,1042.9031982421875)">  <path stroke="none" fill="#000000" stroke-linecap="butt" preserveAspectRatio="xMidYMid meet" fill-rule="nonzero" fill-opacity="1" stroke-opacity="1" stroke-linejoin="miter" version="1.0" stroke-miterlimit="4" stroke-width="1px" stroke-dasharray="none" d="M43.398,0.187C27.168,1.758,12.659,11.593,5.31,26.028C2.711,31.132,1.178,36.05,0.337,41.977C-0.037,44.595,0.019,51.401,0.449,54.318C1.178,59.516,2.711,64.433,5.067,69.164C9.723,78.55,17.165,85.992,26.57,90.666C41.809,98.258,59.834,97.211,74.044,87.918C79.597,84.29,84.87,78.905,88.46,73.184C89.844,71.015,91.901,66.789,92.835,64.246C93.789,61.666,94.892,57.216,95.285,54.318C95.715,51.382,95.771,44.576,95.397,41.977C94.294,34.217,91.826,27.598,87.731,21.428C86.011,18.81,84.272,16.679,81.841,14.229C74.381,6.694,65.106,2.019,54.505,0.449C52.223,0.112,45.791,-0.037,43.398,0.187ZM30.403,29.992C33.619,31.469,34.89,35.377,33.152,38.537C32.534,39.696,31.656,40.481,30.291,41.117C28.795,41.827,26.701,41.809,25.224,41.079C23.99,40.481,22.755,39.228,22.194,37.994C21.634,36.76,21.615,34.292,22.176,33.077C23.616,29.973,27.318,28.571,30.403,29.992ZM70.398,29.992C71.744,30.609,72.81,31.618,73.427,32.871C73.876,33.787,73.951,34.161,73.951,35.526C73.951,37.415,73.577,38.406,72.361,39.715C70.136,42.127,66.266,42.276,63.741,40.051C61.236,37.863,61.161,33.638,63.573,31.226C65.387,29.412,68.061,28.926,70.398,29.992ZM26.102,59.74C26.458,59.89,27.598,60.768,28.627,61.703C37.003,69.22,45.417,71.987,53.532,69.912C57.852,68.809,61.928,66.415,66.415,62.32C67.649,61.217,68.996,60.114,69.426,59.871C71.37,58.824,73.876,59.964,74.53,62.227C75.091,64.134,74.493,65.237,71.37,68.042C67.556,71.464,65.013,73.24,61.423,74.979C58.88,76.213,55.907,77.204,53.289,77.709C50.597,78.214,45.642,78.176,42.856,77.634C35.9,76.25,28.795,72.361,23.036,66.789C21.671,65.462,21.316,65.013,21.129,64.321C20.325,61.273,23.26,58.543,26.102,59.74ZM26.102,59.74"/>
</g>
  <g id="Semibold-M" transform="matrix(1.0,0.0,0.0,1.0,1996.6831787109375,1042.9031982421875)">  <path stroke-width="1px" stroke="none" preserveAspectRatio="xMidYMid meet" fill="#000000" fill-rule="nonzero" stroke-linejoin="miter" stroke-linecap="butt" stroke-dasharray="none" stroke-miterlimit="4" fill-opacity="1" version="1.0" stroke-opacity="1" d="M43.398,0.187C27.168,1.758,12.659,11.593,5.31,26.028C2.711,31.132,1.178,36.05,0.337,41.977C-0.037,44.595,0.019,51.401,0.449,54.318C1.178,59.516,2.711,64.433,5.067,69.164C9.723,78.55,17.165,85.992,26.57,90.666C41.809,98.258,59.834,97.211,74.044,87.918C79.597,84.29,84.87,78.905,88.46,73.184C89.844,71.015,91.901,66.789,92.835,64.246C93.789,61.666,94.892,57.216,95.285,54.318C95.715,51.382,95.771,44.576,95.397,41.977C94.294,34.217,91.826,27.598,87.731,21.428C86.011,18.81,84.272,16.679,81.841,14.229C74.381,6.694,65.106,2.019,54.505,0.449C52.223,0.112,45.791,-0.037,43.398,0.187ZM30.403,29.992C33.619,31.469,34.89,35.377,33.152,38.537C32.534,39.696,31.656,40.481,30.291,41.117C28.795,41.827,26.701,41.809,25.224,41.079C23.99,40.481,22.755,39.228,22.194,37.994C21.634,36.76,21.615,34.292,22.176,33.077C23.616,29.973,27.318,28.571,30.403,29.992ZM70.398,29.992C71.744,30.609,72.81,31.618,73.427,32.871C73.876,33.787,73.951,34.161,73.951,35.526C73.951,37.415,73.577,38.406,72.361,39.715C70.136,42.127,66.266,42.276,63.741,40.051C61.236,37.863,61.161,33.638,63.573,31.226C65.387,29.412,68.061,28.926,70.398,29.992ZM26.102,59.74C26.458,59.89,27.598,60.768,28.627,61.703C37.003,69.22,45.417,71.987,53.532,69.912C57.852,68.809,61.928,66.415,66.415,62.32C67.649,61.217,68.996,60.114,69.426,59.871C71.37,58.824,73.876,59.964,74.53,62.227C75.091,64.134,74.493,65.237,71.37,68.042C67.556,71.464,65.013,73.24,61.423,74.979C58.88,76.213,55.907,77.204,53.289,77.709C50.597,78.214,45.642,78.176,42.856,77.634C35.9,76.25,28.795,72.361,23.036,66.789C21.671,65.462,21.316,65.013,21.129,64.321C20.325,61.273,23.26,58.543,26.102,59.74ZM26.102,59.74"/>
</g>
  <g id="Medium-M" transform="matrix(1.0,0.0,0.0,1.0,1699.9731787109374,1042.9031982421875)">  <path stroke-dasharray="none" stroke-width="1px" stroke-miterlimit="4" stroke-linejoin="miter" stroke-opacity="1" preserveAspectRatio="xMidYMid meet" fill="#000000" version="1.0" stroke-linecap="butt" fill-rule="nonzero" fill-opacity="1" stroke="none" d="M43.398,0.187C27.168,1.758,12.659,11.593,5.31,26.028C2.711,31.132,1.178,36.05,0.337,41.977C-0.037,44.595,0.019,51.401,0.449,54.318C1.178,59.516,2.711,64.433,5.067,69.164C9.723,78.55,17.165,85.992,26.57,90.666C41.809,98.258,59.834,97.211,74.044,87.918C79.597,84.29,84.87,78.905,88.46,73.184C89.844,71.015,91.901,66.789,92.835,64.246C93.789,61.666,94.892,57.216,95.285,54.318C95.715,51.382,95.771,44.576,95.397,41.977C94.294,34.217,91.826,27.598,87.731,21.428C86.011,18.81,84.272,16.679,81.841,14.229C74.381,6.694,65.106,2.019,54.505,0.449C52.223,0.112,45.791,-0.037,43.398,0.187ZM30.403,29.992C33.619,31.469,34.89,35.377,33.152,38.537C32.534,39.696,31.656,40.481,30.291,41.117C28.795,41.827,26.701,41.809,25.224,41.079C23.99,40.481,22.755,39.228,22.194,37.994C21.634,36.76,21.615,34.292,22.176,33.077C23.616,29.973,27.318,28.571,30.403,29.992ZM70.398,29.992C71.744,30.609,72.81,31.618,73.427,32.871C73.876,33.787,73.951,34.161,73.951,35.526C73.951,37.415,73.577,38.406,72.361,39.715C70.136,42.127,66.266,42.276,63.741,40.051C61.236,37.863,61.161,33.638,63.573,31.226C65.387,29.412,68.061,28.926,70.398,29.992ZM26.102,59.74C26.458,59.89,27.598,60.768,28.627,61.703C37.003,69.22,45.417,71.987,53.532,69.912C57.852,68.809,61.928,66.415,66.415,62.32C67.649,61.217,68.996,60.114,69.426,59.871C71.37,58.824,73.876,59.964,74.53,62.227C75.091,64.134,74.493,65.237,71.37,68.042C67.556,71.464,65.013,73.24,61.423,74.979C58.88,76.213,55.907,77.204,53.289,77.709C50.597,78.214,45.642,78.176,42.856,77.634C35.9,76.25,28.795,72.361,23.036,66.789C21.671,65.462,21.316,65.013,21.129,64.321C20.325,61.273,23.26,58.543,26.102,59.74ZM26.102,59.74"/>
</g>
  <g id="Regular-M" transform="matrix(1.0,0.0,0.0,1.0,1403.2631787109374,1042.9031982421875)">  <path stroke="none" stroke-linecap="butt" fill="#000000" stroke-opacity="1" stroke-width="1px" stroke-dasharray="none" fill-opacity="1" preserveAspectRatio="xMidYMid meet" fill-rule="nonzero" stroke-linejoin="miter" stroke-miterlimit="4" version="1.0" d="M43.398,0.187C27.168,1.758,12.659,11.593,5.31,26.028C2.711,31.132,1.178,36.05,0.337,41.977C-0.037,44.595,0.019,51.401,0.449,54.318C1.178,59.516,2.711,64.433,5.067,69.164C9.723,78.55,17.165,85.992,26.57,90.666C41.809,98.258,59.834,97.211,74.044,87.918C79.597,84.29,84.87,78.905,88.46,73.184C89.844,71.015,91.901,66.789,92.835,64.246C93.789,61.666,94.892,57.216,95.285,54.318C95.715,51.382,95.771,44.576,95.397,41.977C94.294,34.217,91.826,27.598,87.731,21.428C86.011,18.81,84.272,16.679,81.841,14.229C74.381,6.694,65.106,2.019,54.505,0.449C52.223,0.112,45.791,-0.037,43.398,0.187ZM30.403,29.992C33.619,31.469,34.89,35.377,33.152,38.537C32.534,39.696,31.656,40.481,30.291,41.117C28.795,41.827,26.701,41.809,25.224,41.079C23.99,40.481,22.755,39.228,22.194,37.994C21.634,36.76,21.615,34.292,22.176,33.077C23.616,29.973,27.318,28.571,30.403,29.992ZM70.398,29.992C71.744,30.609,72.81,31.618,73.427,32.871C73.876,33.787,73.951,34.161,73.951,35.526C73.951,37.415,73.577,38.406,72.361,39.715C70.136,42.127,66.266,42.276,63.741,40.051C61.236,37.863,61.161,33.638,63.573,31.226C65.387,29.412,68.061,28.926,70.398,29.992ZM26.102,59.74C26.458,59.89,27.598,60.768,28.627,61.703C37.003,69.22,45.417,71.987,53.532,69.912C57.852,68.809,61.928,66.415,66.415,62.32C67.649,61.217,68.996,60.114,69.426,59.871C71.37,58.824,73.876,59.964,74.53,62.227C75.091,64.134,74.493,65.237,71.37,68.042C67.556,71.464,65.013,73.24,61.423,74.979C58.88,76.213,55.907,77.204,53.289,77.709C50.597,78.214,45.642,78.176,42.856,77.634C35.9,76.25,28.795,72.361,23.036,66.789C21.671,65.462,21.316,65.013,21.129,64.321C20.325,61.273,23.26,58.543,26.102,59.74ZM26.102,59.74"/>
</g>
  <g id="Light-M" transform="matrix(1.0,0.0,0.0,1.0,1106.5531787109376,1042.9031982421875)">  <path stroke="none" stroke-opacity="1" stroke-linecap="butt" fill="#000000" stroke-dasharray="none" version="1.0" stroke-width="1px" preserveAspectRatio="xMidYMid meet" stroke-linejoin="miter" fill-opacity="1" stroke-miterlimit="4" fill-rule="nonzero" d="M43.398,0.187C27.168,1.758,12.659,11.593,5.31,26.028C2.711,31.132,1.178,36.05,0.337,41.977C-0.037,44.595,0.019,51.401,0.449,54.318C1.178,59.516,2.711,64.433,5.067,69.164C9.723,78.55,17.165,85.992,26.57,90.666C41.809,98.258,59.834,97.211,74.044,87.918C79.597,84.29,84.87,78.905,88.46,73.184C89.844,71.015,91.901,66.789,92.835,64.246C93.789,61.666,94.892,57.216,95.285,54.318C95.715,51.382,95.771,44.576,95.397,41.977C94.294,34.217,91.826,27.598,87.731,21.428C86.011,18.81,84.272,16.679,81.841,14.229C74.381,6.694,65.106,2.019,54.505,0.449C52.223,0.112,45.791,-0.037,43.398,0.187ZM30.403,29.992C33.619,31.469,34.89,35.377,33.152,38.537C32.534,39.696,31.656,40.481,30.291,41.117C28.795,41.827,26.701,41.809,25.224,41.079C23.99,40.481,22.755,39.228,22.194,37.994C21.634,36.76,21.615,34.292,22.176,33.077C23.616,29.973,27.318,28.571,30.403,29.992ZM70.398,29.992C71.744,30.609,72.81,31.618,73.427,32.871C73.876,33.787,73.951,34.161,73.951,35.526C73.951,37.415,73.577,38.406,72.361,39.715C70.136,42.127,66.266,42.276,63.741,40.051C61.236,37.863,61.161,33.638,63.573,31.226C65.387,29.412,68.061,28.926,70.398,29.992ZM26.102,59.74C26.458,59.89,27.598,60.768,28.627,61.703C37.003,69.22,45.417,71.987,53.532,69.912C57.852,68.809,61.928,66.415,66.415,62.32C67.649,61.217,68.996,60.114,69.426,59.871C71.37,58.824,73.876,59.964,74.53,62.227C75.091,64.134,74.493,65.237,71.37,68.042C67.556,71.464,65.013,73.24,61.423,74.979C58.88,76.213,55.907,77.204,53.289,77.709C50.597,78.214,45.642,78.176,42.856,77.634C35.9,76.25,28.795,72.361,23.036,66.789C21.671,65.462,21.316,65.013,21.129,64.321C20.325,61.273,23.26,58.543,26.102,59.74ZM26.102,59.74"/>
</g>
  <g id="Thin-M" transform="matrix(1.0,0.0,0.0,1.0,809.8431787109375,1042.9031982421875)">  <path stroke="none" stroke-miterlimit="4" fill-opacity="1" fill="#000000" stroke-linecap="butt" stroke-linejoin="miter" stroke-opacity="1" preserveAspectRatio="xMidYMid meet" version="1.0" stroke-dasharray="none" fill-rule="nonzero" stroke-width="1px" d="M43.398,0.187C27.168,1.758,12.659,11.593,5.31,26.028C2.711,31.132,1.178,36.05,0.337,41.977C-0.037,44.595,0.019,51.401,0.449,54.318C1.178,59.516,2.711,64.433,5.067,69.164C9.723,78.55,17.165,85.992,26.57,90.666C41.809,98.258,59.834,97.211,74.044,87.918C79.597,84.29,84.87,78.905,88.46,73.184C89.844,71.015,91.901,66.789,92.835,64.246C93.789,61.666,94.892,57.216,95.285,54.318C95.715,51.382,95.771,44.576,95.397,41.977C94.294,34.217,91.826,27.598,87.731,21.428C86.011,18.81,84.272,16.679,81.841,14.229C74.381,6.694,65.106,2.019,54.505,0.449C52.223,0.112,45.791,-0.037,43.398,0.187ZM30.403,29.992C33.619,31.469,34.89,35.377,33.152,38.537C32.534,39.696,31.656,40.481,30.291,41.117C28.795,41.827,26.701,41.809,25.224,41.079C23.99,40.481,22.755,39.228,22.194,37.994C21.634,36.76,21.615,34.292,22.176,33.077C23.616,29.973,27.318,28.571,30.403,29.992ZM70.398,29.992C71.744,30.609,72.81,31.618,73.427,32.871C73.876,33.787,73.951,34.161,73.951,35.526C73.951,37.415,73.577,38.406,72.361,39.715C70.136,42.127,66.266,42.276,63.741,40.051C61.236,37.863,61.161,33.638,63.573,31.226C65.387,29.412,68.061,28.926,70.398,29.992ZM26.102,59.74C26.458,59.89,27.598,60.768,28.627,61.703C37.003,69.22,45.417,71.987,53.532,69.912C57.852,68.809,61.928,66.415,66.415,62.32C67.649,61.217,68.996,60.114,69.426,59.871C71.37,58.824,73.876,59.964,74.53,62.227C75.091,64.134,74.493,65.237,71.37,68.042C67.556,71.464,65.013,73.24,61.423,74.979C58.88,76.213,55.907,77.204,53.289,77.709C50.597,78.214,45.642,78.176,42.856,77.634C35.9,76.25,28.795,72.361,23.036,66.789C21.671,65.462,21.316,65.013,21.129,64.321C20.325,61.273,23.26,58.543,26.102,59.74ZM26.102,59.74"/>
</g>
  <g id="Ultralight-M" transform="matrix(1.0,0.0,0.0,1.0,513.1331787109375,1042.9031982421875)">  <path stroke-linecap="butt" stroke-miterlimit="4" stroke-dasharray="none" fill="#000000" stroke-opacity="1" preserveAspectRatio="xMidYMid meet" fill-opacity="1" stroke-linejoin="miter" stroke="none" stroke-width="1px" version="1.0" fill-rule="nonzero" d="M43.398,0.187C27.168,1.758,12.659,11.593,5.31,26.028C2.711,31.132,1.178,36.05,0.337,41.977C-0.037,44.595,0.019,51.401,0.449,54.318C1.178,59.516,2.711,64.433,5.067,69.164C9.723,78.55,17.165,85.992,26.57,90.666C41.809,98.258,59.834,97.211,74.044,87.918C79.597,84.29,84.87,78.905,88.46,73.184C89.844,71.015,91.901,66.789,92.835,64.246C93.789,61.666,94.892,57.216,95.285,54.318C95.715,51.382,95.771,44.576,95.397,41.977C94.294,34.217,91.826,27.598,87.731,21.428C86.011,18.81,84.272,16.679,81.841,14.229C74.381,6.694,65.106,2.019,54.505,0.449C52.223,0.112,45.791,-0.037,43.398,0.187ZM30.403,29.992C33.619,31.469,34.89,35.377,33.152,38.537C32.534,39.696,31.656,40.481,30.291,41.117C28.795,41.827,26.701,41.809,25.224,41.079C23.99,40.481,22.755,39.228,22.194,37.994C21.634,36.76,21.615,34.292,22.176,33.077C23.616,29.973,27.318,28.571,30.403,29.992ZM70.398,29.992C71.744,30.609,72.81,31.618,73.427,32.871C73.876,33.787,73.951,34.161,73.951,35.526C73.951,37.415,73.577,38.406,72.361,39.715C70.136,42.127,66.266,42.276,63.741,40.051C61.236,37.863,61.161,33.638,63.573,31.226C65.387,29.412,68.061,28.926,70.398,29.992ZM26.102,59.74C26.458,59.89,27.598,60.768,28.627,61.703C37.003,69.22,45.417,71.987,53.532,69.912C57.852,68.809,61.928,66.415,66.415,62.32C67.649,61.217,68.996,60.114,69.426,59.871C71.37,58.824,73.876,59.964,74.53,62.227C75.091,64.134,74.493,65.237,71.37,68.042C67.556,71.464,65.013,73.24,61.423,74.979C58.88,76.213,55.907,77.204,53.289,77.709C50.597,78.214,45.642,78.176,42.856,77.634C35.9,76.25,28.795,72.361,23.036,66.789C21.671,65.462,21.316,65.013,21.129,64.321C20.325,61.273,23.26,58.543,26.102,59.74ZM26.102,59.74"/>
</g>
  <g id="Black-S" transform="matrix(1.0,0.0,0.0,1.0,2897.200278930664,623.2902984619141)">  <path stroke-linecap="butt" stroke-width="1px" stroke-opacity="1" version="1.0" preserveAspectRatio="xMidYMid meet" stroke-miterlimit="4" fill-opacity="1" fill-rule="nonzero" stroke="none" stroke-linejoin="miter" stroke-dasharray="none" fill="#000000" d="M33.981,0.146C21.273,1.376,9.912,9.077,4.158,20.38C2.123,24.376,0.922,28.227,0.264,32.868C-0.029,34.918,0.015,40.247,0.351,42.531C0.922,46.601,2.123,50.451,3.968,54.155C7.613,61.505,13.44,67.332,20.804,70.992C32.736,76.936,46.85,76.116,57.976,68.84C62.325,65.999,66.453,61.783,69.264,57.303C70.348,55.605,71.958,52.296,72.69,50.305C73.437,48.284,74.301,44.8,74.608,42.531C74.945,40.232,74.989,34.903,74.696,32.868C73.832,26.792,71.9,21.609,68.693,16.778C67.346,14.728,65.985,13.059,64.082,11.141C58.24,5.241,50.978,1.581,42.677,0.351C40.891,0.088,35.855,-0.029,33.981,0.146ZM23.805,23.483C26.324,24.64,27.319,27.7,25.958,30.174C25.474,31.082,24.786,31.697,23.718,32.194C22.546,32.751,20.907,32.736,19.75,32.165C18.784,31.697,17.818,30.716,17.378,29.75C16.939,28.783,16.924,26.851,17.364,25.899C18.491,23.469,21.39,22.371,23.805,23.483ZM55.122,23.483C56.176,23.967,57.01,24.757,57.493,25.738C57.845,26.455,57.903,26.748,57.903,27.817C57.903,29.296,57.61,30.072,56.659,31.096C54.917,32.985,51.886,33.102,49.91,31.36C47.948,29.647,47.889,26.338,49.778,24.45C51.198,23.03,53.291,22.649,55.122,23.483ZM20.438,46.776C20.716,46.894,21.609,47.582,22.415,48.314C28.974,54.199,35.562,56.366,41.916,54.741C45.298,53.877,48.489,52.003,52.003,48.797C52.969,47.933,54.024,47.069,54.36,46.879C55.883,46.059,57.845,46.952,58.357,48.724C58.796,50.217,58.328,51.081,55.883,53.277C52.896,55.956,50.905,57.347,48.094,58.708C46.103,59.675,43.775,60.451,41.725,60.846C39.617,61.241,35.738,61.212,33.556,60.787C28.11,59.704,22.546,56.659,18.037,52.296C16.968,51.256,16.69,50.905,16.544,50.363C15.914,47.977,18.213,45.839,20.438,46.776ZM20.438,46.776"/>
</g>
  <g id="Heavy-S" transform="matrix(1.0,0.0,0.0,1.0,2600.490278930664,623.2902984619141)">  <path stroke-linecap="butt" stroke-opacity="1" version="1.0" stroke-dasharray="none" stroke-width="1px" fill-rule="nonzero" stroke="none" fill-opacity="1" fill="#000000" preserveAspectRatio="xMidYMid meet" stroke-miterlimit="4" stroke-linejoin="miter" d="M33.981,0.146C21.273,1.376,9.912,9.077,4.158,20.38C2.123,24.376,0.922,28.227,0.264,32.868C-0.029,34.918,0.015,40.247,0.351,42.531C0.922,46.601,2.123,50.451,3.968,54.155C7.613,61.505,13.44,67.332,20.804,70.992C32.736,76.936,46.85,76.116,57.976,68.84C62.325,65.999,66.453,61.783,69.264,57.303C70.348,55.605,71.958,52.296,72.69,50.305C73.437,48.284,74.301,44.8,74.608,42.531C74.945,40.232,74.989,34.903,74.696,32.868C73.832,26.792,71.9,21.609,68.693,16.778C67.346,14.728,65.985,13.059,64.082,11.141C58.24,5.241,50.978,1.581,42.677,0.351C40.891,0.088,35.855,-0.029,33.981,0.146ZM23.805,23.483C26.324,24.64,27.319,27.7,25.958,30.174C25.474,31.082,24.786,31.697,23.718,32.194C22.546,32.751,20.907,32.736,19.75,32.165C18.784,31.697,17.818,30.716,17.378,29.75C16.939,28.783,16.924,26.851,17.364,25.899C18.491,23.469,21.39,22.371,23.805,23.483ZM55.122,23.483C56.176,23.967,57.01,24.757,57.493,25.738C57.845,26.455,57.903,26.748,57.903,27.817C57.903,29.296,57.61,30.072,56.659,31.096C54.917,32.985,51.886,33.102,49.91,31.36C47.948,29.647,47.889,26.338,49.778,24.45C51.198,23.03,53.291,22.649,55.122,23.483ZM20.438,46.776C20.716,46.894,21.609,47.582,22.415,48.314C28.974,54.199,35.562,56.366,41.916,54.741C45.298,53.877,48.489,52.003,52.003,48.797C52.969,47.933,54.024,47.069,54.36,46.879C55.883,46.059,57.845,46.952,58.357,48.724C58.796,50.217,58.328,51.081,55.883,53.277C52.896,55.956,50.905,57.347,48.094,58.708C46.103,59.675,43.775,60.451,41.725,60.846C39.617,61.241,35.738,61.212,33.556,60.787C28.11,59.704,22.546,56.659,18.037,52.296C16.968,51.256,16.69,50.905,16.544,50.363C15.914,47.977,18.213,45.839,20.438,46.776ZM20.438,46.776"/>
</g>
  <g id="Bold-S" transform="matrix(1.0,0.0,0.0,1.0,2303.780278930664,623.2902984619141)">  <path stroke="none" fill="#000000" stroke-linecap="butt" preserveAspectRatio="xMidYMid meet" fill-rule="nonzero" fill-opacity="1" stroke-opacity="1" stroke-linejoin="miter" version="1.0" stroke-miterlimit="4" stroke-width="1px" stroke-dasharray="none" d="M33.981,0.146C21.273,1.376,9.912,9.077,4.158,20.38C2.123,24.376,0.922,28.227,0.264,32.868C-0.029,34.918,0.015,40.247,0.351,42.531C0.922,46.601,2.123,50.451,3.968,54.155C7.613,61.505,13.44,67.332,20.804,70.992C32.736,76.936,46.85,76.116,57.976,68.84C62.325,65.999,66.453,61.783,69.264,57.303C70.348,55.605,71.958,52.296,72.69,50.305C73.437,48.284,74.301,44.8,74.608,42.531C74.945,40.232,74.989,34.903,74.696,32.868C73.832,26.792,71.9,21.609,68.693,16.778C67.346,14.728,65.985,13.059,64.082,11.141C58.24,5.241,50.978,1.581,42.677,0.351C40.891,0.088,35.855,-0.029,33.981,0.146ZM23.805,23.483C26.324,24.64,27.319,27.7,25.958,30.174C25.474,31.082,24.786,31.697,23.718,32.194C22.546,32.751,20.907,32.736,19.75,32.165C18.784,31.697,17.818,30.716,17.378,29.75C16.939,28.783,16.924,26.851,17.364,25.899C18.491,23.469,21.39,22.371,23.805,23.483ZM55.122,23.483C56.176,23.967,57.01,24.757,57.493,25.738C57.845,26.455,57.903,26.748,57.903,27.817C57.903,29.296,57.61,30.072,56.659,31.096C54.917,32.985,51.886,33.102,49.91,31.36C47.948,29.647,47.889,26.338,49.778,24.45C51.198,23.03,53.291,22.649,55.122,23.483ZM20.438,46.776C20.716,46.894,21.609,47.582,22.415,48.314C28.974,54.199,35.562,56.366,41.916,54.741C45.298,53.877,48.489,52.003,52.003,48.797C52.969,47.933,54.024,47.069,54.36,46.879C55.883,46.059,57.845,46.952,58.357,48.724C58.796,50.217,58.328,51.081,55.883,53.277C52.896,55.956,50.905,57.347,48.094,58.708C46.103,59.675,43.775,60.451,41.725,60.846C39.617,61.241,35.738,61.212,33.556,60.787C28.11,59.704,22.546,56.659,18.037,52.296C16.968,51.256,16.69,50.905,16.544,50.363C15.914,47.977,18.213,45.839,20.438,46.776ZM20.438,46.776"/>
</g>
  <g id="Semibold-S" transform="matrix(1.0,0.0,0.0,1.0,2007.070278930664,623.2902984619141)">  <path stroke-width="1px" stroke="none" preserveAspectRatio="xMidYMid meet" fill="#000000" fill-rule="nonzero" stroke-linejoin="miter" stroke-linecap="butt" stroke-dasharray="none" stroke-miterlimit="4" fill-opacity="1" version="1.0" stroke-opacity="1" d="M33.981,0.146C21.273,1.376,9.912,9.077,4.158,20.38C2.123,24.376,0.922,28.227,0.264,32.868C-0.029,34.918,0.015,40.247,0.351,42.531C0.922,46.601,2.123,50.451,3.968,54.155C7.613,61.505,13.44,67.332,20.804,70.992C32.736,76.936,46.85,76.116,57.976,68.84C62.325,65.999,66.453,61.783,69.264,57.303C70.348,55.605,71.958,52.296,72.69,50.305C73.437,48.284,74.301,44.8,74.608,42.531C74.945,40.232,74.989,34.903,74.696,32.868C73.832,26.792,71.9,21.609,68.693,16.778C67.346,14.728,65.985,13.059,64.082,11.141C58.24,5.241,50.978,1.581,42.677,0.351C40.891,0.088,35.855,-0.029,33.981,0.146ZM23.805,23.483C26.324,24.64,27.319,27.7,25.958,30.174C25.474,31.082,24.786,31.697,23.718,32.194C22.546,32.751,20.907,32.736,19.75,32.165C18.784,31.697,17.818,30.716,17.378,29.75C16.939,28.783,16.924,26.851,17.364,25.899C18.491,23.469,21.39,22.371,23.805,23.483ZM55.122,23.483C56.176,23.967,57.01,24.757,57.493,25.738C57.845,26.455,57.903,26.748,57.903,27.817C57.903,29.296,57.61,30.072,56.659,31.096C54.917,32.985,51.886,33.102,49.91,31.36C47.948,29.647,47.889,26.338,49.778,24.45C51.198,23.03,53.291,22.649,55.122,23.483ZM20.438,46.776C20.716,46.894,21.609,47.582,22.415,48.314C28.974,54.199,35.562,56.366,41.916,54.741C45.298,53.877,48.489,52.003,52.003,48.797C52.969,47.933,54.024,47.069,54.36,46.879C55.883,46.059,57.845,46.952,58.357,48.724C58.796,50.217,58.328,51.081,55.883,53.277C52.896,55.956,50.905,57.347,48.094,58.708C46.103,59.675,43.775,60.451,41.725,60.846C39.617,61.241,35.738,61.212,33.556,60.787C28.11,59.704,22.546,56.659,18.037,52.296C16.968,51.256,16.69,50.905,16.544,50.363C15.914,47.977,18.213,45.839,20.438,46.776ZM20.438,46.776"/>
</g>
  <g id="Medium-S" transform="matrix(1.0,0.0,0.0,1.0,1710.360278930664,623.2902984619141)">  <path stroke-dasharray="none" stroke-width="1px" stroke-miterlimit="4" stroke-linejoin="miter" stroke-opacity="1" preserveAspectRatio="xMidYMid meet" fill="#000000" version="1.0" stroke-linecap="butt" fill-rule="nonzero" fill-opacity="1" stroke="none" d="M33.981,0.146C21.273,1.376,9.912,9.077,4.158,20.38C2.123,24.376,0.922,28.227,0.264,32.868C-0.029,34.918,0.015,40.247,0.351,42.531C0.922,46.601,2.123,50.451,3.968,54.155C7.613,61.505,13.44,67.332,20.804,70.992C32.736,76.936,46.85,76.116,57.976,68.84C62.325,65.999,66.453,61.783,69.264,57.303C70.348,55.605,71.958,52.296,72.69,50.305C73.437,48.284,74.301,44.8,74.608,42.531C74.945,40.232,74.989,34.903,74.696,32.868C73.832,26.792,71.9,21.609,68.693,16.778C67.346,14.728,65.985,13.059,64.082,11.141C58.24,5.241,50.978,1.581,42.677,0.351C40.891,0.088,35.855,-0.029,33.981,0.146ZM23.805,23.483C26.324,24.64,27.319,27.7,25.958,30.174C25.474,31.082,24.786,31.697,23.718,32.194C22.546,32.751,20.907,32.736,19.75,32.165C18.784,31.697,17.818,30.716,17.378,29.75C16.939,28.783,16.924,26.851,17.364,25.899C18.491,23.469,21.39,22.371,23.805,23.483ZM55.122,23.483C56.176,23.967,57.01,24.757,57.493,25.738C57.845,26.455,57.903,26.748,57.903,27.817C57.903,29.296,57.61,30.072,56.659,31.096C54.917,32.985,51.886,33.102,49.91,31.36C47.948,29.647,47.889,26.338,49.778,24.45C51.198,23.03,53.291,22.649,55.122,23.483ZM20.438,46.776C20.716,46.894,21.609,47.582,22.415,48.314C28.974,54.199,35.562,56.366,41.916,54.741C45.298,53.877,48.489,52.003,52.003,48.797C52.969,47.933,54.024,47.069,54.36,46.879C55.883,46.059,57.845,46.952,58.357,48.724C58.796,50.217,58.328,51.081,55.883,53.277C52.896,55.956,50.905,57.347,48.094,58.708C46.103,59.675,43.775,60.451,41.725,60.846C39.617,61.241,35.738,61.212,33.556,60.787C28.11,59.704,22.546,56.659,18.037,52.296C16.968,51.256,16.69,50.905,16.544,50.363C15.914,47.977,18.213,45.839,20.438,46.776ZM20.438,46.776"/>
</g>
  <g id="Regular-S" transform="matrix(1.0,0.0,0.0,1.0,1413.650278930664,623.2902984619141)">  <path stroke="none" stroke-linecap="butt" fill="#000000" stroke-opacity="1" stroke-width="1px" stroke-dasharray="none" fill-opacity="1" preserveAspectRatio="xMidYMid meet" fill-rule="nonzero" stroke-linejoin="miter" stroke-miterlimit="4" version="1.0" d="M33.981,0.146C21.273,1.376,9.912,9.077,4.158,20.38C2.123,24.376,0.922,28.227,0.264,32.868C-0.029,34.918,0.015,40.247,0.351,42.531C0.922,46.601,2.123,50.451,3.968,54.155C7.613,61.505,13.44,67.332,20.804,70.992C32.736,76.936,46.85,76.116,57.976,68.84C62.325,65.999,66.453,61.783,69.264,57.303C70.348,55.605,71.958,52.296,72.69,50.305C73.437,48.284,74.301,44.8,74.608,42.531C74.945,40.232,74.989,34.903,74.696,32.868C73.832,26.792,71.9,21.609,68.693,16.778C67.346,14.728,65.985,13.059,64.082,11.141C58.24,5.241,50.978,1.581,42.677,0.351C40.891,0.088,35.855,-0.029,33.981,0.146ZM23.805,23.483C26.324,24.64,27.319,27.7,25.958,30.174C25.474,31.082,24.786,31.697,23.718,32.194C22.546,32.751,20.907,32.736,19.75,32.165C18.784,31.697,17.818,30.716,17.378,29.75C16.939,28.783,16.924,26.851,17.364,25.899C18.491,23.469,21.39,22.371,23.805,23.483ZM55.122,23.483C56.176,23.967,57.01,24.757,57.493,25.738C57.845,26.455,57.903,26.748,57.903,27.817C57.903,29.296,57.61,30.072,56.659,31.096C54.917,32.985,51.886,33.102,49.91,31.36C47.948,29.647,47.889,26.338,49.778,24.45C51.198,23.03,53.291,22.649,55.122,23.483ZM20.438,46.776C20.716,46.894,21.609,47.582,22.415,48.314C28.974,54.199,35.562,56.366,41.916,54.741C45.298,53.877,48.489,52.003,52.003,48.797C52.969,47.933,54.024,47.069,54.36,46.879C55.883,46.059,57.845,46.952,58.357,48.724C58.796,50.217,58.328,51.081,55.883,53.277C52.896,55.956,50.905,57.347,48.094,58.708C46.103,59.675,43.775,60.451,41.725,60.846C39.617,61.241,35.738,61.212,33.556,60.787C28.11,59.704,22.546,56.659,18.037,52.296C16.968,51.256,16.69,50.905,16.544,50.363C15.914,47.977,18.213,45.839,20.438,46.776ZM20.438,46.776"/>
</g>
  <g id="Light-S" transform="matrix(1.0,0.0,0.0,1.0,1116.9402789306641,623.2902984619141)">  <path stroke="none" stroke-opacity="1" stroke-linecap="butt" fill="#000000" stroke-dasharray="none" version="1.0" stroke-width="1px" preserveAspectRatio="xMidYMid meet" stroke-linejoin="miter" fill-opacity="1" stroke-miterlimit="4" fill-rule="nonzero" d="M33.981,0.146C21.273,1.376,9.912,9.077,4.158,20.38C2.123,24.376,0.922,28.227,0.264,32.868C-0.029,34.918,0.015,40.247,0.351,42.531C0.922,46.601,2.123,50.451,3.968,54.155C7.613,61.505,13.44,67.332,20.804,70.992C32.736,76.936,46.85,76.116,57.976,68.84C62.325,65.999,66.453,61.783,69.264,57.303C70.348,55.605,71.958,52.296,72.69,50.305C73.437,48.284,74.301,44.8,74.608,42.531C74.945,40.232,74.989,34.903,74.696,32.868C73.832,26.792,71.9,21.609,68.693,16.778C67.346,14.728,65.985,13.059,64.082,11.141C58.24,5.241,50.978,1.581,42.677,0.351C40.891,0.088,35.855,-0.029,33.981,0.146ZM23.805,23.483C26.324,24.64,27.319,27.7,25.958,30.174C25.474,31.082,24.786,31.697,23.718,32.194C22.546,32.751,20.907,32.736,19.75,32.165C18.784,31.697,17.818,30.716,17.378,29.75C16.939,28.783,16.924,26.851,17.364,25.899C18.491,23.469,21.39,22.371,23.805,23.483ZM55.122,23.483C56.176,23.967,57.01,24.757,57.493,25.738C57.845,26.455,57.903,26.748,57.903,27.817C57.903,29.296,57.61,30.072,56.659,31.096C54.917,32.985,51.886,33.102,49.91,31.36C47.948,29.647,47.889,26.338,49.778,24.45C51.198,23.03,53.291,22.649,55.122,23.483ZM20.438,46.776C20.716,46.894,21.609,47.582,22.415,48.314C28.974,54.199,35.562,56.366,41.916,54.741C45.298,53.877,48.489,52.003,52.003,48.797C52.969,47.933,54.024,47.069,54.36,46.879C55.883,46.059,57.845,46.952,58.357,48.724C58.796,50.217,58.328,51.081,55.883,53.277C52.896,55.956,50.905,57.347,48.094,58.708C46.103,59.675,43.775,60.451,41.725,60.846C39.617,61.241,35.738,61.212,33.556,60.787C28.11,59.704,22.546,56.659,18.037,52.296C16.968,51.256,16.69,50.905,16.544,50.363C15.914,47.977,18.213,45.839,20.438,46.776ZM20.438,46.776"/>
</g>
  <g id="Thin-S" transform="matrix(1.0,0.0,0.0,1.0,820.2302789306641,623.2902984619141)">  <path stroke="none" stroke-miterlimit="4" fill-opacity="1" fill="#000000" stroke-linecap="butt" stroke-linejoin="miter" stroke-opacity="1" preserveAspectRatio="xMidYMid meet" version="1.0" stroke-dasharray="none" fill-rule="nonzero" stroke-width="1px" d="M33.981,0.146C21.273,1.376,9.912,9.077,4.158,20.38C2.123,24.376,0.922,28.227,0.264,32.868C-0.029,34.918,0.015,40.247,0.351,42.531C0.922,46.601,2.123,50.451,3.968,54.155C7.613,61.505,13.44,67.332,20.804,70.992C32.736,76.936,46.85,76.116,57.976,68.84C62.325,65.999,66.453,61.783,69.264,57.303C70.348,55.605,71.958,52.296,72.69,50.305C73.437,48.284,74.301,44.8,74.608,42.531C74.945,40.232,74.989,34.903,74.696,32.868C73.832,26.792,71.9,21.609,68.693,16.778C67.346,14.728,65.985,13.059,64.082,11.141C58.24,5.241,50.978,1.581,42.677,0.351C40.891,0.088,35.855,-0.029,33.981,0.146ZM23.805,23.483C26.324,24.64,27.319,27.7,25.958,30.174C25.474,31.082,24.786,31.697,23.718,32.194C22.546,32.751,20.907,32.736,19.75,32.165C18.784,31.697,17.818,30.716,17.378,29.75C16.939,28.783,16.924,26.851,17.364,25.899C18.491,23.469,21.39,22.371,23.805,23.483ZM55.122,23.483C56.176,23.967,57.01,24.757,57.493,25.738C57.845,26.455,57.903,26.748,57.903,27.817C57.903,29.296,57.61,30.072,56.659,31.096C54.917,32.985,51.886,33.102,49.91,31.36C47.948,29.647,47.889,26.338,49.778,24.45C51.198,23.03,53.291,22.649,55.122,23.483ZM20.438,46.776C20.716,46.894,21.609,47.582,22.415,48.314C28.974,54.199,35.562,56.366,41.916,54.741C45.298,53.877,48.489,52.003,52.003,48.797C52.969,47.933,54.024,47.069,54.36,46.879C55.883,46.059,57.845,46.952,58.357,48.724C58.796,50.217,58.328,51.081,55.883,53.277C52.896,55.956,50.905,57.347,48.094,58.708C46.103,59.675,43.775,60.451,41.725,60.846C39.617,61.241,35.738,61.212,33.556,60.787C28.11,59.704,22.546,56.659,18.037,52.296C16.968,51.256,16.69,50.905,16.544,50.363C15.914,47.977,18.213,45.839,20.438,46.776ZM20.438,46.776"/>
</g>
  <g id="Ultralight-S" transform="matrix(1.0,0.0,0.0,1.0,523.5202789306641,623.2902984619141)">  <path stroke-linecap="butt" stroke-miterlimit="4" stroke-dasharray="none" fill="#000000" stroke-opacity="1" preserveAspectRatio="xMidYMid meet" fill-opacity="1" stroke-linejoin="miter" stroke="none" stroke-width="1px" version="1.0" fill-rule="nonzero" d="M33.981,0.146C21.273,1.376,9.912,9.077,4.158,20.38C2.123,24.376,0.922,28.227,0.264,32.868C-0.029,34.918,0.015,40.247,0.351,42.531C0.922,46.601,2.123,50.451,3.968,54.155C7.613,61.505,13.44,67.332,20.804,70.992C32.736,76.936,46.85,76.116,57.976,68.84C62.325,65.999,66.453,61.783,69.264,57.303C70.348,55.605,71.958,52.296,72.69,50.305C73.437,48.284,74.301,44.8,74.608,42.531C74.945,40.232,74.989,34.903,74.696,32.868C73.832,26.792,71.9,21.609,68.693,16.778C67.346,14.728,65.985,13.059,64.082,11.141C58.24,5.241,50.978,1.581,42.677,0.351C40.891,0.088,35.855,-0.029,33.981,0.146ZM23.805,23.483C26.324,24.64,27.319,27.7,25.958,30.174C25.474,31.082,24.786,31.697,23.718,32.194C22.546,32.751,20.907,32.736,19.75,32.165C18.784,31.697,17.818,30.716,17.378,29.75C16.939,28.783,16.924,26.851,17.364,25.899C18.491,23.469,21.39,22.371,23.805,23.483ZM55.122,23.483C56.176,23.967,57.01,24.757,57.493,25.738C57.845,26.455,57.903,26.748,57.903,27.817C57.903,29.296,57.61,30.072,56.659,31.096C54.917,32.985,51.886,33.102,49.91,31.36C47.948,29.647,47.889,26.338,49.778,24.45C51.198,23.03,53.291,22.649,55.122,23.483ZM20.438,46.776C20.716,46.894,21.609,47.582,22.415,48.314C28.974,54.199,35.562,56.366,41.916,54.741C45.298,53.877,48.489,52.003,52.003,48.797C52.969,47.933,54.024,47.069,54.36,46.879C55.883,46.059,57.845,46.952,58.357,48.724C58.796,50.217,58.328,51.081,55.883,53.277C52.896,55.956,50.905,57.347,48.094,58.708C46.103,59.675,43.775,60.451,41.725,60.846C39.617,61.241,35.738,61.212,33.556,60.787C28.11,59.704,22.546,56.659,18.037,52.296C16.968,51.256,16.69,50.905,16.544,50.363C15.914,47.977,18.213,45.839,20.438,46.776ZM20.438,46.776"/>
</g>
 </g>
</svg>
