<?xml version="1.0" encoding="UTF-8"?>
<!-- Generator: CustomSymbols v2.7.0.46 by @serious_bret https://bretlester.com/app_content/CustomSymbols/ -->
<!-- Guides: Left/Right -0.011000000000000001/0.006999999999999999 Cap/Base 0.132/0.132 -->
<!-- Settings: RefScale 1.0 Min/Max Stroke Scales 0.5/2.21 -->
<!DOCTYPE svg
PUBLIC "-//W3C//DTD SVG 1.1//EN"
       "http://www.w3.org/Graphics/SVG/1.1/DTD/svg11.dtd">
<svg version="1.1" xmlns="http://www.w3.org/2000/svg" xmlns:xlink="http://www.w3.org/1999/xlink" width="3300" height="2200">
<![CDATA[<?xml version="1.0" standalone="no"?>
<!DOCTYPE svg PUBLIC "-//W3C//DTD SVG 20010904//EN"
 "http://www.w3.org/TR/2001/REC-SVG-20010904/DTD/svg10.dtd">
<svg version="1.0" xmlns="http://www.w3.org/2000/svg"
 width="512.000000pt" height="512.000000pt" viewBox="0 0 512.000000 512.000000"
 preserveAspectRatio="xMidYMid meet">

<g transform="translate(0.000000,512.000000) scale(0.100000,-0.100000)"
fill="#000000" stroke="none">
<path d="M2321 5110 c-868 -84 -1644 -610 -2037 -1382 -139 -273 -221 -536
-266 -853 -20 -140 -17 -504 6 -660 39 -278 121 -541 247 -794 249 -502 647
-900 1150 -1150 815 -406 1779 -350 2539 147 297 194 579 482 771 788 74 116
184 342 234 478 51 138 110 376 131 531 23 157 26 521 6 660 -59 415 -191 769
-410 1099 -92 140 -185 254 -315 385 -399 403 -895 653 -1462 737 -122 18
-466 26 -594 14z m-684 -1552 c157 -58 248 -242 199 -399 -57 -181 -244 -274
-428 -213 -75 24 -168 118 -193 194 -90 268 160 516 422 418z m2106 -12 c147
-72 217 -247 163 -406 -26 -75 -120 -170 -193 -194 -163 -54 -332 13 -405 161
-29 60 -33 77 -33 148 0 67 4 89 28 137 34 70 109 140 180 168 74 29 184 23
260 -14z m40 -1907 c59 -16 114 -72 132 -134 28 -96 -11 -186 -99 -230 l-50
-25 -1203 0 c-1318 0 -1242 -3 -1306 58 -106 100 -68 278 69 327 32 12 243 14
1229 15 809 0 1202 -4 1228 -11z"/>
</g>
</svg>
]]>
 <g id="Notes">
  <rect height="2200" id="artboard" style="fill:white;opacity:1" width="3300" x="0" y="0"/>
  <line id="" style="fill:none;stroke:black;opacity:1;stroke-width:0.5;" x1="263" x2="3036" y1="292" y2="292"/>
  <text id="reftext1" style="stroke:none;fill:black;font-family:-apple-system,&quot;SF Pro Display&quot;,&quot;SF Pro Text&quot;,Helvetica,sans-serif;font-weight:bold;" transform="matrix(1 0 0 1 263 322)">Weight/Scale Variations</text>
  <text id="reftext2" style="stroke:none;fill:black;font-family:-apple-system,&quot;SF Pro Display&quot;,&quot;SF Pro Text&quot;,Helvetica,sans-serif;text-anchor:middle;" transform="matrix(1 0 0 1 559.711 322)">Ultralight</text>
  <text style="stroke:none;fill:black;font-family:-apple-system,&quot;SF Pro Display&quot;,&quot;SF Pro Text&quot;,Helvetica,sans-serif;text-anchor:middle;" transform="matrix(1 0 0 1 856.422 322)">Thin</text>
  <text style="stroke:none;fill:black;font-family:-apple-system,&quot;SF Pro Display&quot;,&quot;SF Pro Text&quot;,Helvetica,sans-serif;text-anchor:middle;" transform="matrix(1 0 0 1 1153.13 322)">Light</text>
  <text style="stroke:none;fill:black;font-family:-apple-system,&quot;SF Pro Display&quot;,&quot;SF Pro Text&quot;,Helvetica,sans-serif;text-anchor:middle;" transform="matrix(1 0 0 1 1449.84 322)">Regular</text>
  <text style="stroke:none;fill:black;font-family:-apple-system,&quot;SF Pro Display&quot;,&quot;SF Pro Text&quot;,Helvetica,sans-serif;text-anchor:middle;" transform="matrix(1 0 0 1 1746.56 322)">Medium</text>
  <text style="stroke:none;fill:black;font-family:-apple-system,&quot;SF Pro Display&quot;,&quot;SF Pro Text&quot;,Helvetica,sans-serif;text-anchor:middle;" transform="matrix(1 0 0 1 2043.27 322)">Semibold</text>
  <text style="stroke:none;fill:black;font-family:-apple-system,&quot;SF Pro Display&quot;,&quot;SF Pro Text&quot;,Helvetica,sans-serif;text-anchor:middle;" transform="matrix(1 0 0 1 2339.98 322)">Bold</text>
  <text style="stroke:none;fill:black;font-family:-apple-system,&quot;SF Pro Display&quot;,&quot;SF Pro Text&quot;,Helvetica,sans-serif;text-anchor:middle;" transform="matrix(1 0 0 1 2636.69 322)">Heavy</text>
  <text style="stroke:none;fill:black;font-family:-apple-system,&quot;SF Pro Display&quot;,&quot;SF Pro Text&quot;,Helvetica,sans-serif;text-anchor:middle;" transform="matrix(1 0 0 1 2933.4 322)">Black</text>
  <line id="" style="fill:none;stroke:black;opacity:1;stroke-width:0.5;" x1="263" x2="3036" y1="1903" y2="1903"/>
  <g id="" transform="matrix(1 0 0 1 263 1933)">
   <path d="M9.24805 0.830078C13.5547 0.830078 17.1387-2.74414 17.1387-7.05078C17.1387-11.3574 13.5449-14.9316 9.23828-14.9316C4.94141-14.9316 1.36719-11.3574 1.36719-7.05078C1.36719-2.74414 4.95117 0.830078 9.24805 0.830078ZM9.24805-0.654297C5.70312-0.654297 2.87109-3.49609 2.87109-7.05078C2.87109-10.6055 5.69336-13.4473 9.23828-13.4473C12.793-13.4473 15.6348-10.6055 15.6445-7.05078C15.6543-3.49609 12.8027-0.654297 9.24805-0.654297ZM6.39648-6.31836L8.50586-6.31836L8.50586-4.19922C8.50586-3.75977 8.79883-3.45703 9.22852-3.45703C9.67773-3.45703 9.9707-3.75977 9.9707-4.19922L9.9707-6.31836L12.0996-6.31836C12.5391-6.31836 12.8418-6.61133 12.8418-7.04102C12.8418-7.48047 12.5391-7.7832 12.0996-7.7832L9.9707-7.7832L9.9707-9.89258C9.9707-10.3418 9.67773-10.6445 9.22852-10.6445C8.79883-10.6445 8.50586-10.3418 8.50586-9.89258L8.50586-7.7832L6.39648-7.7832C5.94727-7.7832 5.64453-7.48047 5.64453-7.04102C5.64453-6.61133 5.94727-6.31836 6.39648-6.31836Z"/>
  </g>
  <g id="" transform="matrix(1 0 0 1 281.506 1933)">
   <path d="M11.709 2.91016C17.1582 2.91016 21.6699-1.61133 21.6699-7.05078C21.6699-12.5 17.1484-17.0117 11.6992-17.0117C6.25977-17.0117 1.74805-12.5 1.74805-7.05078C1.74805-1.61133 6.26953 2.91016 11.709 2.91016ZM11.709 1.25C7.09961 1.25 3.41797-2.44141 3.41797-7.05078C3.41797-11.6602 7.08984-15.3516 11.6992-15.3516C16.3086-15.3516 20-11.6602 20.0098-7.05078C20.0195-2.44141 16.3184 1.25 11.709 1.25ZM7.98828-6.23047L10.8789-6.23047L10.8789-3.32031C10.8789-2.83203 11.2109-2.5 11.6895-2.5C12.1777-2.5 12.5195-2.83203 12.5195-3.32031L12.5195-6.23047L15.4297-6.23047C15.918-6.23047 16.25-6.5625 16.25-7.04102C16.25-7.5293 15.918-7.87109 15.4297-7.87109L12.5195-7.87109L12.5195-10.7617C12.5195-11.2695 12.1777-11.6016 11.6895-11.6016C11.2109-11.6016 10.8789-11.2598 10.8789-10.7617L10.8789-7.87109L7.98828-7.87109C7.48047-7.87109 7.14844-7.5293 7.14844-7.04102C7.14844-6.5625 7.49023-6.23047 7.98828-6.23047Z"/>
  </g>
  <g id="" transform="matrix(1 0 0 1 304.924 1933)">
   <path d="M14.9707 5.66406C21.9336 5.66406 27.6953-0.0976562 27.6953-7.05078C27.6953-14.0137 21.9238-19.7754 14.9609-19.7754C8.00781-19.7754 2.25586-14.0137 2.25586-7.05078C2.25586-0.0976562 8.01758 5.66406 14.9707 5.66406ZM14.9707 3.84766C8.93555 3.84766 4.08203-1.01562 4.08203-7.05078C4.08203-13.0957 8.92578-17.9492 14.9609-17.9492C21.0059-17.9492 25.8594-13.0957 25.8691-7.05078C25.8789-1.01562 21.0156 3.84766 14.9707 3.84766ZM10.0586-6.14258L14.0625-6.14258L14.0625-2.12891C14.0625-1.5918 14.4336-1.2207 14.9512-1.2207C15.4883-1.2207 15.8594-1.5918 15.8594-2.12891L15.8594-6.14258L19.8828-6.14258C20.4102-6.14258 20.791-6.51367 20.791-7.03125C20.791-7.56836 20.4199-7.94922 19.8828-7.94922L15.8594-7.94922L15.8594-11.9531C15.8594-12.5098 15.4883-12.8809 14.9512-12.8809C14.4336-12.8809 14.0625-12.5 14.0625-11.9531L14.0625-7.94922L10.0586-7.94922C9.50195-7.94922 9.13086-7.56836 9.13086-7.03125C9.13086-6.51367 9.51172-6.14258 10.0586-6.14258Z"/>
  </g>
  <text style="stroke:none;fill:black;font-family:-apple-system,&quot;SF Pro Display&quot;,&quot;SF Pro Text&quot;,Helvetica,sans-serif;font-weight:bold;" transform="matrix(1 0 0 1 263 1953)">Design Variations</text>
  <text style="stroke:none;fill:black;font-family:-apple-system,&quot;SF Pro Display&quot;,&quot;SF Pro Text&quot;,Helvetica,sans-serif;" transform="matrix(1 0 0 1 263 1971)">Symbols are supported in up to nine weights and three scales.</text>
  <text style="stroke:none;fill:black;font-family:-apple-system,&quot;SF Pro Display&quot;,&quot;SF Pro Text&quot;,Helvetica,sans-serif;" transform="matrix(1 0 0 1 263 1989)">For optimal layout with text and other symbols, vertically align</text>
  <text style="stroke:none;fill:black;font-family:-apple-system,&quot;SF Pro Display&quot;,&quot;SF Pro Text&quot;,Helvetica,sans-serif;" transform="matrix(1 0 0 1 263 2007)">symbols with the adjacent text.</text>
  <line id="" style="fill:none;stroke:#00AEEF;stroke-width:0.5;opacity:1.0;" x1="776" x2="776" y1="1919" y2="1933"/>
  <g id="" transform="matrix(1 0 0 1 776 1933)">
   <path d="M3.31055 0.126953C3.82812 0.126953 4.08203-0.0683594 4.26758-0.605469L5.52734-4.0625L11.2891-4.0625L12.5488-0.605469C12.7344-0.0683594 12.9883 0.126953 13.4961 0.126953C14.0137 0.126953 14.3457-0.185547 14.3457-0.673828C14.3457-0.839844 14.3164-0.986328 14.2383-1.20117L9.6582-13.3887C9.43359-13.9941 9.0332-14.2871 8.4082-14.2871C7.80273-14.2871 7.39258-13.9941 7.17773-13.3984L2.59766-1.19141C2.51953-0.976562 2.49023-0.830078 2.49023-0.664062C2.49023-0.175781 2.80273 0.126953 3.31055 0.126953ZM6.00586-5.53711L8.37891-12.1094L8.42773-12.1094L10.8008-5.53711Z"/>
  </g>
  <line id="" style="fill:none;stroke:#00AEEF;stroke-width:0.5;opacity:1.0;" x1="792.836" x2="792.836" y1="1919" y2="1933"/>
  <text style="stroke:none;fill:black;font-family:-apple-system,&quot;SF Pro Display&quot;,&quot;SF Pro Text&quot;,Helvetica,sans-serif;font-weight:bold;" transform="matrix(1 0 0 1 776 1953)">Margins</text>
  <text style="stroke:none;fill:black;font-family:-apple-system,&quot;SF Pro Display&quot;,&quot;SF Pro Text&quot;,Helvetica,sans-serif;" transform="matrix(1 0 0 1 776 1971)">Leading and trailing margins on the left and right side of each symbol</text>
  <text style="stroke:none;fill:black;font-family:-apple-system,&quot;SF Pro Display&quot;,&quot;SF Pro Text&quot;,Helvetica,sans-serif;" transform="matrix(1 0 0 1 776 1989)">can be adjusted by modifying the x-location of the margin guidelines.</text>
  <text style="stroke:none;fill:black;font-family:-apple-system,&quot;SF Pro Display&quot;,&quot;SF Pro Text&quot;,Helvetica,sans-serif;" transform="matrix(1 0 0 1 776 2007)">Modifications are automatically applied proportionally to all</text>
  <text style="stroke:none;fill:black;font-family:-apple-system,&quot;SF Pro Display&quot;,&quot;SF Pro Text&quot;,Helvetica,sans-serif;" transform="matrix(1 0 0 1 776 2025)">scales and weights.</text>
  <g id="" transform="matrix(1 0 0 1 1289 1933)">
   <path d="M2.8418 1.86523L4.54102 3.57422C5.40039 4.44336 6.38672 4.38477 7.31445 3.35938L17.4902-7.85156C17.7539-7.76367 18.0273-7.7832 18.3398-7.8418L19.4043-8.03711L20.0684-7.36328L20.0293-6.80664C19.9902-6.30859 20.1172-5.92773 20.6055-5.44922L21.3672-4.70703C21.8457-4.22852 22.4609-4.19922 22.9297-4.66797L25.8398-7.58789C26.3086-8.05664 26.2891-8.65234 25.8105-9.13086L25.0391-9.89258C24.5605-10.3711 24.1895-10.5273 23.7109-10.4883L23.1348-10.4395L22.4902-11.0742L22.7344-12.1973C22.8613-12.7637 22.7051-13.2031 22.1191-13.7891L19.9219-15.9766C16.582-19.2969 12.1484-19.2188 9.25781-16.3281C8.83789-15.918 8.80859-15.3418 9.04297-14.9512C9.27734-14.5898 9.73633-14.3555 10.3809-14.5215C11.8457-14.8633 13.3691-14.9219 14.7949-13.9844L14.209-12.5293C14.0137-12.0508 13.9844-11.6504 14.1113-11.2891L3.04688-0.898438C2.06055 0.0195312 1.98242 0.996094 2.8418 1.86523ZM10.752-15.957C13.1836-17.7344 16.4746-17.4316 18.7012-15.2051L21.1328-12.793C21.3672-12.5586 21.4062-12.373 21.3379-12.0312L21.0156-10.5469L22.5195-9.0625L23.5059-9.12109C23.7598-9.13086 23.8379-9.11133 24.0332-8.91602L24.6094-8.33984L22.168-5.89844L21.5918-6.47461C21.3965-6.66992 21.3672-6.74805 21.377-7.01172L21.4453-7.98828L19.9512-9.47266L18.4277-9.21875C18.1055-9.15039 17.959-9.17969 17.7148-9.41406L15.7129-11.416C15.459-11.6504 15.4297-11.8164 15.5859-12.1875L16.4648-14.2773C14.9023-15.7324 12.8711-16.3574 10.8398-15.7617C10.6836-15.7227 10.625-15.8496 10.752-15.957ZM5.27344 2.30469L4.10156 1.14258C3.63281 0.683594 3.74023 0.341797 4.14062-0.0195312L14.9512-10.1953L16.416-8.71094L6.42578 2.27539C6.07422 2.67578 5.74219 2.77344 5.27344 2.30469Z"/>
  </g>
  <text style="stroke:none;fill:black;font-family:-apple-system,&quot;SF Pro Display&quot;,&quot;SF Pro Text&quot;,Helvetica,sans-serif;font-weight:bold;" transform="matrix(1 0 0 1 1289 1953)">Exporting</text>
  <text style="stroke:none;fill:black;font-family:-apple-system,&quot;SF Pro Display&quot;,&quot;SF Pro Text&quot;,Helvetica,sans-serif;" transform="matrix(1 0 0 1 1289 1971)">Symbols should be outlined when exporting to ensure the</text>
  <text style="stroke:none;fill:black;font-family:-apple-system,&quot;SF Pro Display&quot;,&quot;SF Pro Text&quot;,Helvetica,sans-serif;" transform="matrix(1 0 0 1 1289 1989)">design is preserved when submitting to Xcode.</text>
  <text id="template-version" style="stroke:none;fill:black;font-family:-apple-system,&quot;SF Pro Display&quot;,&quot;SF Pro Text&quot;,Helvetica,sans-serif;text-anchor:end;" transform="matrix(1 0 0 1 3036 1933)">Template v.2.0</text>
  <text style="stroke:none;fill:black;font-family:-apple-system,&quot;SF Pro Display&quot;,&quot;SF Pro Text&quot;,Helvetica,sans-serif;text-anchor:end;" transform="matrix(1 0 0 1 3036 1951)">Requires Xcode 12 or greater</text>
  <text style="stroke:none;fill:black;font-family:-apple-system,&quot;SF Pro Display&quot;,&quot;SF Pro Text&quot;,Helvetica,sans-serif;" transform="matrix(1 0 0 1 263 726)">Small</text>
  <text style="stroke:none;fill:black;font-family:-apple-system,&quot;SF Pro Display&quot;,&quot;SF Pro Text&quot;,Helvetica,sans-serif;" transform="matrix(1 0 0 1 263 1156)">Medium</text>
  <text style="stroke:none;fill:black;font-family:-apple-system,&quot;SF Pro Display&quot;,&quot;SF Pro Text&quot;,Helvetica,sans-serif;" transform="matrix(1 0 0 1 263 1586)">Large</text>
 </g>
 <g id="Guides">
  <g id="H-reference" style="fill:#27AAE1;stroke:none;" transform="matrix(1 0 0 1 339 696)">
   <path d="M0.976562 0L3.66211 0L12.9883-24.4629L45.752-24.4629L55.127 0L57.7637 0L30.6152-70.459L28.125-70.459ZM29.3457-67.1387L29.4434-67.1387L44.873-26.709L13.8672-26.709Z"/>
  </g>
  <line id="Baseline-S" style="fill:none;stroke:#27AAE1;opacity:1;stroke-width:0.5;" x1="263" x2="3036" y1="696" y2="696"/>
  <line id="Capline-S" style="fill:none;stroke:#27AAE1;opacity:1;stroke-width:0.5;" x1="263" x2="3036" y1="625.541" y2="625.541"/>
  <g id="H-reference" style="fill:#27AAE1;stroke:none;" transform="matrix(1 0 0 1 339 1126)">
   <path d="M0.976562 0L3.66211 0L12.9883-24.4629L45.752-24.4629L55.127 0L57.7637 0L30.6152-70.459L28.125-70.459ZM29.3457-67.1387L29.4434-67.1387L44.873-26.709L13.8672-26.709Z"/>
  </g>
  <line id="Baseline-M" style="fill:none;stroke:#27AAE1;opacity:1;stroke-width:0.5;" x1="263" x2="3036" y1="1126" y2="1126"/>
  <line id="Capline-M" style="fill:none;stroke:#27AAE1;opacity:1;stroke-width:0.5;" x1="263" x2="3036" y1="1055.54" y2="1055.54"/>
  <g id="H-reference" style="fill:#27AAE1;stroke:none;" transform="matrix(1 0 0 1 339 1556)">
   <path d="M0.976562 0L3.66211 0L12.9883-24.4629L45.752-24.4629L55.127 0L57.7637 0L30.6152-70.459L28.125-70.459ZM29.3457-67.1387L29.4434-67.1387L44.873-26.709L13.8672-26.709Z"/>
  </g>
  <line id="Baseline-L" style="fill:none;stroke:#27AAE1;opacity:1;stroke-width:0.5;" x1="263" x2="3036" y1="1556" y2="1556"/>
  <line id="Capline-L" style="fill:none;stroke:#27AAE1;opacity:1;stroke-width:0.5;" x1="263" x2="3036" y1="1485.54" y2="1485.54"/>
  <line id="left-margin" x1="1402.210108642578" x2="1402.210108642578" y1="1030.79" y2="1150.12" style="fill:none;stroke:#00AEEF;stroke-width:0.5;opacity:1.0;"/>
  <line id="right-margin" x1="1498.3266857910155" x2="1498.3266857910155" y1="1030.79" y2="1150.12" style="fill:none;stroke:#00AEEF;stroke-width:0.5;opacity:1.0;"/>
 </g>
 <g id="Symbols">
  <g id="Black-L" transform="matrix(1.0,0.0,0.0,1.0,2872.931800537109,1459.0218200683594)">  <path fill-rule="nonzero" version="1.0" stroke="none" stroke-linejoin="miter" stroke-opacity="1" stroke-linecap="butt" fill="#000000" fill-opacity="1" stroke-miterlimit="4" stroke-width="1px" preserveAspectRatio="xMidYMid meet" stroke-dasharray="none" d="M55.983,0.241C35.047,2.267,16.33,14.955,6.85,33.576C3.497,40.16,1.52,46.504,0.434,54.15C-0.048,57.527,0.024,66.307,0.579,70.07C1.52,76.775,3.497,83.119,6.537,89.221C12.543,101.33,22.143,110.93,34.275,116.96C53.933,126.753,77.185,125.402,95.517,113.414C102.681,108.735,109.482,101.788,114.114,94.407C115.898,91.609,118.552,86.158,119.758,82.878C120.988,79.549,122.411,73.808,122.918,70.07C123.472,66.283,123.545,57.503,123.062,54.15C121.639,44.14,118.455,35.602,113.173,27.642C110.954,24.265,108.711,21.515,105.575,18.356C95.951,8.635,83.987,2.605,70.311,0.579C67.368,0.145,59.071,-0.048,55.983,0.241ZM39.485,37.676C43.272,39.075,45.467,43.513,44.285,47.3C42.91,51.666,38.4,53.909,33.962,52.438C32.152,51.859,29.909,49.592,29.306,47.758C27.135,41.294,33.166,35.312,39.485,37.676ZM90.283,37.965C93.828,39.702,95.517,43.923,94.214,47.758C93.587,49.567,91.32,51.859,89.559,52.438C85.627,53.74,81.551,52.124,79.79,48.554C79.091,47.107,78.994,46.697,78.994,44.985C78.994,43.368,79.091,42.838,79.67,41.68C80.49,39.992,82.299,38.303,84.011,37.628C85.796,36.928,88.449,37.073,90.283,37.965ZM91.247,83.963C92.671,84.349,93.997,85.7,94.431,87.195C95.107,89.511,94.166,91.682,92.043,92.743L90.837,93.346L61.821,93.346C30.03,93.346,31.863,93.418,30.319,91.947C27.763,89.535,28.679,85.241,31.984,84.06C32.755,83.77,37.845,83.722,61.628,83.698C81.141,83.698,90.62,83.794,91.247,83.963ZM91.247,83.963"/>
</g>
  <g id="Heavy-L" transform="matrix(1.0,0.0,0.0,1.0,2576.221800537109,1459.0218200683594)">  <path stroke-dasharray="none" preserveAspectRatio="xMidYMid meet" fill-rule="nonzero" fill="#000000" stroke-opacity="1" stroke="none" stroke-linejoin="miter" stroke-linecap="butt" version="1.0" stroke-width="1px" fill-opacity="1" stroke-miterlimit="4" d="M55.983,0.241C35.047,2.267,16.33,14.955,6.85,33.576C3.497,40.16,1.52,46.504,0.434,54.15C-0.048,57.527,0.024,66.307,0.579,70.07C1.52,76.775,3.497,83.119,6.537,89.221C12.543,101.33,22.143,110.93,34.275,116.96C53.933,126.753,77.185,125.402,95.517,113.414C102.681,108.735,109.482,101.788,114.114,94.407C115.898,91.609,118.552,86.158,119.758,82.878C120.988,79.549,122.411,73.808,122.918,70.07C123.472,66.283,123.545,57.503,123.062,54.15C121.639,44.14,118.455,35.602,113.173,27.642C110.954,24.265,108.711,21.515,105.575,18.356C95.951,8.635,83.987,2.605,70.311,0.579C67.368,0.145,59.071,-0.048,55.983,0.241ZM39.485,37.676C43.272,39.075,45.467,43.513,44.285,47.3C42.91,51.666,38.4,53.909,33.962,52.438C32.152,51.859,29.909,49.592,29.306,47.758C27.135,41.294,33.166,35.312,39.485,37.676ZM90.283,37.965C93.828,39.702,95.517,43.923,94.214,47.758C93.587,49.567,91.32,51.859,89.559,52.438C85.627,53.74,81.551,52.124,79.79,48.554C79.091,47.107,78.994,46.697,78.994,44.985C78.994,43.368,79.091,42.838,79.67,41.68C80.49,39.992,82.299,38.303,84.011,37.628C85.796,36.928,88.449,37.073,90.283,37.965ZM91.247,83.963C92.671,84.349,93.997,85.7,94.431,87.195C95.107,89.511,94.166,91.682,92.043,92.743L90.837,93.346L61.821,93.346C30.03,93.346,31.863,93.418,30.319,91.947C27.763,89.535,28.679,85.241,31.984,84.06C32.755,83.77,37.845,83.722,61.628,83.698C81.141,83.698,90.62,83.794,91.247,83.963ZM91.247,83.963"/>
</g>
  <g id="Bold-L" transform="matrix(1.0,0.0,0.0,1.0,2279.511800537109,1459.0218200683594)">  <path fill="#000000" stroke-linejoin="miter" fill-opacity="1" version="1.0" stroke-width="1px" stroke-miterlimit="4" stroke-linecap="butt" fill-rule="nonzero" stroke-dasharray="none" stroke="none" preserveAspectRatio="xMidYMid meet" stroke-opacity="1" d="M55.983,0.241C35.047,2.267,16.33,14.955,6.85,33.576C3.497,40.16,1.52,46.504,0.434,54.15C-0.048,57.527,0.024,66.307,0.579,70.07C1.52,76.775,3.497,83.119,6.537,89.221C12.543,101.33,22.143,110.93,34.275,116.96C53.933,126.753,77.185,125.402,95.517,113.414C102.681,108.735,109.482,101.788,114.114,94.407C115.898,91.609,118.552,86.158,119.758,82.878C120.988,79.549,122.411,73.808,122.918,70.07C123.472,66.283,123.545,57.503,123.062,54.15C121.639,44.14,118.455,35.602,113.173,27.642C110.954,24.265,108.711,21.515,105.575,18.356C95.951,8.635,83.987,2.605,70.311,0.579C67.368,0.145,59.071,-0.048,55.983,0.241ZM39.485,37.676C43.272,39.075,45.467,43.513,44.285,47.3C42.91,51.666,38.4,53.909,33.962,52.438C32.152,51.859,29.909,49.592,29.306,47.758C27.135,41.294,33.166,35.312,39.485,37.676ZM90.283,37.965C93.828,39.702,95.517,43.923,94.214,47.758C93.587,49.567,91.32,51.859,89.559,52.438C85.627,53.74,81.551,52.124,79.79,48.554C79.091,47.107,78.994,46.697,78.994,44.985C78.994,43.368,79.091,42.838,79.67,41.68C80.49,39.992,82.299,38.303,84.011,37.628C85.796,36.928,88.449,37.073,90.283,37.965ZM91.247,83.963C92.671,84.349,93.997,85.7,94.431,87.195C95.107,89.511,94.166,91.682,92.043,92.743L90.837,93.346L61.821,93.346C30.03,93.346,31.863,93.418,30.319,91.947C27.763,89.535,28.679,85.241,31.984,84.06C32.755,83.77,37.845,83.722,61.628,83.698C81.141,83.698,90.62,83.794,91.247,83.963ZM91.247,83.963"/>
</g>
  <g id="Semibold-L" transform="matrix(1.0,0.0,0.0,1.0,1982.8018005371093,1459.0218200683594)">  <path stroke-width="1px" preserveAspectRatio="xMidYMid meet" fill-opacity="1" stroke-opacity="1" fill-rule="nonzero" stroke-dasharray="none" stroke-linecap="butt" stroke="none" stroke-linejoin="miter" fill="#000000" stroke-miterlimit="4" version="1.0" d="M55.983,0.241C35.047,2.267,16.33,14.955,6.85,33.576C3.497,40.16,1.52,46.504,0.434,54.15C-0.048,57.527,0.024,66.307,0.579,70.07C1.52,76.775,3.497,83.119,6.537,89.221C12.543,101.33,22.143,110.93,34.275,116.96C53.933,126.753,77.185,125.402,95.517,113.414C102.681,108.735,109.482,101.788,114.114,94.407C115.898,91.609,118.552,86.158,119.758,82.878C120.988,79.549,122.411,73.808,122.918,70.07C123.472,66.283,123.545,57.503,123.062,54.15C121.639,44.14,118.455,35.602,113.173,27.642C110.954,24.265,108.711,21.515,105.575,18.356C95.951,8.635,83.987,2.605,70.311,0.579C67.368,0.145,59.071,-0.048,55.983,0.241ZM39.485,37.676C43.272,39.075,45.467,43.513,44.285,47.3C42.91,51.666,38.4,53.909,33.962,52.438C32.152,51.859,29.909,49.592,29.306,47.758C27.135,41.294,33.166,35.312,39.485,37.676ZM90.283,37.965C93.828,39.702,95.517,43.923,94.214,47.758C93.587,49.567,91.32,51.859,89.559,52.438C85.627,53.74,81.551,52.124,79.79,48.554C79.091,47.107,78.994,46.697,78.994,44.985C78.994,43.368,79.091,42.838,79.67,41.68C80.49,39.992,82.299,38.303,84.011,37.628C85.796,36.928,88.449,37.073,90.283,37.965ZM91.247,83.963C92.671,84.349,93.997,85.7,94.431,87.195C95.107,89.511,94.166,91.682,92.043,92.743L90.837,93.346L61.821,93.346C30.03,93.346,31.863,93.418,30.319,91.947C27.763,89.535,28.679,85.241,31.984,84.06C32.755,83.77,37.845,83.722,61.628,83.698C81.141,83.698,90.62,83.794,91.247,83.963ZM91.247,83.963"/>
</g>
  <g id="Medium-L" transform="matrix(1.0,0.0,0.0,1.0,1686.0918005371093,1459.0218200683594)">  <path stroke-miterlimit="4" version="1.0" fill="#000000" stroke-linecap="butt" fill-opacity="1" stroke-opacity="1" stroke="none" stroke-dasharray="none" stroke-width="1px" preserveAspectRatio="xMidYMid meet" stroke-linejoin="miter" fill-rule="nonzero" d="M55.983,0.241C35.047,2.267,16.33,14.955,6.85,33.576C3.497,40.16,1.52,46.504,0.434,54.15C-0.048,57.527,0.024,66.307,0.579,70.07C1.52,76.775,3.497,83.119,6.537,89.221C12.543,101.33,22.143,110.93,34.275,116.96C53.933,126.753,77.185,125.402,95.517,113.414C102.681,108.735,109.482,101.788,114.114,94.407C115.898,91.609,118.552,86.158,119.758,82.878C120.988,79.549,122.411,73.808,122.918,70.07C123.472,66.283,123.545,57.503,123.062,54.15C121.639,44.14,118.455,35.602,113.173,27.642C110.954,24.265,108.711,21.515,105.575,18.356C95.951,8.635,83.987,2.605,70.311,0.579C67.368,0.145,59.071,-0.048,55.983,0.241ZM39.485,37.676C43.272,39.075,45.467,43.513,44.285,47.3C42.91,51.666,38.4,53.909,33.962,52.438C32.152,51.859,29.909,49.592,29.306,47.758C27.135,41.294,33.166,35.312,39.485,37.676ZM90.283,37.965C93.828,39.702,95.517,43.923,94.214,47.758C93.587,49.567,91.32,51.859,89.559,52.438C85.627,53.74,81.551,52.124,79.79,48.554C79.091,47.107,78.994,46.697,78.994,44.985C78.994,43.368,79.091,42.838,79.67,41.68C80.49,39.992,82.299,38.303,84.011,37.628C85.796,36.928,88.449,37.073,90.283,37.965ZM91.247,83.963C92.671,84.349,93.997,85.7,94.431,87.195C95.107,89.511,94.166,91.682,92.043,92.743L90.837,93.346L61.821,93.346C30.03,93.346,31.863,93.418,30.319,91.947C27.763,89.535,28.679,85.241,31.984,84.06C32.755,83.77,37.845,83.722,61.628,83.698C81.141,83.698,90.62,83.794,91.247,83.963ZM91.247,83.963"/>
</g>
  <g id="Regular-L" transform="matrix(1.0,0.0,0.0,1.0,1389.3818005371093,1459.0218200683594)">  <path stroke="none" fill-rule="nonzero" stroke-linecap="butt" version="1.0" stroke-linejoin="miter" preserveAspectRatio="xMidYMid meet" fill="#000000" stroke-miterlimit="4" fill-opacity="1" stroke-opacity="1" stroke-dasharray="none" stroke-width="1px" d="M55.983,0.241C35.047,2.267,16.33,14.955,6.85,33.576C3.497,40.16,1.52,46.504,0.434,54.15C-0.048,57.527,0.024,66.307,0.579,70.07C1.52,76.775,3.497,83.119,6.537,89.221C12.543,101.33,22.143,110.93,34.275,116.96C53.933,126.753,77.185,125.402,95.517,113.414C102.681,108.735,109.482,101.788,114.114,94.407C115.898,91.609,118.552,86.158,119.758,82.878C120.988,79.549,122.411,73.808,122.918,70.07C123.472,66.283,123.545,57.503,123.062,54.15C121.639,44.14,118.455,35.602,113.173,27.642C110.954,24.265,108.711,21.515,105.575,18.356C95.951,8.635,83.987,2.605,70.311,0.579C67.368,0.145,59.071,-0.048,55.983,0.241ZM39.485,37.676C43.272,39.075,45.467,43.513,44.285,47.3C42.91,51.666,38.4,53.909,33.962,52.438C32.152,51.859,29.909,49.592,29.306,47.758C27.135,41.294,33.166,35.312,39.485,37.676ZM90.283,37.965C93.828,39.702,95.517,43.923,94.214,47.758C93.587,49.567,91.32,51.859,89.559,52.438C85.627,53.74,81.551,52.124,79.79,48.554C79.091,47.107,78.994,46.697,78.994,44.985C78.994,43.368,79.091,42.838,79.67,41.68C80.49,39.992,82.299,38.303,84.011,37.628C85.796,36.928,88.449,37.073,90.283,37.965ZM91.247,83.963C92.671,84.349,93.997,85.7,94.431,87.195C95.107,89.511,94.166,91.682,92.043,92.743L90.837,93.346L61.821,93.346C30.03,93.346,31.863,93.418,30.319,91.947C27.763,89.535,28.679,85.241,31.984,84.06C32.755,83.77,37.845,83.722,61.628,83.698C81.141,83.698,90.62,83.794,91.247,83.963ZM91.247,83.963"/>
</g>
  <g id="Light-L" transform="matrix(1.0,0.0,0.0,1.0,1092.6718005371094,1459.0218200683594)">  <path stroke-width="1px" stroke-opacity="1" stroke-dasharray="none" fill="#000000" fill-opacity="1" stroke="none" fill-rule="nonzero" stroke-linejoin="miter" stroke-miterlimit="4" stroke-linecap="butt" preserveAspectRatio="xMidYMid meet" version="1.0" d="M55.983,0.241C35.047,2.267,16.33,14.955,6.85,33.576C3.497,40.16,1.52,46.504,0.434,54.15C-0.048,57.527,0.024,66.307,0.579,70.07C1.52,76.775,3.497,83.119,6.537,89.221C12.543,101.33,22.143,110.93,34.275,116.96C53.933,126.753,77.185,125.402,95.517,113.414C102.681,108.735,109.482,101.788,114.114,94.407C115.898,91.609,118.552,86.158,119.758,82.878C120.988,79.549,122.411,73.808,122.918,70.07C123.472,66.283,123.545,57.503,123.062,54.15C121.639,44.14,118.455,35.602,113.173,27.642C110.954,24.265,108.711,21.515,105.575,18.356C95.951,8.635,83.987,2.605,70.311,0.579C67.368,0.145,59.071,-0.048,55.983,0.241ZM39.485,37.676C43.272,39.075,45.467,43.513,44.285,47.3C42.91,51.666,38.4,53.909,33.962,52.438C32.152,51.859,29.909,49.592,29.306,47.758C27.135,41.294,33.166,35.312,39.485,37.676ZM90.283,37.965C93.828,39.702,95.517,43.923,94.214,47.758C93.587,49.567,91.32,51.859,89.559,52.438C85.627,53.74,81.551,52.124,79.79,48.554C79.091,47.107,78.994,46.697,78.994,44.985C78.994,43.368,79.091,42.838,79.67,41.68C80.49,39.992,82.299,38.303,84.011,37.628C85.796,36.928,88.449,37.073,90.283,37.965ZM91.247,83.963C92.671,84.349,93.997,85.7,94.431,87.195C95.107,89.511,94.166,91.682,92.043,92.743L90.837,93.346L61.821,93.346C30.03,93.346,31.863,93.418,30.319,91.947C27.763,89.535,28.679,85.241,31.984,84.06C32.755,83.77,37.845,83.722,61.628,83.698C81.141,83.698,90.62,83.794,91.247,83.963ZM91.247,83.963"/>
</g>
  <g id="Thin-L" transform="matrix(1.0,0.0,0.0,1.0,795.9618005371094,1459.0218200683594)">  <path stroke-miterlimit="4" stroke="none" fill-opacity="1" stroke-linejoin="miter" fill="#000000" stroke-opacity="1" preserveAspectRatio="xMidYMid meet" stroke-dasharray="none" version="1.0" fill-rule="nonzero" stroke-width="1px" stroke-linecap="butt" d="M55.983,0.241C35.047,2.267,16.33,14.955,6.85,33.576C3.497,40.16,1.52,46.504,0.434,54.15C-0.048,57.527,0.024,66.307,0.579,70.07C1.52,76.775,3.497,83.119,6.537,89.221C12.543,101.33,22.143,110.93,34.275,116.96C53.933,126.753,77.185,125.402,95.517,113.414C102.681,108.735,109.482,101.788,114.114,94.407C115.898,91.609,118.552,86.158,119.758,82.878C120.988,79.549,122.411,73.808,122.918,70.07C123.472,66.283,123.545,57.503,123.062,54.15C121.639,44.14,118.455,35.602,113.173,27.642C110.954,24.265,108.711,21.515,105.575,18.356C95.951,8.635,83.987,2.605,70.311,0.579C67.368,0.145,59.071,-0.048,55.983,0.241ZM39.485,37.676C43.272,39.075,45.467,43.513,44.285,47.3C42.91,51.666,38.4,53.909,33.962,52.438C32.152,51.859,29.909,49.592,29.306,47.758C27.135,41.294,33.166,35.312,39.485,37.676ZM90.283,37.965C93.828,39.702,95.517,43.923,94.214,47.758C93.587,49.567,91.32,51.859,89.559,52.438C85.627,53.74,81.551,52.124,79.79,48.554C79.091,47.107,78.994,46.697,78.994,44.985C78.994,43.368,79.091,42.838,79.67,41.68C80.49,39.992,82.299,38.303,84.011,37.628C85.796,36.928,88.449,37.073,90.283,37.965ZM91.247,83.963C92.671,84.349,93.997,85.7,94.431,87.195C95.107,89.511,94.166,91.682,92.043,92.743L90.837,93.346L61.821,93.346C30.03,93.346,31.863,93.418,30.319,91.947C27.763,89.535,28.679,85.241,31.984,84.06C32.755,83.77,37.845,83.722,61.628,83.698C81.141,83.698,90.62,83.794,91.247,83.963ZM91.247,83.963"/>
</g>
  <g id="Ultralight-L" transform="matrix(1.0,0.0,0.0,1.0,499.2518005371094,1459.0218200683594)">  <path fill-rule="nonzero" stroke-width="1px" fill="#000000" version="1.0" preserveAspectRatio="xMidYMid meet" stroke-opacity="1" stroke-miterlimit="4" stroke-linejoin="miter" stroke-linecap="butt" fill-opacity="1" stroke="none" stroke-dasharray="none" d="M55.983,0.241C35.047,2.267,16.33,14.955,6.85,33.576C3.497,40.16,1.52,46.504,0.434,54.15C-0.048,57.527,0.024,66.307,0.579,70.07C1.52,76.775,3.497,83.119,6.537,89.221C12.543,101.33,22.143,110.93,34.275,116.96C53.933,126.753,77.185,125.402,95.517,113.414C102.681,108.735,109.482,101.788,114.114,94.407C115.898,91.609,118.552,86.158,119.758,82.878C120.988,79.549,122.411,73.808,122.918,70.07C123.472,66.283,123.545,57.503,123.062,54.15C121.639,44.14,118.455,35.602,113.173,27.642C110.954,24.265,108.711,21.515,105.575,18.356C95.951,8.635,83.987,2.605,70.311,0.579C67.368,0.145,59.071,-0.048,55.983,0.241ZM39.485,37.676C43.272,39.075,45.467,43.513,44.285,47.3C42.91,51.666,38.4,53.909,33.962,52.438C32.152,51.859,29.909,49.592,29.306,47.758C27.135,41.294,33.166,35.312,39.485,37.676ZM90.283,37.965C93.828,39.702,95.517,43.923,94.214,47.758C93.587,49.567,91.32,51.859,89.559,52.438C85.627,53.74,81.551,52.124,79.79,48.554C79.091,47.107,78.994,46.697,78.994,44.985C78.994,43.368,79.091,42.838,79.67,41.68C80.49,39.992,82.299,38.303,84.011,37.628C85.796,36.928,88.449,37.073,90.283,37.965ZM91.247,83.963C92.671,84.349,93.997,85.7,94.431,87.195C95.107,89.511,94.166,91.682,92.043,92.743L90.837,93.346L61.821,93.346C30.03,93.346,31.863,93.418,30.319,91.947C27.763,89.535,28.679,85.241,31.984,84.06C32.755,83.77,37.845,83.722,61.628,83.698C81.141,83.698,90.62,83.794,91.247,83.963ZM91.247,83.963"/>
</g>
  <g id="Black-M" transform="matrix(1.0,0.0,0.0,1.0,2886.8131787109373,1042.9031982421875)">  <path fill-rule="nonzero" version="1.0" stroke="none" stroke-linejoin="miter" stroke-opacity="1" stroke-linecap="butt" fill="#000000" fill-opacity="1" stroke-miterlimit="4" stroke-width="1px" preserveAspectRatio="xMidYMid meet" stroke-dasharray="none" d="M43.398,0.187C27.168,1.758,12.659,11.593,5.31,26.028C2.711,31.132,1.178,36.05,0.337,41.977C-0.037,44.595,0.019,51.401,0.449,54.318C1.178,59.516,2.711,64.433,5.067,69.164C9.723,78.55,17.165,85.992,26.57,90.666C41.809,98.258,59.834,97.211,74.044,87.918C79.597,84.29,84.87,78.905,88.46,73.184C89.844,71.015,91.901,66.789,92.835,64.246C93.789,61.666,94.892,57.216,95.285,54.318C95.715,51.382,95.771,44.576,95.397,41.977C94.294,34.217,91.826,27.598,87.731,21.428C86.011,18.81,84.272,16.679,81.841,14.229C74.381,6.694,65.106,2.019,54.505,0.449C52.223,0.112,45.791,-0.037,43.398,0.187ZM30.609,29.206C33.544,30.291,35.246,33.731,34.329,36.667C33.264,40.051,29.767,41.79,26.327,40.649C24.924,40.201,23.185,38.443,22.718,37.022C21.035,32.011,25.71,27.374,30.609,29.206ZM69.987,29.431C72.735,30.777,74.044,34.049,73.034,37.022C72.548,38.424,70.791,40.201,69.426,40.649C66.378,41.659,63.218,40.406,61.853,37.639C61.311,36.517,61.236,36.199,61.236,34.872C61.236,33.619,61.311,33.208,61.759,32.31C62.395,31.001,63.797,29.692,65.125,29.169C66.509,28.627,68.565,28.739,69.987,29.431ZM70.734,65.088C71.838,65.387,72.866,66.434,73.203,67.593C73.726,69.388,72.997,71.071,71.351,71.894L70.417,72.361L47.923,72.361C23.279,72.361,24.7,72.417,23.503,71.277C21.521,69.407,22.232,66.079,24.794,65.162C25.392,64.938,29.337,64.901,47.773,64.882C62.9,64.882,70.248,64.957,70.734,65.088ZM70.734,65.088"/>
</g>
  <g id="Heavy-M" transform="matrix(1.0,0.0,0.0,1.0,2590.1031787109373,1042.9031982421875)">  <path stroke-dasharray="none" preserveAspectRatio="xMidYMid meet" fill-rule="nonzero" fill="#000000" stroke-opacity="1" stroke="none" stroke-linejoin="miter" stroke-linecap="butt" version="1.0" stroke-width="1px" fill-opacity="1" stroke-miterlimit="4" d="M43.398,0.187C27.168,1.758,12.659,11.593,5.31,26.028C2.711,31.132,1.178,36.05,0.337,41.977C-0.037,44.595,0.019,51.401,0.449,54.318C1.178,59.516,2.711,64.433,5.067,69.164C9.723,78.55,17.165,85.992,26.57,90.666C41.809,98.258,59.834,97.211,74.044,87.918C79.597,84.29,84.87,78.905,88.46,73.184C89.844,71.015,91.901,66.789,92.835,64.246C93.789,61.666,94.892,57.216,95.285,54.318C95.715,51.382,95.771,44.576,95.397,41.977C94.294,34.217,91.826,27.598,87.731,21.428C86.011,18.81,84.272,16.679,81.841,14.229C74.381,6.694,65.106,2.019,54.505,0.449C52.223,0.112,45.791,-0.037,43.398,0.187ZM30.609,29.206C33.544,30.291,35.246,33.731,34.329,36.667C33.264,40.051,29.767,41.79,26.327,40.649C24.924,40.201,23.185,38.443,22.718,37.022C21.035,32.011,25.71,27.374,30.609,29.206ZM69.987,29.431C72.735,30.777,74.044,34.049,73.034,37.022C72.548,38.424,70.791,40.201,69.426,40.649C66.378,41.659,63.218,40.406,61.853,37.639C61.311,36.517,61.236,36.199,61.236,34.872C61.236,33.619,61.311,33.208,61.759,32.31C62.395,31.001,63.797,29.692,65.125,29.169C66.509,28.627,68.565,28.739,69.987,29.431ZM70.734,65.088C71.838,65.387,72.866,66.434,73.203,67.593C73.726,69.388,72.997,71.071,71.351,71.894L70.417,72.361L47.923,72.361C23.279,72.361,24.7,72.417,23.503,71.277C21.521,69.407,22.232,66.079,24.794,65.162C25.392,64.938,29.337,64.901,47.773,64.882C62.9,64.882,70.248,64.957,70.734,65.088ZM70.734,65.088"/>
</g>
  <g id="Bold-M" transform="matrix(1.0,0.0,0.0,1.0,2293.3931787109373,1042.9031982421875)">  <path fill="#000000" stroke-linejoin="miter" fill-opacity="1" version="1.0" stroke-width="1px" stroke-miterlimit="4" stroke-linecap="butt" fill-rule="nonzero" stroke-dasharray="none" stroke="none" preserveAspectRatio="xMidYMid meet" stroke-opacity="1" d="M43.398,0.187C27.168,1.758,12.659,11.593,5.31,26.028C2.711,31.132,1.178,36.05,0.337,41.977C-0.037,44.595,0.019,51.401,0.449,54.318C1.178,59.516,2.711,64.433,5.067,69.164C9.723,78.55,17.165,85.992,26.57,90.666C41.809,98.258,59.834,97.211,74.044,87.918C79.597,84.29,84.87,78.905,88.46,73.184C89.844,71.015,91.901,66.789,92.835,64.246C93.789,61.666,94.892,57.216,95.285,54.318C95.715,51.382,95.771,44.576,95.397,41.977C94.294,34.217,91.826,27.598,87.731,21.428C86.011,18.81,84.272,16.679,81.841,14.229C74.381,6.694,65.106,2.019,54.505,0.449C52.223,0.112,45.791,-0.037,43.398,0.187ZM30.609,29.206C33.544,30.291,35.246,33.731,34.329,36.667C33.264,40.051,29.767,41.79,26.327,40.649C24.924,40.201,23.185,38.443,22.718,37.022C21.035,32.011,25.71,27.374,30.609,29.206ZM69.987,29.431C72.735,30.777,74.044,34.049,73.034,37.022C72.548,38.424,70.791,40.201,69.426,40.649C66.378,41.659,63.218,40.406,61.853,37.639C61.311,36.517,61.236,36.199,61.236,34.872C61.236,33.619,61.311,33.208,61.759,32.31C62.395,31.001,63.797,29.692,65.125,29.169C66.509,28.627,68.565,28.739,69.987,29.431ZM70.734,65.088C71.838,65.387,72.866,66.434,73.203,67.593C73.726,69.388,72.997,71.071,71.351,71.894L70.417,72.361L47.923,72.361C23.279,72.361,24.7,72.417,23.503,71.277C21.521,69.407,22.232,66.079,24.794,65.162C25.392,64.938,29.337,64.901,47.773,64.882C62.9,64.882,70.248,64.957,70.734,65.088ZM70.734,65.088"/>
</g>
  <g id="Semibold-M" transform="matrix(1.0,0.0,0.0,1.0,1996.6831787109375,1042.9031982421875)">  <path stroke-width="1px" preserveAspectRatio="xMidYMid meet" fill-opacity="1" stroke-opacity="1" fill-rule="nonzero" stroke-dasharray="none" stroke-linecap="butt" stroke="none" stroke-linejoin="miter" fill="#000000" stroke-miterlimit="4" version="1.0" d="M43.398,0.187C27.168,1.758,12.659,11.593,5.31,26.028C2.711,31.132,1.178,36.05,0.337,41.977C-0.037,44.595,0.019,51.401,0.449,54.318C1.178,59.516,2.711,64.433,5.067,69.164C9.723,78.55,17.165,85.992,26.57,90.666C41.809,98.258,59.834,97.211,74.044,87.918C79.597,84.29,84.87,78.905,88.46,73.184C89.844,71.015,91.901,66.789,92.835,64.246C93.789,61.666,94.892,57.216,95.285,54.318C95.715,51.382,95.771,44.576,95.397,41.977C94.294,34.217,91.826,27.598,87.731,21.428C86.011,18.81,84.272,16.679,81.841,14.229C74.381,6.694,65.106,2.019,54.505,0.449C52.223,0.112,45.791,-0.037,43.398,0.187ZM30.609,29.206C33.544,30.291,35.246,33.731,34.329,36.667C33.264,40.051,29.767,41.79,26.327,40.649C24.924,40.201,23.185,38.443,22.718,37.022C21.035,32.011,25.71,27.374,30.609,29.206ZM69.987,29.431C72.735,30.777,74.044,34.049,73.034,37.022C72.548,38.424,70.791,40.201,69.426,40.649C66.378,41.659,63.218,40.406,61.853,37.639C61.311,36.517,61.236,36.199,61.236,34.872C61.236,33.619,61.311,33.208,61.759,32.31C62.395,31.001,63.797,29.692,65.125,29.169C66.509,28.627,68.565,28.739,69.987,29.431ZM70.734,65.088C71.838,65.387,72.866,66.434,73.203,67.593C73.726,69.388,72.997,71.071,71.351,71.894L70.417,72.361L47.923,72.361C23.279,72.361,24.7,72.417,23.503,71.277C21.521,69.407,22.232,66.079,24.794,65.162C25.392,64.938,29.337,64.901,47.773,64.882C62.9,64.882,70.248,64.957,70.734,65.088ZM70.734,65.088"/>
</g>
  <g id="Medium-M" transform="matrix(1.0,0.0,0.0,1.0,1699.9731787109374,1042.9031982421875)">  <path stroke-miterlimit="4" version="1.0" fill="#000000" stroke-linecap="butt" fill-opacity="1" stroke-opacity="1" stroke="none" stroke-dasharray="none" stroke-width="1px" preserveAspectRatio="xMidYMid meet" stroke-linejoin="miter" fill-rule="nonzero" d="M43.398,0.187C27.168,1.758,12.659,11.593,5.31,26.028C2.711,31.132,1.178,36.05,0.337,41.977C-0.037,44.595,0.019,51.401,0.449,54.318C1.178,59.516,2.711,64.433,5.067,69.164C9.723,78.55,17.165,85.992,26.57,90.666C41.809,98.258,59.834,97.211,74.044,87.918C79.597,84.29,84.87,78.905,88.46,73.184C89.844,71.015,91.901,66.789,92.835,64.246C93.789,61.666,94.892,57.216,95.285,54.318C95.715,51.382,95.771,44.576,95.397,41.977C94.294,34.217,91.826,27.598,87.731,21.428C86.011,18.81,84.272,16.679,81.841,14.229C74.381,6.694,65.106,2.019,54.505,0.449C52.223,0.112,45.791,-0.037,43.398,0.187ZM30.609,29.206C33.544,30.291,35.246,33.731,34.329,36.667C33.264,40.051,29.767,41.79,26.327,40.649C24.924,40.201,23.185,38.443,22.718,37.022C21.035,32.011,25.71,27.374,30.609,29.206ZM69.987,29.431C72.735,30.777,74.044,34.049,73.034,37.022C72.548,38.424,70.791,40.201,69.426,40.649C66.378,41.659,63.218,40.406,61.853,37.639C61.311,36.517,61.236,36.199,61.236,34.872C61.236,33.619,61.311,33.208,61.759,32.31C62.395,31.001,63.797,29.692,65.125,29.169C66.509,28.627,68.565,28.739,69.987,29.431ZM70.734,65.088C71.838,65.387,72.866,66.434,73.203,67.593C73.726,69.388,72.997,71.071,71.351,71.894L70.417,72.361L47.923,72.361C23.279,72.361,24.7,72.417,23.503,71.277C21.521,69.407,22.232,66.079,24.794,65.162C25.392,64.938,29.337,64.901,47.773,64.882C62.9,64.882,70.248,64.957,70.734,65.088ZM70.734,65.088"/>
</g>
  <g id="Regular-M" transform="matrix(1.0,0.0,0.0,1.0,1403.2631787109374,1042.9031982421875)">  <path stroke="none" fill-rule="nonzero" stroke-linecap="butt" version="1.0" stroke-linejoin="miter" preserveAspectRatio="xMidYMid meet" fill="#000000" stroke-miterlimit="4" fill-opacity="1" stroke-opacity="1" stroke-dasharray="none" stroke-width="1px" d="M43.398,0.187C27.168,1.758,12.659,11.593,5.31,26.028C2.711,31.132,1.178,36.05,0.337,41.977C-0.037,44.595,0.019,51.401,0.449,54.318C1.178,59.516,2.711,64.433,5.067,69.164C9.723,78.55,17.165,85.992,26.57,90.666C41.809,98.258,59.834,97.211,74.044,87.918C79.597,84.29,84.87,78.905,88.46,73.184C89.844,71.015,91.901,66.789,92.835,64.246C93.789,61.666,94.892,57.216,95.285,54.318C95.715,51.382,95.771,44.576,95.397,41.977C94.294,34.217,91.826,27.598,87.731,21.428C86.011,18.81,84.272,16.679,81.841,14.229C74.381,6.694,65.106,2.019,54.505,0.449C52.223,0.112,45.791,-0.037,43.398,0.187ZM30.609,29.206C33.544,30.291,35.246,33.731,34.329,36.667C33.264,40.051,29.767,41.79,26.327,40.649C24.924,40.201,23.185,38.443,22.718,37.022C21.035,32.011,25.71,27.374,30.609,29.206ZM69.987,29.431C72.735,30.777,74.044,34.049,73.034,37.022C72.548,38.424,70.791,40.201,69.426,40.649C66.378,41.659,63.218,40.406,61.853,37.639C61.311,36.517,61.236,36.199,61.236,34.872C61.236,33.619,61.311,33.208,61.759,32.31C62.395,31.001,63.797,29.692,65.125,29.169C66.509,28.627,68.565,28.739,69.987,29.431ZM70.734,65.088C71.838,65.387,72.866,66.434,73.203,67.593C73.726,69.388,72.997,71.071,71.351,71.894L70.417,72.361L47.923,72.361C23.279,72.361,24.7,72.417,23.503,71.277C21.521,69.407,22.232,66.079,24.794,65.162C25.392,64.938,29.337,64.901,47.773,64.882C62.9,64.882,70.248,64.957,70.734,65.088ZM70.734,65.088"/>
</g>
  <g id="Light-M" transform="matrix(1.0,0.0,0.0,1.0,1106.5531787109376,1042.9031982421875)">  <path stroke-width="1px" stroke-opacity="1" stroke-dasharray="none" fill="#000000" fill-opacity="1" stroke="none" fill-rule="nonzero" stroke-linejoin="miter" stroke-miterlimit="4" stroke-linecap="butt" preserveAspectRatio="xMidYMid meet" version="1.0" d="M43.398,0.187C27.168,1.758,12.659,11.593,5.31,26.028C2.711,31.132,1.178,36.05,0.337,41.977C-0.037,44.595,0.019,51.401,0.449,54.318C1.178,59.516,2.711,64.433,5.067,69.164C9.723,78.55,17.165,85.992,26.57,90.666C41.809,98.258,59.834,97.211,74.044,87.918C79.597,84.29,84.87,78.905,88.46,73.184C89.844,71.015,91.901,66.789,92.835,64.246C93.789,61.666,94.892,57.216,95.285,54.318C95.715,51.382,95.771,44.576,95.397,41.977C94.294,34.217,91.826,27.598,87.731,21.428C86.011,18.81,84.272,16.679,81.841,14.229C74.381,6.694,65.106,2.019,54.505,0.449C52.223,0.112,45.791,-0.037,43.398,0.187ZM30.609,29.206C33.544,30.291,35.246,33.731,34.329,36.667C33.264,40.051,29.767,41.79,26.327,40.649C24.924,40.201,23.185,38.443,22.718,37.022C21.035,32.011,25.71,27.374,30.609,29.206ZM69.987,29.431C72.735,30.777,74.044,34.049,73.034,37.022C72.548,38.424,70.791,40.201,69.426,40.649C66.378,41.659,63.218,40.406,61.853,37.639C61.311,36.517,61.236,36.199,61.236,34.872C61.236,33.619,61.311,33.208,61.759,32.31C62.395,31.001,63.797,29.692,65.125,29.169C66.509,28.627,68.565,28.739,69.987,29.431ZM70.734,65.088C71.838,65.387,72.866,66.434,73.203,67.593C73.726,69.388,72.997,71.071,71.351,71.894L70.417,72.361L47.923,72.361C23.279,72.361,24.7,72.417,23.503,71.277C21.521,69.407,22.232,66.079,24.794,65.162C25.392,64.938,29.337,64.901,47.773,64.882C62.9,64.882,70.248,64.957,70.734,65.088ZM70.734,65.088"/>
</g>
  <g id="Thin-M" transform="matrix(1.0,0.0,0.0,1.0,809.8431787109375,1042.9031982421875)">  <path stroke-miterlimit="4" stroke="none" fill-opacity="1" stroke-linejoin="miter" fill="#000000" stroke-opacity="1" preserveAspectRatio="xMidYMid meet" stroke-dasharray="none" version="1.0" fill-rule="nonzero" stroke-width="1px" stroke-linecap="butt" d="M43.398,0.187C27.168,1.758,12.659,11.593,5.31,26.028C2.711,31.132,1.178,36.05,0.337,41.977C-0.037,44.595,0.019,51.401,0.449,54.318C1.178,59.516,2.711,64.433,5.067,69.164C9.723,78.55,17.165,85.992,26.57,90.666C41.809,98.258,59.834,97.211,74.044,87.918C79.597,84.29,84.87,78.905,88.46,73.184C89.844,71.015,91.901,66.789,92.835,64.246C93.789,61.666,94.892,57.216,95.285,54.318C95.715,51.382,95.771,44.576,95.397,41.977C94.294,34.217,91.826,27.598,87.731,21.428C86.011,18.81,84.272,16.679,81.841,14.229C74.381,6.694,65.106,2.019,54.505,0.449C52.223,0.112,45.791,-0.037,43.398,0.187ZM30.609,29.206C33.544,30.291,35.246,33.731,34.329,36.667C33.264,40.051,29.767,41.79,26.327,40.649C24.924,40.201,23.185,38.443,22.718,37.022C21.035,32.011,25.71,27.374,30.609,29.206ZM69.987,29.431C72.735,30.777,74.044,34.049,73.034,37.022C72.548,38.424,70.791,40.201,69.426,40.649C66.378,41.659,63.218,40.406,61.853,37.639C61.311,36.517,61.236,36.199,61.236,34.872C61.236,33.619,61.311,33.208,61.759,32.31C62.395,31.001,63.797,29.692,65.125,29.169C66.509,28.627,68.565,28.739,69.987,29.431ZM70.734,65.088C71.838,65.387,72.866,66.434,73.203,67.593C73.726,69.388,72.997,71.071,71.351,71.894L70.417,72.361L47.923,72.361C23.279,72.361,24.7,72.417,23.503,71.277C21.521,69.407,22.232,66.079,24.794,65.162C25.392,64.938,29.337,64.901,47.773,64.882C62.9,64.882,70.248,64.957,70.734,65.088ZM70.734,65.088"/>
</g>
  <g id="Ultralight-M" transform="matrix(1.0,0.0,0.0,1.0,513.1331787109375,1042.9031982421875)">  <path fill-rule="nonzero" stroke-width="1px" fill="#000000" version="1.0" preserveAspectRatio="xMidYMid meet" stroke-opacity="1" stroke-miterlimit="4" stroke-linejoin="miter" stroke-linecap="butt" fill-opacity="1" stroke="none" stroke-dasharray="none" d="M43.398,0.187C27.168,1.758,12.659,11.593,5.31,26.028C2.711,31.132,1.178,36.05,0.337,41.977C-0.037,44.595,0.019,51.401,0.449,54.318C1.178,59.516,2.711,64.433,5.067,69.164C9.723,78.55,17.165,85.992,26.57,90.666C41.809,98.258,59.834,97.211,74.044,87.918C79.597,84.29,84.87,78.905,88.46,73.184C89.844,71.015,91.901,66.789,92.835,64.246C93.789,61.666,94.892,57.216,95.285,54.318C95.715,51.382,95.771,44.576,95.397,41.977C94.294,34.217,91.826,27.598,87.731,21.428C86.011,18.81,84.272,16.679,81.841,14.229C74.381,6.694,65.106,2.019,54.505,0.449C52.223,0.112,45.791,-0.037,43.398,0.187ZM30.609,29.206C33.544,30.291,35.246,33.731,34.329,36.667C33.264,40.051,29.767,41.79,26.327,40.649C24.924,40.201,23.185,38.443,22.718,37.022C21.035,32.011,25.71,27.374,30.609,29.206ZM69.987,29.431C72.735,30.777,74.044,34.049,73.034,37.022C72.548,38.424,70.791,40.201,69.426,40.649C66.378,41.659,63.218,40.406,61.853,37.639C61.311,36.517,61.236,36.199,61.236,34.872C61.236,33.619,61.311,33.208,61.759,32.31C62.395,31.001,63.797,29.692,65.125,29.169C66.509,28.627,68.565,28.739,69.987,29.431ZM70.734,65.088C71.838,65.387,72.866,66.434,73.203,67.593C73.726,69.388,72.997,71.071,71.351,71.894L70.417,72.361L47.923,72.361C23.279,72.361,24.7,72.417,23.503,71.277C21.521,69.407,22.232,66.079,24.794,65.162C25.392,64.938,29.337,64.901,47.773,64.882C62.9,64.882,70.248,64.957,70.734,65.088ZM70.734,65.088"/>
</g>
  <g id="Black-S" transform="matrix(1.0,0.0,0.0,1.0,2897.200278930664,623.2902984619141)">  <path fill-rule="nonzero" version="1.0" stroke="none" stroke-linejoin="miter" stroke-opacity="1" stroke-linecap="butt" fill="#000000" fill-opacity="1" stroke-miterlimit="4" stroke-width="1px" preserveAspectRatio="xMidYMid meet" stroke-dasharray="none" d="M33.981,0.146C21.273,1.376,9.912,9.077,4.158,20.38C2.123,24.376,0.922,28.227,0.264,32.868C-0.029,34.918,0.015,40.247,0.351,42.531C0.922,46.601,2.123,50.451,3.968,54.155C7.613,61.505,13.44,67.332,20.804,70.992C32.736,76.936,46.85,76.116,57.976,68.84C62.325,65.999,66.453,61.783,69.264,57.303C70.348,55.605,71.958,52.296,72.69,50.305C73.437,48.284,74.301,44.8,74.608,42.531C74.945,40.232,74.989,34.903,74.696,32.868C73.832,26.792,71.9,21.609,68.693,16.778C67.346,14.728,65.985,13.059,64.082,11.141C58.24,5.241,50.978,1.581,42.677,0.351C40.891,0.088,35.855,-0.029,33.981,0.146ZM23.967,22.868C26.265,23.718,27.597,26.411,26.88,28.71C26.045,31.36,23.308,32.722,20.614,31.828C19.516,31.477,18.154,30.101,17.788,28.988C16.471,25.065,20.131,21.434,23.967,22.868ZM54.799,23.044C56.952,24.098,57.976,26.66,57.186,28.988C56.805,30.086,55.429,31.477,54.36,31.828C51.974,32.619,49.5,31.638,48.431,29.471C48.006,28.593,47.948,28.344,47.948,27.305C47.948,26.324,48.006,26.002,48.358,25.299C48.855,24.274,49.953,23.249,50.993,22.839C52.076,22.415,53.687,22.502,54.799,23.044ZM55.385,50.964C56.249,51.198,57.054,52.018,57.318,52.925C57.728,54.331,57.157,55.649,55.868,56.293L55.136,56.659L37.524,56.659C18.227,56.659,19.34,56.703,18.403,55.81C16.851,54.346,17.408,51.74,19.413,51.022C19.882,50.847,22.971,50.817,37.407,50.803C49.251,50.803,55.004,50.861,55.385,50.964ZM55.385,50.964"/>
</g>
  <g id="Heavy-S" transform="matrix(1.0,0.0,0.0,1.0,2600.490278930664,623.2902984619141)">  <path stroke-dasharray="none" preserveAspectRatio="xMidYMid meet" fill-rule="nonzero" fill="#000000" stroke-opacity="1" stroke="none" stroke-linejoin="miter" stroke-linecap="butt" version="1.0" stroke-width="1px" fill-opacity="1" stroke-miterlimit="4" d="M33.981,0.146C21.273,1.376,9.912,9.077,4.158,20.38C2.123,24.376,0.922,28.227,0.264,32.868C-0.029,34.918,0.015,40.247,0.351,42.531C0.922,46.601,2.123,50.451,3.968,54.155C7.613,61.505,13.44,67.332,20.804,70.992C32.736,76.936,46.85,76.116,57.976,68.84C62.325,65.999,66.453,61.783,69.264,57.303C70.348,55.605,71.958,52.296,72.69,50.305C73.437,48.284,74.301,44.8,74.608,42.531C74.945,40.232,74.989,34.903,74.696,32.868C73.832,26.792,71.9,21.609,68.693,16.778C67.346,14.728,65.985,13.059,64.082,11.141C58.24,5.241,50.978,1.581,42.677,0.351C40.891,0.088,35.855,-0.029,33.981,0.146ZM23.967,22.868C26.265,23.718,27.597,26.411,26.88,28.71C26.045,31.36,23.308,32.722,20.614,31.828C19.516,31.477,18.154,30.101,17.788,28.988C16.471,25.065,20.131,21.434,23.967,22.868ZM54.799,23.044C56.952,24.098,57.976,26.66,57.186,28.988C56.805,30.086,55.429,31.477,54.36,31.828C51.974,32.619,49.5,31.638,48.431,29.471C48.006,28.593,47.948,28.344,47.948,27.305C47.948,26.324,48.006,26.002,48.358,25.299C48.855,24.274,49.953,23.249,50.993,22.839C52.076,22.415,53.687,22.502,54.799,23.044ZM55.385,50.964C56.249,51.198,57.054,52.018,57.318,52.925C57.728,54.331,57.157,55.649,55.868,56.293L55.136,56.659L37.524,56.659C18.227,56.659,19.34,56.703,18.403,55.81C16.851,54.346,17.408,51.74,19.413,51.022C19.882,50.847,22.971,50.817,37.407,50.803C49.251,50.803,55.004,50.861,55.385,50.964ZM55.385,50.964"/>
</g>
  <g id="Bold-S" transform="matrix(1.0,0.0,0.0,1.0,2303.780278930664,623.2902984619141)">  <path fill="#000000" stroke-linejoin="miter" fill-opacity="1" version="1.0" stroke-width="1px" stroke-miterlimit="4" stroke-linecap="butt" fill-rule="nonzero" stroke-dasharray="none" stroke="none" preserveAspectRatio="xMidYMid meet" stroke-opacity="1" d="M33.981,0.146C21.273,1.376,9.912,9.077,4.158,20.38C2.123,24.376,0.922,28.227,0.264,32.868C-0.029,34.918,0.015,40.247,0.351,42.531C0.922,46.601,2.123,50.451,3.968,54.155C7.613,61.505,13.44,67.332,20.804,70.992C32.736,76.936,46.85,76.116,57.976,68.84C62.325,65.999,66.453,61.783,69.264,57.303C70.348,55.605,71.958,52.296,72.69,50.305C73.437,48.284,74.301,44.8,74.608,42.531C74.945,40.232,74.989,34.903,74.696,32.868C73.832,26.792,71.9,21.609,68.693,16.778C67.346,14.728,65.985,13.059,64.082,11.141C58.24,5.241,50.978,1.581,42.677,0.351C40.891,0.088,35.855,-0.029,33.981,0.146ZM23.967,22.868C26.265,23.718,27.597,26.411,26.88,28.71C26.045,31.36,23.308,32.722,20.614,31.828C19.516,31.477,18.154,30.101,17.788,28.988C16.471,25.065,20.131,21.434,23.967,22.868ZM54.799,23.044C56.952,24.098,57.976,26.66,57.186,28.988C56.805,30.086,55.429,31.477,54.36,31.828C51.974,32.619,49.5,31.638,48.431,29.471C48.006,28.593,47.948,28.344,47.948,27.305C47.948,26.324,48.006,26.002,48.358,25.299C48.855,24.274,49.953,23.249,50.993,22.839C52.076,22.415,53.687,22.502,54.799,23.044ZM55.385,50.964C56.249,51.198,57.054,52.018,57.318,52.925C57.728,54.331,57.157,55.649,55.868,56.293L55.136,56.659L37.524,56.659C18.227,56.659,19.34,56.703,18.403,55.81C16.851,54.346,17.408,51.74,19.413,51.022C19.882,50.847,22.971,50.817,37.407,50.803C49.251,50.803,55.004,50.861,55.385,50.964ZM55.385,50.964"/>
</g>
  <g id="Semibold-S" transform="matrix(1.0,0.0,0.0,1.0,2007.070278930664,623.2902984619141)">  <path stroke-width="1px" preserveAspectRatio="xMidYMid meet" fill-opacity="1" stroke-opacity="1" fill-rule="nonzero" stroke-dasharray="none" stroke-linecap="butt" stroke="none" stroke-linejoin="miter" fill="#000000" stroke-miterlimit="4" version="1.0" d="M33.981,0.146C21.273,1.376,9.912,9.077,4.158,20.38C2.123,24.376,0.922,28.227,0.264,32.868C-0.029,34.918,0.015,40.247,0.351,42.531C0.922,46.601,2.123,50.451,3.968,54.155C7.613,61.505,13.44,67.332,20.804,70.992C32.736,76.936,46.85,76.116,57.976,68.84C62.325,65.999,66.453,61.783,69.264,57.303C70.348,55.605,71.958,52.296,72.69,50.305C73.437,48.284,74.301,44.8,74.608,42.531C74.945,40.232,74.989,34.903,74.696,32.868C73.832,26.792,71.9,21.609,68.693,16.778C67.346,14.728,65.985,13.059,64.082,11.141C58.24,5.241,50.978,1.581,42.677,0.351C40.891,0.088,35.855,-0.029,33.981,0.146ZM23.967,22.868C26.265,23.718,27.597,26.411,26.88,28.71C26.045,31.36,23.308,32.722,20.614,31.828C19.516,31.477,18.154,30.101,17.788,28.988C16.471,25.065,20.131,21.434,23.967,22.868ZM54.799,23.044C56.952,24.098,57.976,26.66,57.186,28.988C56.805,30.086,55.429,31.477,54.36,31.828C51.974,32.619,49.5,31.638,48.431,29.471C48.006,28.593,47.948,28.344,47.948,27.305C47.948,26.324,48.006,26.002,48.358,25.299C48.855,24.274,49.953,23.249,50.993,22.839C52.076,22.415,53.687,22.502,54.799,23.044ZM55.385,50.964C56.249,51.198,57.054,52.018,57.318,52.925C57.728,54.331,57.157,55.649,55.868,56.293L55.136,56.659L37.524,56.659C18.227,56.659,19.34,56.703,18.403,55.81C16.851,54.346,17.408,51.74,19.413,51.022C19.882,50.847,22.971,50.817,37.407,50.803C49.251,50.803,55.004,50.861,55.385,50.964ZM55.385,50.964"/>
</g>
  <g id="Medium-S" transform="matrix(1.0,0.0,0.0,1.0,1710.360278930664,623.2902984619141)">  <path stroke-miterlimit="4" version="1.0" fill="#000000" stroke-linecap="butt" fill-opacity="1" stroke-opacity="1" stroke="none" stroke-dasharray="none" stroke-width="1px" preserveAspectRatio="xMidYMid meet" stroke-linejoin="miter" fill-rule="nonzero" d="M33.981,0.146C21.273,1.376,9.912,9.077,4.158,20.38C2.123,24.376,0.922,28.227,0.264,32.868C-0.029,34.918,0.015,40.247,0.351,42.531C0.922,46.601,2.123,50.451,3.968,54.155C7.613,61.505,13.44,67.332,20.804,70.992C32.736,76.936,46.85,76.116,57.976,68.84C62.325,65.999,66.453,61.783,69.264,57.303C70.348,55.605,71.958,52.296,72.69,50.305C73.437,48.284,74.301,44.8,74.608,42.531C74.945,40.232,74.989,34.903,74.696,32.868C73.832,26.792,71.9,21.609,68.693,16.778C67.346,14.728,65.985,13.059,64.082,11.141C58.24,5.241,50.978,1.581,42.677,0.351C40.891,0.088,35.855,-0.029,33.981,0.146ZM23.967,22.868C26.265,23.718,27.597,26.411,26.88,28.71C26.045,31.36,23.308,32.722,20.614,31.828C19.516,31.477,18.154,30.101,17.788,28.988C16.471,25.065,20.131,21.434,23.967,22.868ZM54.799,23.044C56.952,24.098,57.976,26.66,57.186,28.988C56.805,30.086,55.429,31.477,54.36,31.828C51.974,32.619,49.5,31.638,48.431,29.471C48.006,28.593,47.948,28.344,47.948,27.305C47.948,26.324,48.006,26.002,48.358,25.299C48.855,24.274,49.953,23.249,50.993,22.839C52.076,22.415,53.687,22.502,54.799,23.044ZM55.385,50.964C56.249,51.198,57.054,52.018,57.318,52.925C57.728,54.331,57.157,55.649,55.868,56.293L55.136,56.659L37.524,56.659C18.227,56.659,19.34,56.703,18.403,55.81C16.851,54.346,17.408,51.74,19.413,51.022C19.882,50.847,22.971,50.817,37.407,50.803C49.251,50.803,55.004,50.861,55.385,50.964ZM55.385,50.964"/>
</g>
  <g id="Regular-S" transform="matrix(1.0,0.0,0.0,1.0,1413.650278930664,623.2902984619141)">  <path stroke="none" fill-rule="nonzero" stroke-linecap="butt" version="1.0" stroke-linejoin="miter" preserveAspectRatio="xMidYMid meet" fill="#000000" stroke-miterlimit="4" fill-opacity="1" stroke-opacity="1" stroke-dasharray="none" stroke-width="1px" d="M33.981,0.146C21.273,1.376,9.912,9.077,4.158,20.38C2.123,24.376,0.922,28.227,0.264,32.868C-0.029,34.918,0.015,40.247,0.351,42.531C0.922,46.601,2.123,50.451,3.968,54.155C7.613,61.505,13.44,67.332,20.804,70.992C32.736,76.936,46.85,76.116,57.976,68.84C62.325,65.999,66.453,61.783,69.264,57.303C70.348,55.605,71.958,52.296,72.69,50.305C73.437,48.284,74.301,44.8,74.608,42.531C74.945,40.232,74.989,34.903,74.696,32.868C73.832,26.792,71.9,21.609,68.693,16.778C67.346,14.728,65.985,13.059,64.082,11.141C58.24,5.241,50.978,1.581,42.677,0.351C40.891,0.088,35.855,-0.029,33.981,0.146ZM23.967,22.868C26.265,23.718,27.597,26.411,26.88,28.71C26.045,31.36,23.308,32.722,20.614,31.828C19.516,31.477,18.154,30.101,17.788,28.988C16.471,25.065,20.131,21.434,23.967,22.868ZM54.799,23.044C56.952,24.098,57.976,26.66,57.186,28.988C56.805,30.086,55.429,31.477,54.36,31.828C51.974,32.619,49.5,31.638,48.431,29.471C48.006,28.593,47.948,28.344,47.948,27.305C47.948,26.324,48.006,26.002,48.358,25.299C48.855,24.274,49.953,23.249,50.993,22.839C52.076,22.415,53.687,22.502,54.799,23.044ZM55.385,50.964C56.249,51.198,57.054,52.018,57.318,52.925C57.728,54.331,57.157,55.649,55.868,56.293L55.136,56.659L37.524,56.659C18.227,56.659,19.34,56.703,18.403,55.81C16.851,54.346,17.408,51.74,19.413,51.022C19.882,50.847,22.971,50.817,37.407,50.803C49.251,50.803,55.004,50.861,55.385,50.964ZM55.385,50.964"/>
</g>
  <g id="Light-S" transform="matrix(1.0,0.0,0.0,1.0,1116.9402789306641,623.2902984619141)">  <path stroke-width="1px" stroke-opacity="1" stroke-dasharray="none" fill="#000000" fill-opacity="1" stroke="none" fill-rule="nonzero" stroke-linejoin="miter" stroke-miterlimit="4" stroke-linecap="butt" preserveAspectRatio="xMidYMid meet" version="1.0" d="M33.981,0.146C21.273,1.376,9.912,9.077,4.158,20.38C2.123,24.376,0.922,28.227,0.264,32.868C-0.029,34.918,0.015,40.247,0.351,42.531C0.922,46.601,2.123,50.451,3.968,54.155C7.613,61.505,13.44,67.332,20.804,70.992C32.736,76.936,46.85,76.116,57.976,68.84C62.325,65.999,66.453,61.783,69.264,57.303C70.348,55.605,71.958,52.296,72.69,50.305C73.437,48.284,74.301,44.8,74.608,42.531C74.945,40.232,74.989,34.903,74.696,32.868C73.832,26.792,71.9,21.609,68.693,16.778C67.346,14.728,65.985,13.059,64.082,11.141C58.24,5.241,50.978,1.581,42.677,0.351C40.891,0.088,35.855,-0.029,33.981,0.146ZM23.967,22.868C26.265,23.718,27.597,26.411,26.88,28.71C26.045,31.36,23.308,32.722,20.614,31.828C19.516,31.477,18.154,30.101,17.788,28.988C16.471,25.065,20.131,21.434,23.967,22.868ZM54.799,23.044C56.952,24.098,57.976,26.66,57.186,28.988C56.805,30.086,55.429,31.477,54.36,31.828C51.974,32.619,49.5,31.638,48.431,29.471C48.006,28.593,47.948,28.344,47.948,27.305C47.948,26.324,48.006,26.002,48.358,25.299C48.855,24.274,49.953,23.249,50.993,22.839C52.076,22.415,53.687,22.502,54.799,23.044ZM55.385,50.964C56.249,51.198,57.054,52.018,57.318,52.925C57.728,54.331,57.157,55.649,55.868,56.293L55.136,56.659L37.524,56.659C18.227,56.659,19.34,56.703,18.403,55.81C16.851,54.346,17.408,51.74,19.413,51.022C19.882,50.847,22.971,50.817,37.407,50.803C49.251,50.803,55.004,50.861,55.385,50.964ZM55.385,50.964"/>
</g>
  <g id="Thin-S" transform="matrix(1.0,0.0,0.0,1.0,820.2302789306641,623.2902984619141)">  <path stroke-miterlimit="4" stroke="none" fill-opacity="1" stroke-linejoin="miter" fill="#000000" stroke-opacity="1" preserveAspectRatio="xMidYMid meet" stroke-dasharray="none" version="1.0" fill-rule="nonzero" stroke-width="1px" stroke-linecap="butt" d="M33.981,0.146C21.273,1.376,9.912,9.077,4.158,20.38C2.123,24.376,0.922,28.227,0.264,32.868C-0.029,34.918,0.015,40.247,0.351,42.531C0.922,46.601,2.123,50.451,3.968,54.155C7.613,61.505,13.44,67.332,20.804,70.992C32.736,76.936,46.85,76.116,57.976,68.84C62.325,65.999,66.453,61.783,69.264,57.303C70.348,55.605,71.958,52.296,72.69,50.305C73.437,48.284,74.301,44.8,74.608,42.531C74.945,40.232,74.989,34.903,74.696,32.868C73.832,26.792,71.9,21.609,68.693,16.778C67.346,14.728,65.985,13.059,64.082,11.141C58.24,5.241,50.978,1.581,42.677,0.351C40.891,0.088,35.855,-0.029,33.981,0.146ZM23.967,22.868C26.265,23.718,27.597,26.411,26.88,28.71C26.045,31.36,23.308,32.722,20.614,31.828C19.516,31.477,18.154,30.101,17.788,28.988C16.471,25.065,20.131,21.434,23.967,22.868ZM54.799,23.044C56.952,24.098,57.976,26.66,57.186,28.988C56.805,30.086,55.429,31.477,54.36,31.828C51.974,32.619,49.5,31.638,48.431,29.471C48.006,28.593,47.948,28.344,47.948,27.305C47.948,26.324,48.006,26.002,48.358,25.299C48.855,24.274,49.953,23.249,50.993,22.839C52.076,22.415,53.687,22.502,54.799,23.044ZM55.385,50.964C56.249,51.198,57.054,52.018,57.318,52.925C57.728,54.331,57.157,55.649,55.868,56.293L55.136,56.659L37.524,56.659C18.227,56.659,19.34,56.703,18.403,55.81C16.851,54.346,17.408,51.74,19.413,51.022C19.882,50.847,22.971,50.817,37.407,50.803C49.251,50.803,55.004,50.861,55.385,50.964ZM55.385,50.964"/>
</g>
  <g id="Ultralight-S" transform="matrix(1.0,0.0,0.0,1.0,523.5202789306641,623.2902984619141)">  <path fill-rule="nonzero" stroke-width="1px" fill="#000000" version="1.0" preserveAspectRatio="xMidYMid meet" stroke-opacity="1" stroke-miterlimit="4" stroke-linejoin="miter" stroke-linecap="butt" fill-opacity="1" stroke="none" stroke-dasharray="none" d="M33.981,0.146C21.273,1.376,9.912,9.077,4.158,20.38C2.123,24.376,0.922,28.227,0.264,32.868C-0.029,34.918,0.015,40.247,0.351,42.531C0.922,46.601,2.123,50.451,3.968,54.155C7.613,61.505,13.44,67.332,20.804,70.992C32.736,76.936,46.85,76.116,57.976,68.84C62.325,65.999,66.453,61.783,69.264,57.303C70.348,55.605,71.958,52.296,72.69,50.305C73.437,48.284,74.301,44.8,74.608,42.531C74.945,40.232,74.989,34.903,74.696,32.868C73.832,26.792,71.9,21.609,68.693,16.778C67.346,14.728,65.985,13.059,64.082,11.141C58.24,5.241,50.978,1.581,42.677,0.351C40.891,0.088,35.855,-0.029,33.981,0.146ZM23.967,22.868C26.265,23.718,27.597,26.411,26.88,28.71C26.045,31.36,23.308,32.722,20.614,31.828C19.516,31.477,18.154,30.101,17.788,28.988C16.471,25.065,20.131,21.434,23.967,22.868ZM54.799,23.044C56.952,24.098,57.976,26.66,57.186,28.988C56.805,30.086,55.429,31.477,54.36,31.828C51.974,32.619,49.5,31.638,48.431,29.471C48.006,28.593,47.948,28.344,47.948,27.305C47.948,26.324,48.006,26.002,48.358,25.299C48.855,24.274,49.953,23.249,50.993,22.839C52.076,22.415,53.687,22.502,54.799,23.044ZM55.385,50.964C56.249,51.198,57.054,52.018,57.318,52.925C57.728,54.331,57.157,55.649,55.868,56.293L55.136,56.659L37.524,56.659C18.227,56.659,19.34,56.703,18.403,55.81C16.851,54.346,17.408,51.74,19.413,51.022C19.882,50.847,22.971,50.817,37.407,50.803C49.251,50.803,55.004,50.861,55.385,50.964ZM55.385,50.964"/>
</g>
 </g>
</svg>
