<?xml version="1.0" encoding="UTF-8"?>
<!-- Generator: CustomSymbols v2.7.0.46 by @serious_bret https://bretlester.com/app_content/CustomSymbols/ -->
<!-- Guides: Left/Right -0.011000000000000001/0.006999999999999999 Cap/Base 0.132/0.132 -->
<!-- Settings: RefScale 1.0 Min/Max Stroke Scales 0.5/2.21 -->
<!DOCTYPE svg
PUBLIC "-//W3C//DTD SVG 1.1//EN"
       "http://www.w3.org/Graphics/SVG/1.1/DTD/svg11.dtd">
<svg version="1.1" xmlns="http://www.w3.org/2000/svg" xmlns:xlink="http://www.w3.org/1999/xlink" width="3300" height="2200">
<![CDATA[<?xml version="1.0" standalone="no"?>
<!DOCTYPE svg PUBLIC "-//W3C//DTD SVG 20010904//EN"
 "http://www.w3.org/TR/2001/REC-SVG-20010904/DTD/svg10.dtd">
<svg version="1.0" xmlns="http://www.w3.org/2000/svg"
 width="512.000000pt" height="512.000000pt" viewBox="0 0 512.000000 512.000000"
 preserveAspectRatio="xMidYMid meet">

<g transform="translate(0.000000,512.000000) scale(0.100000,-0.100000)"
fill="#000000" stroke="none">
<path d="M2321 5110 c-1340 -130 -2361 -1283 -2318 -2620 13 -389 97 -726 268
-1069 249 -502 647 -900 1150 -1150 815 -406 1779 -350 2539 147 297 194 579
482 771 788 74 116 184 342 234 478 51 138 110 376 131 531 23 157 26 521 6
660 -59 415 -191 769 -410 1099 -92 140 -185 254 -315 385 -399 403 -895 653
-1462 737 -122 18 -466 26 -594 14z m-558 -1664 c73 -35 138 -107 167 -182 44
-118 10 -267 -82 -349 -93 -85 -219 -111 -338 -71 -76 26 -170 120 -194 193
-36 109 -15 236 54 323 88 112 263 150 393 86z m1887 -7 c93 -50 149 -126 169
-232 31 -169 -74 -328 -248 -373 -144 -36 -301 37 -368 174 -38 77 -40 201 -5
277 25 55 78 115 130 147 95 59 220 61 322 7z m-2189 -1442 c664 -195 1541
-196 2199 -1 69 20 141 41 160 47 52 15 104 1 145 -37 30 -29 35 -40 35 -79 0
-24 -11 -85 -25 -133 -164 -568 -764 -944 -1470 -921 -364 12 -656 108 -923
305 -241 176 -433 480 -459 724 -7 70 9 101 70 129 54 25 78 22 268 -34z"/>
</g>
</svg>
]]>
 <g id="Notes">
  <rect height="2200" id="artboard" style="fill:white;opacity:1" width="3300" x="0" y="0"/>
  <line id="" style="fill:none;stroke:black;opacity:1;stroke-width:0.5;" x1="263" x2="3036" y1="292" y2="292"/>
  <text id="reftext1" style="stroke:none;fill:black;font-family:-apple-system,&quot;SF Pro Display&quot;,&quot;SF Pro Text&quot;,Helvetica,sans-serif;font-weight:bold;" transform="matrix(1 0 0 1 263 322)">Weight/Scale Variations</text>
  <text id="reftext2" style="stroke:none;fill:black;font-family:-apple-system,&quot;SF Pro Display&quot;,&quot;SF Pro Text&quot;,Helvetica,sans-serif;text-anchor:middle;" transform="matrix(1 0 0 1 559.711 322)">Ultralight</text>
  <text style="stroke:none;fill:black;font-family:-apple-system,&quot;SF Pro Display&quot;,&quot;SF Pro Text&quot;,Helvetica,sans-serif;text-anchor:middle;" transform="matrix(1 0 0 1 856.422 322)">Thin</text>
  <text style="stroke:none;fill:black;font-family:-apple-system,&quot;SF Pro Display&quot;,&quot;SF Pro Text&quot;,Helvetica,sans-serif;text-anchor:middle;" transform="matrix(1 0 0 1 1153.13 322)">Light</text>
  <text style="stroke:none;fill:black;font-family:-apple-system,&quot;SF Pro Display&quot;,&quot;SF Pro Text&quot;,Helvetica,sans-serif;text-anchor:middle;" transform="matrix(1 0 0 1 1449.84 322)">Regular</text>
  <text style="stroke:none;fill:black;font-family:-apple-system,&quot;SF Pro Display&quot;,&quot;SF Pro Text&quot;,Helvetica,sans-serif;text-anchor:middle;" transform="matrix(1 0 0 1 1746.56 322)">Medium</text>
  <text style="stroke:none;fill:black;font-family:-apple-system,&quot;SF Pro Display&quot;,&quot;SF Pro Text&quot;,Helvetica,sans-serif;text-anchor:middle;" transform="matrix(1 0 0 1 2043.27 322)">Semibold</text>
  <text style="stroke:none;fill:black;font-family:-apple-system,&quot;SF Pro Display&quot;,&quot;SF Pro Text&quot;,Helvetica,sans-serif;text-anchor:middle;" transform="matrix(1 0 0 1 2339.98 322)">Bold</text>
  <text style="stroke:none;fill:black;font-family:-apple-system,&quot;SF Pro Display&quot;,&quot;SF Pro Text&quot;,Helvetica,sans-serif;text-anchor:middle;" transform="matrix(1 0 0 1 2636.69 322)">Heavy</text>
  <text style="stroke:none;fill:black;font-family:-apple-system,&quot;SF Pro Display&quot;,&quot;SF Pro Text&quot;,Helvetica,sans-serif;text-anchor:middle;" transform="matrix(1 0 0 1 2933.4 322)">Black</text>
  <line id="" style="fill:none;stroke:black;opacity:1;stroke-width:0.5;" x1="263" x2="3036" y1="1903" y2="1903"/>
  <g id="" transform="matrix(1 0 0 1 263 1933)">
   <path d="M9.24805 0.830078C13.5547 0.830078 17.1387-2.74414 17.1387-7.05078C17.1387-11.3574 13.5449-14.9316 9.23828-14.9316C4.94141-14.9316 1.36719-11.3574 1.36719-7.05078C1.36719-2.74414 4.95117 0.830078 9.24805 0.830078ZM9.24805-0.654297C5.70312-0.654297 2.87109-3.49609 2.87109-7.05078C2.87109-10.6055 5.69336-13.4473 9.23828-13.4473C12.793-13.4473 15.6348-10.6055 15.6445-7.05078C15.6543-3.49609 12.8027-0.654297 9.24805-0.654297ZM6.39648-6.31836L8.50586-6.31836L8.50586-4.19922C8.50586-3.75977 8.79883-3.45703 9.22852-3.45703C9.67773-3.45703 9.9707-3.75977 9.9707-4.19922L9.9707-6.31836L12.0996-6.31836C12.5391-6.31836 12.8418-6.61133 12.8418-7.04102C12.8418-7.48047 12.5391-7.7832 12.0996-7.7832L9.9707-7.7832L9.9707-9.89258C9.9707-10.3418 9.67773-10.6445 9.22852-10.6445C8.79883-10.6445 8.50586-10.3418 8.50586-9.89258L8.50586-7.7832L6.39648-7.7832C5.94727-7.7832 5.64453-7.48047 5.64453-7.04102C5.64453-6.61133 5.94727-6.31836 6.39648-6.31836Z"/>
  </g>
  <g id="" transform="matrix(1 0 0 1 281.506 1933)">
   <path d="M11.709 2.91016C17.1582 2.91016 21.6699-1.61133 21.6699-7.05078C21.6699-12.5 17.1484-17.0117 11.6992-17.0117C6.25977-17.0117 1.74805-12.5 1.74805-7.05078C1.74805-1.61133 6.26953 2.91016 11.709 2.91016ZM11.709 1.25C7.09961 1.25 3.41797-2.44141 3.41797-7.05078C3.41797-11.6602 7.08984-15.3516 11.6992-15.3516C16.3086-15.3516 20-11.6602 20.0098-7.05078C20.0195-2.44141 16.3184 1.25 11.709 1.25ZM7.98828-6.23047L10.8789-6.23047L10.8789-3.32031C10.8789-2.83203 11.2109-2.5 11.6895-2.5C12.1777-2.5 12.5195-2.83203 12.5195-3.32031L12.5195-6.23047L15.4297-6.23047C15.918-6.23047 16.25-6.5625 16.25-7.04102C16.25-7.5293 15.918-7.87109 15.4297-7.87109L12.5195-7.87109L12.5195-10.7617C12.5195-11.2695 12.1777-11.6016 11.6895-11.6016C11.2109-11.6016 10.8789-11.2598 10.8789-10.7617L10.8789-7.87109L7.98828-7.87109C7.48047-7.87109 7.14844-7.5293 7.14844-7.04102C7.14844-6.5625 7.49023-6.23047 7.98828-6.23047Z"/>
  </g>
  <g id="" transform="matrix(1 0 0 1 304.924 1933)">
   <path d="M14.9707 5.66406C21.9336 5.66406 27.6953-0.0976562 27.6953-7.05078C27.6953-14.0137 21.9238-19.7754 14.9609-19.7754C8.00781-19.7754 2.25586-14.0137 2.25586-7.05078C2.25586-0.0976562 8.01758 5.66406 14.9707 5.66406ZM14.9707 3.84766C8.93555 3.84766 4.08203-1.01562 4.08203-7.05078C4.08203-13.0957 8.92578-17.9492 14.9609-17.9492C21.0059-17.9492 25.8594-13.0957 25.8691-7.05078C25.8789-1.01562 21.0156 3.84766 14.9707 3.84766ZM10.0586-6.14258L14.0625-6.14258L14.0625-2.12891C14.0625-1.5918 14.4336-1.2207 14.9512-1.2207C15.4883-1.2207 15.8594-1.5918 15.8594-2.12891L15.8594-6.14258L19.8828-6.14258C20.4102-6.14258 20.791-6.51367 20.791-7.03125C20.791-7.56836 20.4199-7.94922 19.8828-7.94922L15.8594-7.94922L15.8594-11.9531C15.8594-12.5098 15.4883-12.8809 14.9512-12.8809C14.4336-12.8809 14.0625-12.5 14.0625-11.9531L14.0625-7.94922L10.0586-7.94922C9.50195-7.94922 9.13086-7.56836 9.13086-7.03125C9.13086-6.51367 9.51172-6.14258 10.0586-6.14258Z"/>
  </g>
  <text style="stroke:none;fill:black;font-family:-apple-system,&quot;SF Pro Display&quot;,&quot;SF Pro Text&quot;,Helvetica,sans-serif;font-weight:bold;" transform="matrix(1 0 0 1 263 1953)">Design Variations</text>
  <text style="stroke:none;fill:black;font-family:-apple-system,&quot;SF Pro Display&quot;,&quot;SF Pro Text&quot;,Helvetica,sans-serif;" transform="matrix(1 0 0 1 263 1971)">Symbols are supported in up to nine weights and three scales.</text>
  <text style="stroke:none;fill:black;font-family:-apple-system,&quot;SF Pro Display&quot;,&quot;SF Pro Text&quot;,Helvetica,sans-serif;" transform="matrix(1 0 0 1 263 1989)">For optimal layout with text and other symbols, vertically align</text>
  <text style="stroke:none;fill:black;font-family:-apple-system,&quot;SF Pro Display&quot;,&quot;SF Pro Text&quot;,Helvetica,sans-serif;" transform="matrix(1 0 0 1 263 2007)">symbols with the adjacent text.</text>
  <line id="" style="fill:none;stroke:#00AEEF;stroke-width:0.5;opacity:1.0;" x1="776" x2="776" y1="1919" y2="1933"/>
  <g id="" transform="matrix(1 0 0 1 776 1933)">
   <path d="M3.31055 0.126953C3.82812 0.126953 4.08203-0.0683594 4.26758-0.605469L5.52734-4.0625L11.2891-4.0625L12.5488-0.605469C12.7344-0.0683594 12.9883 0.126953 13.4961 0.126953C14.0137 0.126953 14.3457-0.185547 14.3457-0.673828C14.3457-0.839844 14.3164-0.986328 14.2383-1.20117L9.6582-13.3887C9.43359-13.9941 9.0332-14.2871 8.4082-14.2871C7.80273-14.2871 7.39258-13.9941 7.17773-13.3984L2.59766-1.19141C2.51953-0.976562 2.49023-0.830078 2.49023-0.664062C2.49023-0.175781 2.80273 0.126953 3.31055 0.126953ZM6.00586-5.53711L8.37891-12.1094L8.42773-12.1094L10.8008-5.53711Z"/>
  </g>
  <line id="" style="fill:none;stroke:#00AEEF;stroke-width:0.5;opacity:1.0;" x1="792.836" x2="792.836" y1="1919" y2="1933"/>
  <text style="stroke:none;fill:black;font-family:-apple-system,&quot;SF Pro Display&quot;,&quot;SF Pro Text&quot;,Helvetica,sans-serif;font-weight:bold;" transform="matrix(1 0 0 1 776 1953)">Margins</text>
  <text style="stroke:none;fill:black;font-family:-apple-system,&quot;SF Pro Display&quot;,&quot;SF Pro Text&quot;,Helvetica,sans-serif;" transform="matrix(1 0 0 1 776 1971)">Leading and trailing margins on the left and right side of each symbol</text>
  <text style="stroke:none;fill:black;font-family:-apple-system,&quot;SF Pro Display&quot;,&quot;SF Pro Text&quot;,Helvetica,sans-serif;" transform="matrix(1 0 0 1 776 1989)">can be adjusted by modifying the x-location of the margin guidelines.</text>
  <text style="stroke:none;fill:black;font-family:-apple-system,&quot;SF Pro Display&quot;,&quot;SF Pro Text&quot;,Helvetica,sans-serif;" transform="matrix(1 0 0 1 776 2007)">Modifications are automatically applied proportionally to all</text>
  <text style="stroke:none;fill:black;font-family:-apple-system,&quot;SF Pro Display&quot;,&quot;SF Pro Text&quot;,Helvetica,sans-serif;" transform="matrix(1 0 0 1 776 2025)">scales and weights.</text>
  <g id="" transform="matrix(1 0 0 1 1289 1933)">
   <path d="M2.8418 1.86523L4.54102 3.57422C5.40039 4.44336 6.38672 4.38477 7.31445 3.35938L17.4902-7.85156C17.7539-7.76367 18.0273-7.7832 18.3398-7.8418L19.4043-8.03711L20.0684-7.36328L20.0293-6.80664C19.9902-6.30859 20.1172-5.92773 20.6055-5.44922L21.3672-4.70703C21.8457-4.22852 22.4609-4.19922 22.9297-4.66797L25.8398-7.58789C26.3086-8.05664 26.2891-8.65234 25.8105-9.13086L25.0391-9.89258C24.5605-10.3711 24.1895-10.5273 23.7109-10.4883L23.1348-10.4395L22.4902-11.0742L22.7344-12.1973C22.8613-12.7637 22.7051-13.2031 22.1191-13.7891L19.9219-15.9766C16.582-19.2969 12.1484-19.2188 9.25781-16.3281C8.83789-15.918 8.80859-15.3418 9.04297-14.9512C9.27734-14.5898 9.73633-14.3555 10.3809-14.5215C11.8457-14.8633 13.3691-14.9219 14.7949-13.9844L14.209-12.5293C14.0137-12.0508 13.9844-11.6504 14.1113-11.2891L3.04688-0.898438C2.06055 0.0195312 1.98242 0.996094 2.8418 1.86523ZM10.752-15.957C13.1836-17.7344 16.4746-17.4316 18.7012-15.2051L21.1328-12.793C21.3672-12.5586 21.4062-12.373 21.3379-12.0312L21.0156-10.5469L22.5195-9.0625L23.5059-9.12109C23.7598-9.13086 23.8379-9.11133 24.0332-8.91602L24.6094-8.33984L22.168-5.89844L21.5918-6.47461C21.3965-6.66992 21.3672-6.74805 21.377-7.01172L21.4453-7.98828L19.9512-9.47266L18.4277-9.21875C18.1055-9.15039 17.959-9.17969 17.7148-9.41406L15.7129-11.416C15.459-11.6504 15.4297-11.8164 15.5859-12.1875L16.4648-14.2773C14.9023-15.7324 12.8711-16.3574 10.8398-15.7617C10.6836-15.7227 10.625-15.8496 10.752-15.957ZM5.27344 2.30469L4.10156 1.14258C3.63281 0.683594 3.74023 0.341797 4.14062-0.0195312L14.9512-10.1953L16.416-8.71094L6.42578 2.27539C6.07422 2.67578 5.74219 2.77344 5.27344 2.30469Z"/>
  </g>
  <text style="stroke:none;fill:black;font-family:-apple-system,&quot;SF Pro Display&quot;,&quot;SF Pro Text&quot;,Helvetica,sans-serif;font-weight:bold;" transform="matrix(1 0 0 1 1289 1953)">Exporting</text>
  <text style="stroke:none;fill:black;font-family:-apple-system,&quot;SF Pro Display&quot;,&quot;SF Pro Text&quot;,Helvetica,sans-serif;" transform="matrix(1 0 0 1 1289 1971)">Symbols should be outlined when exporting to ensure the</text>
  <text style="stroke:none;fill:black;font-family:-apple-system,&quot;SF Pro Display&quot;,&quot;SF Pro Text&quot;,Helvetica,sans-serif;" transform="matrix(1 0 0 1 1289 1989)">design is preserved when submitting to Xcode.</text>
  <text id="template-version" style="stroke:none;fill:black;font-family:-apple-system,&quot;SF Pro Display&quot;,&quot;SF Pro Text&quot;,Helvetica,sans-serif;text-anchor:end;" transform="matrix(1 0 0 1 3036 1933)">Template v.2.0</text>
  <text style="stroke:none;fill:black;font-family:-apple-system,&quot;SF Pro Display&quot;,&quot;SF Pro Text&quot;,Helvetica,sans-serif;text-anchor:end;" transform="matrix(1 0 0 1 3036 1951)">Requires Xcode 12 or greater</text>
  <text style="stroke:none;fill:black;font-family:-apple-system,&quot;SF Pro Display&quot;,&quot;SF Pro Text&quot;,Helvetica,sans-serif;" transform="matrix(1 0 0 1 263 726)">Small</text>
  <text style="stroke:none;fill:black;font-family:-apple-system,&quot;SF Pro Display&quot;,&quot;SF Pro Text&quot;,Helvetica,sans-serif;" transform="matrix(1 0 0 1 263 1156)">Medium</text>
  <text style="stroke:none;fill:black;font-family:-apple-system,&quot;SF Pro Display&quot;,&quot;SF Pro Text&quot;,Helvetica,sans-serif;" transform="matrix(1 0 0 1 263 1586)">Large</text>
 </g>
 <g id="Guides">
  <g id="H-reference" style="fill:#27AAE1;stroke:none;" transform="matrix(1 0 0 1 339 696)">
   <path d="M0.976562 0L3.66211 0L12.9883-24.4629L45.752-24.4629L55.127 0L57.7637 0L30.6152-70.459L28.125-70.459ZM29.3457-67.1387L29.4434-67.1387L44.873-26.709L13.8672-26.709Z"/>
  </g>
  <line id="Baseline-S" style="fill:none;stroke:#27AAE1;opacity:1;stroke-width:0.5;" x1="263" x2="3036" y1="696" y2="696"/>
  <line id="Capline-S" style="fill:none;stroke:#27AAE1;opacity:1;stroke-width:0.5;" x1="263" x2="3036" y1="625.541" y2="625.541"/>
  <g id="H-reference" style="fill:#27AAE1;stroke:none;" transform="matrix(1 0 0 1 339 1126)">
   <path d="M0.976562 0L3.66211 0L12.9883-24.4629L45.752-24.4629L55.127 0L57.7637 0L30.6152-70.459L28.125-70.459ZM29.3457-67.1387L29.4434-67.1387L44.873-26.709L13.8672-26.709Z"/>
  </g>
  <line id="Baseline-M" style="fill:none;stroke:#27AAE1;opacity:1;stroke-width:0.5;" x1="263" x2="3036" y1="1126" y2="1126"/>
  <line id="Capline-M" style="fill:none;stroke:#27AAE1;opacity:1;stroke-width:0.5;" x1="263" x2="3036" y1="1055.54" y2="1055.54"/>
  <g id="H-reference" style="fill:#27AAE1;stroke:none;" transform="matrix(1 0 0 1 339 1556)">
   <path d="M0.976562 0L3.66211 0L12.9883-24.4629L45.752-24.4629L55.127 0L57.7637 0L30.6152-70.459L28.125-70.459ZM29.3457-67.1387L29.4434-67.1387L44.873-26.709L13.8672-26.709Z"/>
  </g>
  <line id="Baseline-L" style="fill:none;stroke:#27AAE1;opacity:1;stroke-width:0.5;" x1="263" x2="3036" y1="1556" y2="1556"/>
  <line id="Capline-L" style="fill:none;stroke:#27AAE1;opacity:1;stroke-width:0.5;" x1="263" x2="3036" y1="1485.54" y2="1485.54"/>
  <line id="left-margin" x1="1402.210108642578" x2="1402.210108642578" y1="1030.79" y2="1150.12" style="fill:none;stroke:#00AEEF;stroke-width:0.5;opacity:1.0;"/>
  <line id="right-margin" x1="1498.3266857910155" x2="1498.3266857910155" y1="1030.79" y2="1150.12" style="fill:none;stroke:#00AEEF;stroke-width:0.5;opacity:1.0;"/>
 </g>
 <g id="Symbols">
  <g id="Black-L" transform="matrix(1.0,0.0,0.0,1.0,2872.931800537109,1459.0218200683594)">  <path fill="#000000" version="1.0" preserveAspectRatio="xMidYMid meet" stroke="none" stroke-width="1px" stroke-dasharray="none" fill-rule="nonzero" stroke-miterlimit="4" stroke-linejoin="miter" fill-opacity="1" stroke-opacity="1" stroke-linecap="butt" d="M55.983,0.241C23.662,3.377,-0.965,31.188,0.072,63.437C0.386,72.819,2.412,80.948,6.537,89.221C12.543,101.33,22.143,110.93,34.275,116.96C53.933,126.753,77.185,125.402,95.517,113.414C102.681,108.735,109.482,101.788,114.114,94.407C115.898,91.609,118.552,86.158,119.758,82.878C120.988,79.549,122.411,73.808,122.918,70.07C123.472,66.283,123.545,57.503,123.062,54.15C121.639,44.14,118.455,35.602,113.173,27.642C110.954,24.265,108.711,21.515,105.575,18.356C95.951,8.635,83.987,2.605,70.311,0.579C67.368,0.145,59.071,-0.048,55.983,0.241ZM42.524,40.378C44.285,41.222,45.853,42.958,46.552,44.767C47.614,47.614,46.794,51.208,44.574,53.185C42.331,55.236,39.292,55.863,36.422,54.898C34.589,54.271,32.321,52.004,31.742,50.243C30.874,47.614,31.381,44.55,33.045,42.452C35.168,39.75,39.389,38.834,42.524,40.378ZM88.039,40.546C90.283,41.752,91.633,43.586,92.116,46.142C92.864,50.219,90.331,54.054,86.134,55.139C82.661,56.008,78.874,54.247,77.258,50.942C76.341,49.085,76.293,46.094,77.137,44.261C77.74,42.934,79.018,41.487,80.273,40.715C82.564,39.292,85.579,39.244,88.039,40.546ZM35.24,75.328C51.256,80.031,72.409,80.056,88.281,75.352C89.945,74.87,91.682,74.363,92.14,74.218C93.394,73.857,94.648,74.194,95.637,75.111C96.361,75.81,96.482,76.076,96.482,77.016C96.482,77.595,96.216,79.067,95.879,80.224C91.923,93.925,77.451,102.994,60.422,102.439C51.642,102.15,44.599,99.834,38.158,95.083C32.345,90.837,27.714,83.505,27.087,77.619C26.918,75.931,27.304,75.183,28.776,74.508C30.078,73.905,30.657,73.977,35.24,75.328ZM35.24,75.328"/>
</g>
  <g id="Heavy-L" transform="matrix(1.0,0.0,0.0,1.0,2576.221800537109,1459.0218200683594)">  <path version="1.0" fill="#000000" fill-rule="nonzero" stroke-width="1px" stroke="none" stroke-linecap="butt" stroke-dasharray="none" stroke-opacity="1" stroke-linejoin="miter" fill-opacity="1" stroke-miterlimit="4" preserveAspectRatio="xMidYMid meet" d="M55.983,0.241C23.662,3.377,-0.965,31.188,0.072,63.437C0.386,72.819,2.412,80.948,6.537,89.221C12.543,101.33,22.143,110.93,34.275,116.96C53.933,126.753,77.185,125.402,95.517,113.414C102.681,108.735,109.482,101.788,114.114,94.407C115.898,91.609,118.552,86.158,119.758,82.878C120.988,79.549,122.411,73.808,122.918,70.07C123.472,66.283,123.545,57.503,123.062,54.15C121.639,44.14,118.455,35.602,113.173,27.642C110.954,24.265,108.711,21.515,105.575,18.356C95.951,8.635,83.987,2.605,70.311,0.579C67.368,0.145,59.071,-0.048,55.983,0.241ZM42.524,40.378C44.285,41.222,45.853,42.958,46.552,44.767C47.614,47.614,46.794,51.208,44.574,53.185C42.331,55.236,39.292,55.863,36.422,54.898C34.589,54.271,32.321,52.004,31.742,50.243C30.874,47.614,31.381,44.55,33.045,42.452C35.168,39.75,39.389,38.834,42.524,40.378ZM88.039,40.546C90.283,41.752,91.633,43.586,92.116,46.142C92.864,50.219,90.331,54.054,86.134,55.139C82.661,56.008,78.874,54.247,77.258,50.942C76.341,49.085,76.293,46.094,77.137,44.261C77.74,42.934,79.018,41.487,80.273,40.715C82.564,39.292,85.579,39.244,88.039,40.546ZM35.24,75.328C51.256,80.031,72.409,80.056,88.281,75.352C89.945,74.87,91.682,74.363,92.14,74.218C93.394,73.857,94.648,74.194,95.637,75.111C96.361,75.81,96.482,76.076,96.482,77.016C96.482,77.595,96.216,79.067,95.879,80.224C91.923,93.925,77.451,102.994,60.422,102.439C51.642,102.15,44.599,99.834,38.158,95.083C32.345,90.837,27.714,83.505,27.087,77.619C26.918,75.931,27.304,75.183,28.776,74.508C30.078,73.905,30.657,73.977,35.24,75.328ZM35.24,75.328"/>
</g>
  <g id="Bold-L" transform="matrix(1.0,0.0,0.0,1.0,2279.511800537109,1459.0218200683594)">  <path stroke-opacity="1" stroke-linecap="butt" stroke="none" stroke-miterlimit="4" preserveAspectRatio="xMidYMid meet" fill="#000000" stroke-dasharray="none" stroke-width="1px" fill-rule="nonzero" stroke-linejoin="miter" version="1.0" fill-opacity="1" d="M55.983,0.241C23.662,3.377,-0.965,31.188,0.072,63.437C0.386,72.819,2.412,80.948,6.537,89.221C12.543,101.33,22.143,110.93,34.275,116.96C53.933,126.753,77.185,125.402,95.517,113.414C102.681,108.735,109.482,101.788,114.114,94.407C115.898,91.609,118.552,86.158,119.758,82.878C120.988,79.549,122.411,73.808,122.918,70.07C123.472,66.283,123.545,57.503,123.062,54.15C121.639,44.14,118.455,35.602,113.173,27.642C110.954,24.265,108.711,21.515,105.575,18.356C95.951,8.635,83.987,2.605,70.311,0.579C67.368,0.145,59.071,-0.048,55.983,0.241ZM42.524,40.378C44.285,41.222,45.853,42.958,46.552,44.767C47.614,47.614,46.794,51.208,44.574,53.185C42.331,55.236,39.292,55.863,36.422,54.898C34.589,54.271,32.321,52.004,31.742,50.243C30.874,47.614,31.381,44.55,33.045,42.452C35.168,39.75,39.389,38.834,42.524,40.378ZM88.039,40.546C90.283,41.752,91.633,43.586,92.116,46.142C92.864,50.219,90.331,54.054,86.134,55.139C82.661,56.008,78.874,54.247,77.258,50.942C76.341,49.085,76.293,46.094,77.137,44.261C77.74,42.934,79.018,41.487,80.273,40.715C82.564,39.292,85.579,39.244,88.039,40.546ZM35.24,75.328C51.256,80.031,72.409,80.056,88.281,75.352C89.945,74.87,91.682,74.363,92.14,74.218C93.394,73.857,94.648,74.194,95.637,75.111C96.361,75.81,96.482,76.076,96.482,77.016C96.482,77.595,96.216,79.067,95.879,80.224C91.923,93.925,77.451,102.994,60.422,102.439C51.642,102.15,44.599,99.834,38.158,95.083C32.345,90.837,27.714,83.505,27.087,77.619C26.918,75.931,27.304,75.183,28.776,74.508C30.078,73.905,30.657,73.977,35.24,75.328ZM35.24,75.328"/>
</g>
  <g id="Semibold-L" transform="matrix(1.0,0.0,0.0,1.0,1982.8018005371093,1459.0218200683594)">  <path stroke-miterlimit="4" fill-rule="nonzero" stroke="none" stroke-dasharray="none" stroke-opacity="1" stroke-linecap="butt" fill="#000000" stroke-linejoin="miter" fill-opacity="1" version="1.0" preserveAspectRatio="xMidYMid meet" stroke-width="1px" d="M55.983,0.241C23.662,3.377,-0.965,31.188,0.072,63.437C0.386,72.819,2.412,80.948,6.537,89.221C12.543,101.33,22.143,110.93,34.275,116.96C53.933,126.753,77.185,125.402,95.517,113.414C102.681,108.735,109.482,101.788,114.114,94.407C115.898,91.609,118.552,86.158,119.758,82.878C120.988,79.549,122.411,73.808,122.918,70.07C123.472,66.283,123.545,57.503,123.062,54.15C121.639,44.14,118.455,35.602,113.173,27.642C110.954,24.265,108.711,21.515,105.575,18.356C95.951,8.635,83.987,2.605,70.311,0.579C67.368,0.145,59.071,-0.048,55.983,0.241ZM42.524,40.378C44.285,41.222,45.853,42.958,46.552,44.767C47.614,47.614,46.794,51.208,44.574,53.185C42.331,55.236,39.292,55.863,36.422,54.898C34.589,54.271,32.321,52.004,31.742,50.243C30.874,47.614,31.381,44.55,33.045,42.452C35.168,39.75,39.389,38.834,42.524,40.378ZM88.039,40.546C90.283,41.752,91.633,43.586,92.116,46.142C92.864,50.219,90.331,54.054,86.134,55.139C82.661,56.008,78.874,54.247,77.258,50.942C76.341,49.085,76.293,46.094,77.137,44.261C77.74,42.934,79.018,41.487,80.273,40.715C82.564,39.292,85.579,39.244,88.039,40.546ZM35.24,75.328C51.256,80.031,72.409,80.056,88.281,75.352C89.945,74.87,91.682,74.363,92.14,74.218C93.394,73.857,94.648,74.194,95.637,75.111C96.361,75.81,96.482,76.076,96.482,77.016C96.482,77.595,96.216,79.067,95.879,80.224C91.923,93.925,77.451,102.994,60.422,102.439C51.642,102.15,44.599,99.834,38.158,95.083C32.345,90.837,27.714,83.505,27.087,77.619C26.918,75.931,27.304,75.183,28.776,74.508C30.078,73.905,30.657,73.977,35.24,75.328ZM35.24,75.328"/>
</g>
  <g id="Medium-L" transform="matrix(1.0,0.0,0.0,1.0,1686.0918005371093,1459.0218200683594)">  <path preserveAspectRatio="xMidYMid meet" fill-opacity="1" stroke="none" version="1.0" fill-rule="nonzero" stroke-dasharray="none" stroke-miterlimit="4" stroke-linejoin="miter" stroke-opacity="1" fill="#000000" stroke-width="1px" stroke-linecap="butt" d="M55.983,0.241C23.662,3.377,-0.965,31.188,0.072,63.437C0.386,72.819,2.412,80.948,6.537,89.221C12.543,101.33,22.143,110.93,34.275,116.96C53.933,126.753,77.185,125.402,95.517,113.414C102.681,108.735,109.482,101.788,114.114,94.407C115.898,91.609,118.552,86.158,119.758,82.878C120.988,79.549,122.411,73.808,122.918,70.07C123.472,66.283,123.545,57.503,123.062,54.15C121.639,44.14,118.455,35.602,113.173,27.642C110.954,24.265,108.711,21.515,105.575,18.356C95.951,8.635,83.987,2.605,70.311,0.579C67.368,0.145,59.071,-0.048,55.983,0.241ZM42.524,40.378C44.285,41.222,45.853,42.958,46.552,44.767C47.614,47.614,46.794,51.208,44.574,53.185C42.331,55.236,39.292,55.863,36.422,54.898C34.589,54.271,32.321,52.004,31.742,50.243C30.874,47.614,31.381,44.55,33.045,42.452C35.168,39.75,39.389,38.834,42.524,40.378ZM88.039,40.546C90.283,41.752,91.633,43.586,92.116,46.142C92.864,50.219,90.331,54.054,86.134,55.139C82.661,56.008,78.874,54.247,77.258,50.942C76.341,49.085,76.293,46.094,77.137,44.261C77.74,42.934,79.018,41.487,80.273,40.715C82.564,39.292,85.579,39.244,88.039,40.546ZM35.24,75.328C51.256,80.031,72.409,80.056,88.281,75.352C89.945,74.87,91.682,74.363,92.14,74.218C93.394,73.857,94.648,74.194,95.637,75.111C96.361,75.81,96.482,76.076,96.482,77.016C96.482,77.595,96.216,79.067,95.879,80.224C91.923,93.925,77.451,102.994,60.422,102.439C51.642,102.15,44.599,99.834,38.158,95.083C32.345,90.837,27.714,83.505,27.087,77.619C26.918,75.931,27.304,75.183,28.776,74.508C30.078,73.905,30.657,73.977,35.24,75.328ZM35.24,75.328"/>
</g>
  <g id="Regular-L" transform="matrix(1.0,0.0,0.0,1.0,1389.3818005371093,1459.0218200683594)">  <path stroke-width="1px" stroke-opacity="1" stroke-miterlimit="4" stroke-linecap="butt" stroke-dasharray="none" stroke-linejoin="miter" stroke="none" fill="#000000" fill-rule="nonzero" fill-opacity="1" version="1.0" preserveAspectRatio="xMidYMid meet" d="M55.983,0.241C23.662,3.377,-0.965,31.188,0.072,63.437C0.386,72.819,2.412,80.948,6.537,89.221C12.543,101.33,22.143,110.93,34.275,116.96C53.933,126.753,77.185,125.402,95.517,113.414C102.681,108.735,109.482,101.788,114.114,94.407C115.898,91.609,118.552,86.158,119.758,82.878C120.988,79.549,122.411,73.808,122.918,70.07C123.472,66.283,123.545,57.503,123.062,54.15C121.639,44.14,118.455,35.602,113.173,27.642C110.954,24.265,108.711,21.515,105.575,18.356C95.951,8.635,83.987,2.605,70.311,0.579C67.368,0.145,59.071,-0.048,55.983,0.241ZM42.524,40.378C44.285,41.222,45.853,42.958,46.552,44.767C47.614,47.614,46.794,51.208,44.574,53.185C42.331,55.236,39.292,55.863,36.422,54.898C34.589,54.271,32.321,52.004,31.742,50.243C30.874,47.614,31.381,44.55,33.045,42.452C35.168,39.75,39.389,38.834,42.524,40.378ZM88.039,40.546C90.283,41.752,91.633,43.586,92.116,46.142C92.864,50.219,90.331,54.054,86.134,55.139C82.661,56.008,78.874,54.247,77.258,50.942C76.341,49.085,76.293,46.094,77.137,44.261C77.74,42.934,79.018,41.487,80.273,40.715C82.564,39.292,85.579,39.244,88.039,40.546ZM35.24,75.328C51.256,80.031,72.409,80.056,88.281,75.352C89.945,74.87,91.682,74.363,92.14,74.218C93.394,73.857,94.648,74.194,95.637,75.111C96.361,75.81,96.482,76.076,96.482,77.016C96.482,77.595,96.216,79.067,95.879,80.224C91.923,93.925,77.451,102.994,60.422,102.439C51.642,102.15,44.599,99.834,38.158,95.083C32.345,90.837,27.714,83.505,27.087,77.619C26.918,75.931,27.304,75.183,28.776,74.508C30.078,73.905,30.657,73.977,35.24,75.328ZM35.24,75.328"/>
</g>
  <g id="Light-L" transform="matrix(1.0,0.0,0.0,1.0,1092.6718005371094,1459.0218200683594)">  <path fill-opacity="1" fill-rule="nonzero" stroke-dasharray="none" stroke-miterlimit="4" stroke-linejoin="miter" stroke-opacity="1" version="1.0" stroke-width="1px" stroke="none" fill="#000000" preserveAspectRatio="xMidYMid meet" stroke-linecap="butt" d="M55.983,0.241C23.662,3.377,-0.965,31.188,0.072,63.437C0.386,72.819,2.412,80.948,6.537,89.221C12.543,101.33,22.143,110.93,34.275,116.96C53.933,126.753,77.185,125.402,95.517,113.414C102.681,108.735,109.482,101.788,114.114,94.407C115.898,91.609,118.552,86.158,119.758,82.878C120.988,79.549,122.411,73.808,122.918,70.07C123.472,66.283,123.545,57.503,123.062,54.15C121.639,44.14,118.455,35.602,113.173,27.642C110.954,24.265,108.711,21.515,105.575,18.356C95.951,8.635,83.987,2.605,70.311,0.579C67.368,0.145,59.071,-0.048,55.983,0.241ZM42.524,40.378C44.285,41.222,45.853,42.958,46.552,44.767C47.614,47.614,46.794,51.208,44.574,53.185C42.331,55.236,39.292,55.863,36.422,54.898C34.589,54.271,32.321,52.004,31.742,50.243C30.874,47.614,31.381,44.55,33.045,42.452C35.168,39.75,39.389,38.834,42.524,40.378ZM88.039,40.546C90.283,41.752,91.633,43.586,92.116,46.142C92.864,50.219,90.331,54.054,86.134,55.139C82.661,56.008,78.874,54.247,77.258,50.942C76.341,49.085,76.293,46.094,77.137,44.261C77.74,42.934,79.018,41.487,80.273,40.715C82.564,39.292,85.579,39.244,88.039,40.546ZM35.24,75.328C51.256,80.031,72.409,80.056,88.281,75.352C89.945,74.87,91.682,74.363,92.14,74.218C93.394,73.857,94.648,74.194,95.637,75.111C96.361,75.81,96.482,76.076,96.482,77.016C96.482,77.595,96.216,79.067,95.879,80.224C91.923,93.925,77.451,102.994,60.422,102.439C51.642,102.15,44.599,99.834,38.158,95.083C32.345,90.837,27.714,83.505,27.087,77.619C26.918,75.931,27.304,75.183,28.776,74.508C30.078,73.905,30.657,73.977,35.24,75.328ZM35.24,75.328"/>
</g>
  <g id="Thin-L" transform="matrix(1.0,0.0,0.0,1.0,795.9618005371094,1459.0218200683594)">  <path stroke-miterlimit="4" fill-rule="nonzero" stroke-opacity="1" preserveAspectRatio="xMidYMid meet" stroke-linecap="butt" stroke="none" fill-opacity="1" stroke-linejoin="miter" stroke-width="1px" fill="#000000" stroke-dasharray="none" version="1.0" d="M55.983,0.241C23.662,3.377,-0.965,31.188,0.072,63.437C0.386,72.819,2.412,80.948,6.537,89.221C12.543,101.33,22.143,110.93,34.275,116.96C53.933,126.753,77.185,125.402,95.517,113.414C102.681,108.735,109.482,101.788,114.114,94.407C115.898,91.609,118.552,86.158,119.758,82.878C120.988,79.549,122.411,73.808,122.918,70.07C123.472,66.283,123.545,57.503,123.062,54.15C121.639,44.14,118.455,35.602,113.173,27.642C110.954,24.265,108.711,21.515,105.575,18.356C95.951,8.635,83.987,2.605,70.311,0.579C67.368,0.145,59.071,-0.048,55.983,0.241ZM42.524,40.378C44.285,41.222,45.853,42.958,46.552,44.767C47.614,47.614,46.794,51.208,44.574,53.185C42.331,55.236,39.292,55.863,36.422,54.898C34.589,54.271,32.321,52.004,31.742,50.243C30.874,47.614,31.381,44.55,33.045,42.452C35.168,39.75,39.389,38.834,42.524,40.378ZM88.039,40.546C90.283,41.752,91.633,43.586,92.116,46.142C92.864,50.219,90.331,54.054,86.134,55.139C82.661,56.008,78.874,54.247,77.258,50.942C76.341,49.085,76.293,46.094,77.137,44.261C77.74,42.934,79.018,41.487,80.273,40.715C82.564,39.292,85.579,39.244,88.039,40.546ZM35.24,75.328C51.256,80.031,72.409,80.056,88.281,75.352C89.945,74.87,91.682,74.363,92.14,74.218C93.394,73.857,94.648,74.194,95.637,75.111C96.361,75.81,96.482,76.076,96.482,77.016C96.482,77.595,96.216,79.067,95.879,80.224C91.923,93.925,77.451,102.994,60.422,102.439C51.642,102.15,44.599,99.834,38.158,95.083C32.345,90.837,27.714,83.505,27.087,77.619C26.918,75.931,27.304,75.183,28.776,74.508C30.078,73.905,30.657,73.977,35.24,75.328ZM35.24,75.328"/>
</g>
  <g id="Ultralight-L" transform="matrix(1.0,0.0,0.0,1.0,499.2518005371094,1459.0218200683594)">  <path stroke-width="1px" stroke-linejoin="miter" version="1.0" fill-opacity="1" fill="#000000" preserveAspectRatio="xMidYMid meet" fill-rule="nonzero" stroke-opacity="1" stroke-dasharray="none" stroke="none" stroke-miterlimit="4" stroke-linecap="butt" d="M55.983,0.241C23.662,3.377,-0.965,31.188,0.072,63.437C0.386,72.819,2.412,80.948,6.537,89.221C12.543,101.33,22.143,110.93,34.275,116.96C53.933,126.753,77.185,125.402,95.517,113.414C102.681,108.735,109.482,101.788,114.114,94.407C115.898,91.609,118.552,86.158,119.758,82.878C120.988,79.549,122.411,73.808,122.918,70.07C123.472,66.283,123.545,57.503,123.062,54.15C121.639,44.14,118.455,35.602,113.173,27.642C110.954,24.265,108.711,21.515,105.575,18.356C95.951,8.635,83.987,2.605,70.311,0.579C67.368,0.145,59.071,-0.048,55.983,0.241ZM42.524,40.378C44.285,41.222,45.853,42.958,46.552,44.767C47.614,47.614,46.794,51.208,44.574,53.185C42.331,55.236,39.292,55.863,36.422,54.898C34.589,54.271,32.321,52.004,31.742,50.243C30.874,47.614,31.381,44.55,33.045,42.452C35.168,39.75,39.389,38.834,42.524,40.378ZM88.039,40.546C90.283,41.752,91.633,43.586,92.116,46.142C92.864,50.219,90.331,54.054,86.134,55.139C82.661,56.008,78.874,54.247,77.258,50.942C76.341,49.085,76.293,46.094,77.137,44.261C77.74,42.934,79.018,41.487,80.273,40.715C82.564,39.292,85.579,39.244,88.039,40.546ZM35.24,75.328C51.256,80.031,72.409,80.056,88.281,75.352C89.945,74.87,91.682,74.363,92.14,74.218C93.394,73.857,94.648,74.194,95.637,75.111C96.361,75.81,96.482,76.076,96.482,77.016C96.482,77.595,96.216,79.067,95.879,80.224C91.923,93.925,77.451,102.994,60.422,102.439C51.642,102.15,44.599,99.834,38.158,95.083C32.345,90.837,27.714,83.505,27.087,77.619C26.918,75.931,27.304,75.183,28.776,74.508C30.078,73.905,30.657,73.977,35.24,75.328ZM35.24,75.328"/>
</g>
  <g id="Black-M" transform="matrix(1.0,0.0,0.0,1.0,2886.8131787109373,1042.9031982421875)">  <path fill="#000000" version="1.0" preserveAspectRatio="xMidYMid meet" stroke="none" stroke-width="1px" stroke-dasharray="none" fill-rule="nonzero" stroke-miterlimit="4" stroke-linejoin="miter" fill-opacity="1" stroke-opacity="1" stroke-linecap="butt" d="M43.398,0.187C18.343,2.618,-0.748,24.176,0.056,49.176C0.299,56.449,1.87,62.75,5.067,69.164C9.723,78.55,17.165,85.992,26.57,90.666C41.809,98.258,59.834,97.211,74.044,87.918C79.597,84.29,84.87,78.905,88.46,73.184C89.844,71.015,91.901,66.789,92.835,64.246C93.789,61.666,94.892,57.216,95.285,54.318C95.715,51.382,95.771,44.576,95.397,41.977C94.294,34.217,91.826,27.598,87.731,21.428C86.011,18.81,84.272,16.679,81.841,14.229C74.381,6.694,65.106,2.019,54.505,0.449C52.223,0.112,45.791,-0.037,43.398,0.187ZM32.965,31.3C34.329,31.955,35.545,33.301,36.087,34.703C36.91,36.91,36.274,39.696,34.554,41.229C32.815,42.818,30.459,43.305,28.234,42.557C26.813,42.07,25.055,40.313,24.607,38.948C23.933,36.91,24.326,34.535,25.616,32.908C27.262,30.814,30.534,30.104,32.965,31.3ZM68.248,31.431C69.987,32.366,71.034,33.787,71.408,35.769C71.987,38.929,70.024,41.902,66.77,42.744C64.078,43.417,61.142,42.052,59.89,39.49C59.179,38.05,59.142,35.732,59.796,34.311C60.264,33.282,61.255,32.161,62.227,31.562C64.003,30.459,66.34,30.422,68.248,31.431ZM27.318,58.394C39.733,62.04,56.131,62.059,68.435,58.412C69.725,58.039,71.071,57.646,71.426,57.534C72.399,57.253,73.371,57.515,74.137,58.226C74.698,58.768,74.792,58.973,74.792,59.703C74.792,60.151,74.586,61.292,74.324,62.189C71.258,72.81,60.039,79.84,46.838,79.41C40.032,79.186,34.573,77.391,29.58,73.707C25.074,70.417,21.484,64.732,20.998,60.17C20.867,58.861,21.166,58.282,22.307,57.758C23.316,57.291,23.765,57.347,27.318,58.394ZM27.318,58.394"/>
</g>
  <g id="Heavy-M" transform="matrix(1.0,0.0,0.0,1.0,2590.1031787109373,1042.9031982421875)">  <path version="1.0" fill="#000000" fill-rule="nonzero" stroke-width="1px" stroke="none" stroke-linecap="butt" stroke-dasharray="none" stroke-opacity="1" stroke-linejoin="miter" fill-opacity="1" stroke-miterlimit="4" preserveAspectRatio="xMidYMid meet" d="M43.398,0.187C18.343,2.618,-0.748,24.176,0.056,49.176C0.299,56.449,1.87,62.75,5.067,69.164C9.723,78.55,17.165,85.992,26.57,90.666C41.809,98.258,59.834,97.211,74.044,87.918C79.597,84.29,84.87,78.905,88.46,73.184C89.844,71.015,91.901,66.789,92.835,64.246C93.789,61.666,94.892,57.216,95.285,54.318C95.715,51.382,95.771,44.576,95.397,41.977C94.294,34.217,91.826,27.598,87.731,21.428C86.011,18.81,84.272,16.679,81.841,14.229C74.381,6.694,65.106,2.019,54.505,0.449C52.223,0.112,45.791,-0.037,43.398,0.187ZM32.965,31.3C34.329,31.955,35.545,33.301,36.087,34.703C36.91,36.91,36.274,39.696,34.554,41.229C32.815,42.818,30.459,43.305,28.234,42.557C26.813,42.07,25.055,40.313,24.607,38.948C23.933,36.91,24.326,34.535,25.616,32.908C27.262,30.814,30.534,30.104,32.965,31.3ZM68.248,31.431C69.987,32.366,71.034,33.787,71.408,35.769C71.987,38.929,70.024,41.902,66.77,42.744C64.078,43.417,61.142,42.052,59.89,39.49C59.179,38.05,59.142,35.732,59.796,34.311C60.264,33.282,61.255,32.161,62.227,31.562C64.003,30.459,66.34,30.422,68.248,31.431ZM27.318,58.394C39.733,62.04,56.131,62.059,68.435,58.412C69.725,58.039,71.071,57.646,71.426,57.534C72.399,57.253,73.371,57.515,74.137,58.226C74.698,58.768,74.792,58.973,74.792,59.703C74.792,60.151,74.586,61.292,74.324,62.189C71.258,72.81,60.039,79.84,46.838,79.41C40.032,79.186,34.573,77.391,29.58,73.707C25.074,70.417,21.484,64.732,20.998,60.17C20.867,58.861,21.166,58.282,22.307,57.758C23.316,57.291,23.765,57.347,27.318,58.394ZM27.318,58.394"/>
</g>
  <g id="Bold-M" transform="matrix(1.0,0.0,0.0,1.0,2293.3931787109373,1042.9031982421875)">  <path stroke-opacity="1" stroke-linecap="butt" stroke="none" stroke-miterlimit="4" preserveAspectRatio="xMidYMid meet" fill="#000000" stroke-dasharray="none" stroke-width="1px" fill-rule="nonzero" stroke-linejoin="miter" version="1.0" fill-opacity="1" d="M43.398,0.187C18.343,2.618,-0.748,24.176,0.056,49.176C0.299,56.449,1.87,62.75,5.067,69.164C9.723,78.55,17.165,85.992,26.57,90.666C41.809,98.258,59.834,97.211,74.044,87.918C79.597,84.29,84.87,78.905,88.46,73.184C89.844,71.015,91.901,66.789,92.835,64.246C93.789,61.666,94.892,57.216,95.285,54.318C95.715,51.382,95.771,44.576,95.397,41.977C94.294,34.217,91.826,27.598,87.731,21.428C86.011,18.81,84.272,16.679,81.841,14.229C74.381,6.694,65.106,2.019,54.505,0.449C52.223,0.112,45.791,-0.037,43.398,0.187ZM32.965,31.3C34.329,31.955,35.545,33.301,36.087,34.703C36.91,36.91,36.274,39.696,34.554,41.229C32.815,42.818,30.459,43.305,28.234,42.557C26.813,42.07,25.055,40.313,24.607,38.948C23.933,36.91,24.326,34.535,25.616,32.908C27.262,30.814,30.534,30.104,32.965,31.3ZM68.248,31.431C69.987,32.366,71.034,33.787,71.408,35.769C71.987,38.929,70.024,41.902,66.77,42.744C64.078,43.417,61.142,42.052,59.89,39.49C59.179,38.05,59.142,35.732,59.796,34.311C60.264,33.282,61.255,32.161,62.227,31.562C64.003,30.459,66.34,30.422,68.248,31.431ZM27.318,58.394C39.733,62.04,56.131,62.059,68.435,58.412C69.725,58.039,71.071,57.646,71.426,57.534C72.399,57.253,73.371,57.515,74.137,58.226C74.698,58.768,74.792,58.973,74.792,59.703C74.792,60.151,74.586,61.292,74.324,62.189C71.258,72.81,60.039,79.84,46.838,79.41C40.032,79.186,34.573,77.391,29.58,73.707C25.074,70.417,21.484,64.732,20.998,60.17C20.867,58.861,21.166,58.282,22.307,57.758C23.316,57.291,23.765,57.347,27.318,58.394ZM27.318,58.394"/>
</g>
  <g id="Semibold-M" transform="matrix(1.0,0.0,0.0,1.0,1996.6831787109375,1042.9031982421875)">  <path stroke-miterlimit="4" fill-rule="nonzero" stroke="none" stroke-dasharray="none" stroke-opacity="1" stroke-linecap="butt" fill="#000000" stroke-linejoin="miter" fill-opacity="1" version="1.0" preserveAspectRatio="xMidYMid meet" stroke-width="1px" d="M43.398,0.187C18.343,2.618,-0.748,24.176,0.056,49.176C0.299,56.449,1.87,62.75,5.067,69.164C9.723,78.55,17.165,85.992,26.57,90.666C41.809,98.258,59.834,97.211,74.044,87.918C79.597,84.29,84.87,78.905,88.46,73.184C89.844,71.015,91.901,66.789,92.835,64.246C93.789,61.666,94.892,57.216,95.285,54.318C95.715,51.382,95.771,44.576,95.397,41.977C94.294,34.217,91.826,27.598,87.731,21.428C86.011,18.81,84.272,16.679,81.841,14.229C74.381,6.694,65.106,2.019,54.505,0.449C52.223,0.112,45.791,-0.037,43.398,0.187ZM32.965,31.3C34.329,31.955,35.545,33.301,36.087,34.703C36.91,36.91,36.274,39.696,34.554,41.229C32.815,42.818,30.459,43.305,28.234,42.557C26.813,42.07,25.055,40.313,24.607,38.948C23.933,36.91,24.326,34.535,25.616,32.908C27.262,30.814,30.534,30.104,32.965,31.3ZM68.248,31.431C69.987,32.366,71.034,33.787,71.408,35.769C71.987,38.929,70.024,41.902,66.77,42.744C64.078,43.417,61.142,42.052,59.89,39.49C59.179,38.05,59.142,35.732,59.796,34.311C60.264,33.282,61.255,32.161,62.227,31.562C64.003,30.459,66.34,30.422,68.248,31.431ZM27.318,58.394C39.733,62.04,56.131,62.059,68.435,58.412C69.725,58.039,71.071,57.646,71.426,57.534C72.399,57.253,73.371,57.515,74.137,58.226C74.698,58.768,74.792,58.973,74.792,59.703C74.792,60.151,74.586,61.292,74.324,62.189C71.258,72.81,60.039,79.84,46.838,79.41C40.032,79.186,34.573,77.391,29.58,73.707C25.074,70.417,21.484,64.732,20.998,60.17C20.867,58.861,21.166,58.282,22.307,57.758C23.316,57.291,23.765,57.347,27.318,58.394ZM27.318,58.394"/>
</g>
  <g id="Medium-M" transform="matrix(1.0,0.0,0.0,1.0,1699.9731787109374,1042.9031982421875)">  <path preserveAspectRatio="xMidYMid meet" fill-opacity="1" stroke="none" version="1.0" fill-rule="nonzero" stroke-dasharray="none" stroke-miterlimit="4" stroke-linejoin="miter" stroke-opacity="1" fill="#000000" stroke-width="1px" stroke-linecap="butt" d="M43.398,0.187C18.343,2.618,-0.748,24.176,0.056,49.176C0.299,56.449,1.87,62.75,5.067,69.164C9.723,78.55,17.165,85.992,26.57,90.666C41.809,98.258,59.834,97.211,74.044,87.918C79.597,84.29,84.87,78.905,88.46,73.184C89.844,71.015,91.901,66.789,92.835,64.246C93.789,61.666,94.892,57.216,95.285,54.318C95.715,51.382,95.771,44.576,95.397,41.977C94.294,34.217,91.826,27.598,87.731,21.428C86.011,18.81,84.272,16.679,81.841,14.229C74.381,6.694,65.106,2.019,54.505,0.449C52.223,0.112,45.791,-0.037,43.398,0.187ZM32.965,31.3C34.329,31.955,35.545,33.301,36.087,34.703C36.91,36.91,36.274,39.696,34.554,41.229C32.815,42.818,30.459,43.305,28.234,42.557C26.813,42.07,25.055,40.313,24.607,38.948C23.933,36.91,24.326,34.535,25.616,32.908C27.262,30.814,30.534,30.104,32.965,31.3ZM68.248,31.431C69.987,32.366,71.034,33.787,71.408,35.769C71.987,38.929,70.024,41.902,66.77,42.744C64.078,43.417,61.142,42.052,59.89,39.49C59.179,38.05,59.142,35.732,59.796,34.311C60.264,33.282,61.255,32.161,62.227,31.562C64.003,30.459,66.34,30.422,68.248,31.431ZM27.318,58.394C39.733,62.04,56.131,62.059,68.435,58.412C69.725,58.039,71.071,57.646,71.426,57.534C72.399,57.253,73.371,57.515,74.137,58.226C74.698,58.768,74.792,58.973,74.792,59.703C74.792,60.151,74.586,61.292,74.324,62.189C71.258,72.81,60.039,79.84,46.838,79.41C40.032,79.186,34.573,77.391,29.58,73.707C25.074,70.417,21.484,64.732,20.998,60.17C20.867,58.861,21.166,58.282,22.307,57.758C23.316,57.291,23.765,57.347,27.318,58.394ZM27.318,58.394"/>
</g>
  <g id="Regular-M" transform="matrix(1.0,0.0,0.0,1.0,1403.2631787109374,1042.9031982421875)">  <path stroke-width="1px" stroke-opacity="1" stroke-miterlimit="4" stroke-linecap="butt" stroke-dasharray="none" stroke-linejoin="miter" stroke="none" fill="#000000" fill-rule="nonzero" fill-opacity="1" version="1.0" preserveAspectRatio="xMidYMid meet" d="M43.398,0.187C18.343,2.618,-0.748,24.176,0.056,49.176C0.299,56.449,1.87,62.75,5.067,69.164C9.723,78.55,17.165,85.992,26.57,90.666C41.809,98.258,59.834,97.211,74.044,87.918C79.597,84.29,84.87,78.905,88.46,73.184C89.844,71.015,91.901,66.789,92.835,64.246C93.789,61.666,94.892,57.216,95.285,54.318C95.715,51.382,95.771,44.576,95.397,41.977C94.294,34.217,91.826,27.598,87.731,21.428C86.011,18.81,84.272,16.679,81.841,14.229C74.381,6.694,65.106,2.019,54.505,0.449C52.223,0.112,45.791,-0.037,43.398,0.187ZM32.965,31.3C34.329,31.955,35.545,33.301,36.087,34.703C36.91,36.91,36.274,39.696,34.554,41.229C32.815,42.818,30.459,43.305,28.234,42.557C26.813,42.07,25.055,40.313,24.607,38.948C23.933,36.91,24.326,34.535,25.616,32.908C27.262,30.814,30.534,30.104,32.965,31.3ZM68.248,31.431C69.987,32.366,71.034,33.787,71.408,35.769C71.987,38.929,70.024,41.902,66.77,42.744C64.078,43.417,61.142,42.052,59.89,39.49C59.179,38.05,59.142,35.732,59.796,34.311C60.264,33.282,61.255,32.161,62.227,31.562C64.003,30.459,66.34,30.422,68.248,31.431ZM27.318,58.394C39.733,62.04,56.131,62.059,68.435,58.412C69.725,58.039,71.071,57.646,71.426,57.534C72.399,57.253,73.371,57.515,74.137,58.226C74.698,58.768,74.792,58.973,74.792,59.703C74.792,60.151,74.586,61.292,74.324,62.189C71.258,72.81,60.039,79.84,46.838,79.41C40.032,79.186,34.573,77.391,29.58,73.707C25.074,70.417,21.484,64.732,20.998,60.17C20.867,58.861,21.166,58.282,22.307,57.758C23.316,57.291,23.765,57.347,27.318,58.394ZM27.318,58.394"/>
</g>
  <g id="Light-M" transform="matrix(1.0,0.0,0.0,1.0,1106.5531787109376,1042.9031982421875)">  <path fill-opacity="1" fill-rule="nonzero" stroke-dasharray="none" stroke-miterlimit="4" stroke-linejoin="miter" stroke-opacity="1" version="1.0" stroke-width="1px" stroke="none" fill="#000000" preserveAspectRatio="xMidYMid meet" stroke-linecap="butt" d="M43.398,0.187C18.343,2.618,-0.748,24.176,0.056,49.176C0.299,56.449,1.87,62.75,5.067,69.164C9.723,78.55,17.165,85.992,26.57,90.666C41.809,98.258,59.834,97.211,74.044,87.918C79.597,84.29,84.87,78.905,88.46,73.184C89.844,71.015,91.901,66.789,92.835,64.246C93.789,61.666,94.892,57.216,95.285,54.318C95.715,51.382,95.771,44.576,95.397,41.977C94.294,34.217,91.826,27.598,87.731,21.428C86.011,18.81,84.272,16.679,81.841,14.229C74.381,6.694,65.106,2.019,54.505,0.449C52.223,0.112,45.791,-0.037,43.398,0.187ZM32.965,31.3C34.329,31.955,35.545,33.301,36.087,34.703C36.91,36.91,36.274,39.696,34.554,41.229C32.815,42.818,30.459,43.305,28.234,42.557C26.813,42.07,25.055,40.313,24.607,38.948C23.933,36.91,24.326,34.535,25.616,32.908C27.262,30.814,30.534,30.104,32.965,31.3ZM68.248,31.431C69.987,32.366,71.034,33.787,71.408,35.769C71.987,38.929,70.024,41.902,66.77,42.744C64.078,43.417,61.142,42.052,59.89,39.49C59.179,38.05,59.142,35.732,59.796,34.311C60.264,33.282,61.255,32.161,62.227,31.562C64.003,30.459,66.34,30.422,68.248,31.431ZM27.318,58.394C39.733,62.04,56.131,62.059,68.435,58.412C69.725,58.039,71.071,57.646,71.426,57.534C72.399,57.253,73.371,57.515,74.137,58.226C74.698,58.768,74.792,58.973,74.792,59.703C74.792,60.151,74.586,61.292,74.324,62.189C71.258,72.81,60.039,79.84,46.838,79.41C40.032,79.186,34.573,77.391,29.58,73.707C25.074,70.417,21.484,64.732,20.998,60.17C20.867,58.861,21.166,58.282,22.307,57.758C23.316,57.291,23.765,57.347,27.318,58.394ZM27.318,58.394"/>
</g>
  <g id="Thin-M" transform="matrix(1.0,0.0,0.0,1.0,809.8431787109375,1042.9031982421875)">  <path stroke-miterlimit="4" fill-rule="nonzero" stroke-opacity="1" preserveAspectRatio="xMidYMid meet" stroke-linecap="butt" stroke="none" fill-opacity="1" stroke-linejoin="miter" stroke-width="1px" fill="#000000" stroke-dasharray="none" version="1.0" d="M43.398,0.187C18.343,2.618,-0.748,24.176,0.056,49.176C0.299,56.449,1.87,62.75,5.067,69.164C9.723,78.55,17.165,85.992,26.57,90.666C41.809,98.258,59.834,97.211,74.044,87.918C79.597,84.29,84.87,78.905,88.46,73.184C89.844,71.015,91.901,66.789,92.835,64.246C93.789,61.666,94.892,57.216,95.285,54.318C95.715,51.382,95.771,44.576,95.397,41.977C94.294,34.217,91.826,27.598,87.731,21.428C86.011,18.81,84.272,16.679,81.841,14.229C74.381,6.694,65.106,2.019,54.505,0.449C52.223,0.112,45.791,-0.037,43.398,0.187ZM32.965,31.3C34.329,31.955,35.545,33.301,36.087,34.703C36.91,36.91,36.274,39.696,34.554,41.229C32.815,42.818,30.459,43.305,28.234,42.557C26.813,42.07,25.055,40.313,24.607,38.948C23.933,36.91,24.326,34.535,25.616,32.908C27.262,30.814,30.534,30.104,32.965,31.3ZM68.248,31.431C69.987,32.366,71.034,33.787,71.408,35.769C71.987,38.929,70.024,41.902,66.77,42.744C64.078,43.417,61.142,42.052,59.89,39.49C59.179,38.05,59.142,35.732,59.796,34.311C60.264,33.282,61.255,32.161,62.227,31.562C64.003,30.459,66.34,30.422,68.248,31.431ZM27.318,58.394C39.733,62.04,56.131,62.059,68.435,58.412C69.725,58.039,71.071,57.646,71.426,57.534C72.399,57.253,73.371,57.515,74.137,58.226C74.698,58.768,74.792,58.973,74.792,59.703C74.792,60.151,74.586,61.292,74.324,62.189C71.258,72.81,60.039,79.84,46.838,79.41C40.032,79.186,34.573,77.391,29.58,73.707C25.074,70.417,21.484,64.732,20.998,60.17C20.867,58.861,21.166,58.282,22.307,57.758C23.316,57.291,23.765,57.347,27.318,58.394ZM27.318,58.394"/>
</g>
  <g id="Ultralight-M" transform="matrix(1.0,0.0,0.0,1.0,513.1331787109375,1042.9031982421875)">  <path stroke-width="1px" stroke-linejoin="miter" version="1.0" fill-opacity="1" fill="#000000" preserveAspectRatio="xMidYMid meet" fill-rule="nonzero" stroke-opacity="1" stroke-dasharray="none" stroke="none" stroke-miterlimit="4" stroke-linecap="butt" d="M43.398,0.187C18.343,2.618,-0.748,24.176,0.056,49.176C0.299,56.449,1.87,62.75,5.067,69.164C9.723,78.55,17.165,85.992,26.57,90.666C41.809,98.258,59.834,97.211,74.044,87.918C79.597,84.29,84.87,78.905,88.46,73.184C89.844,71.015,91.901,66.789,92.835,64.246C93.789,61.666,94.892,57.216,95.285,54.318C95.715,51.382,95.771,44.576,95.397,41.977C94.294,34.217,91.826,27.598,87.731,21.428C86.011,18.81,84.272,16.679,81.841,14.229C74.381,6.694,65.106,2.019,54.505,0.449C52.223,0.112,45.791,-0.037,43.398,0.187ZM32.965,31.3C34.329,31.955,35.545,33.301,36.087,34.703C36.91,36.91,36.274,39.696,34.554,41.229C32.815,42.818,30.459,43.305,28.234,42.557C26.813,42.07,25.055,40.313,24.607,38.948C23.933,36.91,24.326,34.535,25.616,32.908C27.262,30.814,30.534,30.104,32.965,31.3ZM68.248,31.431C69.987,32.366,71.034,33.787,71.408,35.769C71.987,38.929,70.024,41.902,66.77,42.744C64.078,43.417,61.142,42.052,59.89,39.49C59.179,38.05,59.142,35.732,59.796,34.311C60.264,33.282,61.255,32.161,62.227,31.562C64.003,30.459,66.34,30.422,68.248,31.431ZM27.318,58.394C39.733,62.04,56.131,62.059,68.435,58.412C69.725,58.039,71.071,57.646,71.426,57.534C72.399,57.253,73.371,57.515,74.137,58.226C74.698,58.768,74.792,58.973,74.792,59.703C74.792,60.151,74.586,61.292,74.324,62.189C71.258,72.81,60.039,79.84,46.838,79.41C40.032,79.186,34.573,77.391,29.58,73.707C25.074,70.417,21.484,64.732,20.998,60.17C20.867,58.861,21.166,58.282,22.307,57.758C23.316,57.291,23.765,57.347,27.318,58.394ZM27.318,58.394"/>
</g>
  <g id="Black-S" transform="matrix(1.0,0.0,0.0,1.0,2897.200278930664,623.2902984619141)">  <path fill="#000000" version="1.0" preserveAspectRatio="xMidYMid meet" stroke="none" stroke-width="1px" stroke-dasharray="none" fill-rule="nonzero" stroke-miterlimit="4" stroke-linejoin="miter" fill-opacity="1" stroke-opacity="1" stroke-linecap="butt" d="M33.981,0.146C14.362,2.05,-0.586,18.93,0.044,38.505C0.234,44.2,1.464,49.134,3.968,54.155C7.613,61.505,13.44,67.332,20.804,70.992C32.736,76.936,46.85,76.116,57.976,68.84C62.325,65.999,66.453,61.783,69.264,57.303C70.348,55.605,71.958,52.296,72.69,50.305C73.437,48.284,74.301,44.8,74.608,42.531C74.945,40.232,74.989,34.903,74.696,32.868C73.832,26.792,71.9,21.609,68.693,16.778C67.346,14.728,65.985,13.059,64.082,11.141C58.24,5.241,50.978,1.581,42.677,0.351C40.891,0.088,35.855,-0.029,33.981,0.146ZM25.811,24.508C26.88,25.021,27.832,26.075,28.256,27.173C28.9,28.9,28.403,31.082,27.056,32.282C25.694,33.527,23.849,33.907,22.107,33.322C20.995,32.941,19.618,31.565,19.267,30.496C18.74,28.9,19.047,27.041,20.058,25.767C21.346,24.128,23.908,23.571,25.811,24.508ZM53.438,24.611C54.799,25.343,55.619,26.455,55.912,28.007C56.366,30.482,54.829,32.809,52.281,33.468C50.173,33.995,47.874,32.927,46.894,30.921C46.337,29.793,46.308,27.978,46.82,26.865C47.186,26.06,47.962,25.182,48.724,24.713C50.114,23.849,51.945,23.82,53.438,24.611ZM21.39,45.722C31.111,48.577,43.951,48.592,53.584,45.737C54.594,45.444,55.649,45.137,55.927,45.049C56.688,44.829,57.449,45.034,58.05,45.591C58.489,46.015,58.562,46.176,58.562,46.747C58.562,47.099,58.401,47.992,58.196,48.694C55.795,57.01,47.011,62.515,36.674,62.178C31.345,62.003,27.07,60.597,23.161,57.713C19.633,55.136,16.822,50.685,16.441,47.113C16.339,46.088,16.573,45.634,17.466,45.225C18.257,44.859,18.608,44.902,21.39,45.722ZM21.39,45.722"/>
</g>
  <g id="Heavy-S" transform="matrix(1.0,0.0,0.0,1.0,2600.490278930664,623.2902984619141)">  <path version="1.0" fill="#000000" fill-rule="nonzero" stroke-width="1px" stroke="none" stroke-linecap="butt" stroke-dasharray="none" stroke-opacity="1" stroke-linejoin="miter" fill-opacity="1" stroke-miterlimit="4" preserveAspectRatio="xMidYMid meet" d="M33.981,0.146C14.362,2.05,-0.586,18.93,0.044,38.505C0.234,44.2,1.464,49.134,3.968,54.155C7.613,61.505,13.44,67.332,20.804,70.992C32.736,76.936,46.85,76.116,57.976,68.84C62.325,65.999,66.453,61.783,69.264,57.303C70.348,55.605,71.958,52.296,72.69,50.305C73.437,48.284,74.301,44.8,74.608,42.531C74.945,40.232,74.989,34.903,74.696,32.868C73.832,26.792,71.9,21.609,68.693,16.778C67.346,14.728,65.985,13.059,64.082,11.141C58.24,5.241,50.978,1.581,42.677,0.351C40.891,0.088,35.855,-0.029,33.981,0.146ZM25.811,24.508C26.88,25.021,27.832,26.075,28.256,27.173C28.9,28.9,28.403,31.082,27.056,32.282C25.694,33.527,23.849,33.907,22.107,33.322C20.995,32.941,19.618,31.565,19.267,30.496C18.74,28.9,19.047,27.041,20.058,25.767C21.346,24.128,23.908,23.571,25.811,24.508ZM53.438,24.611C54.799,25.343,55.619,26.455,55.912,28.007C56.366,30.482,54.829,32.809,52.281,33.468C50.173,33.995,47.874,32.927,46.894,30.921C46.337,29.793,46.308,27.978,46.82,26.865C47.186,26.06,47.962,25.182,48.724,24.713C50.114,23.849,51.945,23.82,53.438,24.611ZM21.39,45.722C31.111,48.577,43.951,48.592,53.584,45.737C54.594,45.444,55.649,45.137,55.927,45.049C56.688,44.829,57.449,45.034,58.05,45.591C58.489,46.015,58.562,46.176,58.562,46.747C58.562,47.099,58.401,47.992,58.196,48.694C55.795,57.01,47.011,62.515,36.674,62.178C31.345,62.003,27.07,60.597,23.161,57.713C19.633,55.136,16.822,50.685,16.441,47.113C16.339,46.088,16.573,45.634,17.466,45.225C18.257,44.859,18.608,44.902,21.39,45.722ZM21.39,45.722"/>
</g>
  <g id="Bold-S" transform="matrix(1.0,0.0,0.0,1.0,2303.780278930664,623.2902984619141)">  <path stroke-opacity="1" stroke-linecap="butt" stroke="none" stroke-miterlimit="4" preserveAspectRatio="xMidYMid meet" fill="#000000" stroke-dasharray="none" stroke-width="1px" fill-rule="nonzero" stroke-linejoin="miter" version="1.0" fill-opacity="1" d="M33.981,0.146C14.362,2.05,-0.586,18.93,0.044,38.505C0.234,44.2,1.464,49.134,3.968,54.155C7.613,61.505,13.44,67.332,20.804,70.992C32.736,76.936,46.85,76.116,57.976,68.84C62.325,65.999,66.453,61.783,69.264,57.303C70.348,55.605,71.958,52.296,72.69,50.305C73.437,48.284,74.301,44.8,74.608,42.531C74.945,40.232,74.989,34.903,74.696,32.868C73.832,26.792,71.9,21.609,68.693,16.778C67.346,14.728,65.985,13.059,64.082,11.141C58.24,5.241,50.978,1.581,42.677,0.351C40.891,0.088,35.855,-0.029,33.981,0.146ZM25.811,24.508C26.88,25.021,27.832,26.075,28.256,27.173C28.9,28.9,28.403,31.082,27.056,32.282C25.694,33.527,23.849,33.907,22.107,33.322C20.995,32.941,19.618,31.565,19.267,30.496C18.74,28.9,19.047,27.041,20.058,25.767C21.346,24.128,23.908,23.571,25.811,24.508ZM53.438,24.611C54.799,25.343,55.619,26.455,55.912,28.007C56.366,30.482,54.829,32.809,52.281,33.468C50.173,33.995,47.874,32.927,46.894,30.921C46.337,29.793,46.308,27.978,46.82,26.865C47.186,26.06,47.962,25.182,48.724,24.713C50.114,23.849,51.945,23.82,53.438,24.611ZM21.39,45.722C31.111,48.577,43.951,48.592,53.584,45.737C54.594,45.444,55.649,45.137,55.927,45.049C56.688,44.829,57.449,45.034,58.05,45.591C58.489,46.015,58.562,46.176,58.562,46.747C58.562,47.099,58.401,47.992,58.196,48.694C55.795,57.01,47.011,62.515,36.674,62.178C31.345,62.003,27.07,60.597,23.161,57.713C19.633,55.136,16.822,50.685,16.441,47.113C16.339,46.088,16.573,45.634,17.466,45.225C18.257,44.859,18.608,44.902,21.39,45.722ZM21.39,45.722"/>
</g>
  <g id="Semibold-S" transform="matrix(1.0,0.0,0.0,1.0,2007.070278930664,623.2902984619141)">  <path stroke-miterlimit="4" fill-rule="nonzero" stroke="none" stroke-dasharray="none" stroke-opacity="1" stroke-linecap="butt" fill="#000000" stroke-linejoin="miter" fill-opacity="1" version="1.0" preserveAspectRatio="xMidYMid meet" stroke-width="1px" d="M33.981,0.146C14.362,2.05,-0.586,18.93,0.044,38.505C0.234,44.2,1.464,49.134,3.968,54.155C7.613,61.505,13.44,67.332,20.804,70.992C32.736,76.936,46.85,76.116,57.976,68.84C62.325,65.999,66.453,61.783,69.264,57.303C70.348,55.605,71.958,52.296,72.69,50.305C73.437,48.284,74.301,44.8,74.608,42.531C74.945,40.232,74.989,34.903,74.696,32.868C73.832,26.792,71.9,21.609,68.693,16.778C67.346,14.728,65.985,13.059,64.082,11.141C58.24,5.241,50.978,1.581,42.677,0.351C40.891,0.088,35.855,-0.029,33.981,0.146ZM25.811,24.508C26.88,25.021,27.832,26.075,28.256,27.173C28.9,28.9,28.403,31.082,27.056,32.282C25.694,33.527,23.849,33.907,22.107,33.322C20.995,32.941,19.618,31.565,19.267,30.496C18.74,28.9,19.047,27.041,20.058,25.767C21.346,24.128,23.908,23.571,25.811,24.508ZM53.438,24.611C54.799,25.343,55.619,26.455,55.912,28.007C56.366,30.482,54.829,32.809,52.281,33.468C50.173,33.995,47.874,32.927,46.894,30.921C46.337,29.793,46.308,27.978,46.82,26.865C47.186,26.06,47.962,25.182,48.724,24.713C50.114,23.849,51.945,23.82,53.438,24.611ZM21.39,45.722C31.111,48.577,43.951,48.592,53.584,45.737C54.594,45.444,55.649,45.137,55.927,45.049C56.688,44.829,57.449,45.034,58.05,45.591C58.489,46.015,58.562,46.176,58.562,46.747C58.562,47.099,58.401,47.992,58.196,48.694C55.795,57.01,47.011,62.515,36.674,62.178C31.345,62.003,27.07,60.597,23.161,57.713C19.633,55.136,16.822,50.685,16.441,47.113C16.339,46.088,16.573,45.634,17.466,45.225C18.257,44.859,18.608,44.902,21.39,45.722ZM21.39,45.722"/>
</g>
  <g id="Medium-S" transform="matrix(1.0,0.0,0.0,1.0,1710.360278930664,623.2902984619141)">  <path preserveAspectRatio="xMidYMid meet" fill-opacity="1" stroke="none" version="1.0" fill-rule="nonzero" stroke-dasharray="none" stroke-miterlimit="4" stroke-linejoin="miter" stroke-opacity="1" fill="#000000" stroke-width="1px" stroke-linecap="butt" d="M33.981,0.146C14.362,2.05,-0.586,18.93,0.044,38.505C0.234,44.2,1.464,49.134,3.968,54.155C7.613,61.505,13.44,67.332,20.804,70.992C32.736,76.936,46.85,76.116,57.976,68.84C62.325,65.999,66.453,61.783,69.264,57.303C70.348,55.605,71.958,52.296,72.69,50.305C73.437,48.284,74.301,44.8,74.608,42.531C74.945,40.232,74.989,34.903,74.696,32.868C73.832,26.792,71.9,21.609,68.693,16.778C67.346,14.728,65.985,13.059,64.082,11.141C58.24,5.241,50.978,1.581,42.677,0.351C40.891,0.088,35.855,-0.029,33.981,0.146ZM25.811,24.508C26.88,25.021,27.832,26.075,28.256,27.173C28.9,28.9,28.403,31.082,27.056,32.282C25.694,33.527,23.849,33.907,22.107,33.322C20.995,32.941,19.618,31.565,19.267,30.496C18.74,28.9,19.047,27.041,20.058,25.767C21.346,24.128,23.908,23.571,25.811,24.508ZM53.438,24.611C54.799,25.343,55.619,26.455,55.912,28.007C56.366,30.482,54.829,32.809,52.281,33.468C50.173,33.995,47.874,32.927,46.894,30.921C46.337,29.793,46.308,27.978,46.82,26.865C47.186,26.06,47.962,25.182,48.724,24.713C50.114,23.849,51.945,23.82,53.438,24.611ZM21.39,45.722C31.111,48.577,43.951,48.592,53.584,45.737C54.594,45.444,55.649,45.137,55.927,45.049C56.688,44.829,57.449,45.034,58.05,45.591C58.489,46.015,58.562,46.176,58.562,46.747C58.562,47.099,58.401,47.992,58.196,48.694C55.795,57.01,47.011,62.515,36.674,62.178C31.345,62.003,27.07,60.597,23.161,57.713C19.633,55.136,16.822,50.685,16.441,47.113C16.339,46.088,16.573,45.634,17.466,45.225C18.257,44.859,18.608,44.902,21.39,45.722ZM21.39,45.722"/>
</g>
  <g id="Regular-S" transform="matrix(1.0,0.0,0.0,1.0,1413.650278930664,623.2902984619141)">  <path stroke-width="1px" stroke-opacity="1" stroke-miterlimit="4" stroke-linecap="butt" stroke-dasharray="none" stroke-linejoin="miter" stroke="none" fill="#000000" fill-rule="nonzero" fill-opacity="1" version="1.0" preserveAspectRatio="xMidYMid meet" d="M33.981,0.146C14.362,2.05,-0.586,18.93,0.044,38.505C0.234,44.2,1.464,49.134,3.968,54.155C7.613,61.505,13.44,67.332,20.804,70.992C32.736,76.936,46.85,76.116,57.976,68.84C62.325,65.999,66.453,61.783,69.264,57.303C70.348,55.605,71.958,52.296,72.69,50.305C73.437,48.284,74.301,44.8,74.608,42.531C74.945,40.232,74.989,34.903,74.696,32.868C73.832,26.792,71.9,21.609,68.693,16.778C67.346,14.728,65.985,13.059,64.082,11.141C58.24,5.241,50.978,1.581,42.677,0.351C40.891,0.088,35.855,-0.029,33.981,0.146ZM25.811,24.508C26.88,25.021,27.832,26.075,28.256,27.173C28.9,28.9,28.403,31.082,27.056,32.282C25.694,33.527,23.849,33.907,22.107,33.322C20.995,32.941,19.618,31.565,19.267,30.496C18.74,28.9,19.047,27.041,20.058,25.767C21.346,24.128,23.908,23.571,25.811,24.508ZM53.438,24.611C54.799,25.343,55.619,26.455,55.912,28.007C56.366,30.482,54.829,32.809,52.281,33.468C50.173,33.995,47.874,32.927,46.894,30.921C46.337,29.793,46.308,27.978,46.82,26.865C47.186,26.06,47.962,25.182,48.724,24.713C50.114,23.849,51.945,23.82,53.438,24.611ZM21.39,45.722C31.111,48.577,43.951,48.592,53.584,45.737C54.594,45.444,55.649,45.137,55.927,45.049C56.688,44.829,57.449,45.034,58.05,45.591C58.489,46.015,58.562,46.176,58.562,46.747C58.562,47.099,58.401,47.992,58.196,48.694C55.795,57.01,47.011,62.515,36.674,62.178C31.345,62.003,27.07,60.597,23.161,57.713C19.633,55.136,16.822,50.685,16.441,47.113C16.339,46.088,16.573,45.634,17.466,45.225C18.257,44.859,18.608,44.902,21.39,45.722ZM21.39,45.722"/>
</g>
  <g id="Light-S" transform="matrix(1.0,0.0,0.0,1.0,1116.9402789306641,623.2902984619141)">  <path fill-opacity="1" fill-rule="nonzero" stroke-dasharray="none" stroke-miterlimit="4" stroke-linejoin="miter" stroke-opacity="1" version="1.0" stroke-width="1px" stroke="none" fill="#000000" preserveAspectRatio="xMidYMid meet" stroke-linecap="butt" d="M33.981,0.146C14.362,2.05,-0.586,18.93,0.044,38.505C0.234,44.2,1.464,49.134,3.968,54.155C7.613,61.505,13.44,67.332,20.804,70.992C32.736,76.936,46.85,76.116,57.976,68.84C62.325,65.999,66.453,61.783,69.264,57.303C70.348,55.605,71.958,52.296,72.69,50.305C73.437,48.284,74.301,44.8,74.608,42.531C74.945,40.232,74.989,34.903,74.696,32.868C73.832,26.792,71.9,21.609,68.693,16.778C67.346,14.728,65.985,13.059,64.082,11.141C58.24,5.241,50.978,1.581,42.677,0.351C40.891,0.088,35.855,-0.029,33.981,0.146ZM25.811,24.508C26.88,25.021,27.832,26.075,28.256,27.173C28.9,28.9,28.403,31.082,27.056,32.282C25.694,33.527,23.849,33.907,22.107,33.322C20.995,32.941,19.618,31.565,19.267,30.496C18.74,28.9,19.047,27.041,20.058,25.767C21.346,24.128,23.908,23.571,25.811,24.508ZM53.438,24.611C54.799,25.343,55.619,26.455,55.912,28.007C56.366,30.482,54.829,32.809,52.281,33.468C50.173,33.995,47.874,32.927,46.894,30.921C46.337,29.793,46.308,27.978,46.82,26.865C47.186,26.06,47.962,25.182,48.724,24.713C50.114,23.849,51.945,23.82,53.438,24.611ZM21.39,45.722C31.111,48.577,43.951,48.592,53.584,45.737C54.594,45.444,55.649,45.137,55.927,45.049C56.688,44.829,57.449,45.034,58.05,45.591C58.489,46.015,58.562,46.176,58.562,46.747C58.562,47.099,58.401,47.992,58.196,48.694C55.795,57.01,47.011,62.515,36.674,62.178C31.345,62.003,27.07,60.597,23.161,57.713C19.633,55.136,16.822,50.685,16.441,47.113C16.339,46.088,16.573,45.634,17.466,45.225C18.257,44.859,18.608,44.902,21.39,45.722ZM21.39,45.722"/>
</g>
  <g id="Thin-S" transform="matrix(1.0,0.0,0.0,1.0,820.2302789306641,623.2902984619141)">  <path stroke-miterlimit="4" fill-rule="nonzero" stroke-opacity="1" preserveAspectRatio="xMidYMid meet" stroke-linecap="butt" stroke="none" fill-opacity="1" stroke-linejoin="miter" stroke-width="1px" fill="#000000" stroke-dasharray="none" version="1.0" d="M33.981,0.146C14.362,2.05,-0.586,18.93,0.044,38.505C0.234,44.2,1.464,49.134,3.968,54.155C7.613,61.505,13.44,67.332,20.804,70.992C32.736,76.936,46.85,76.116,57.976,68.84C62.325,65.999,66.453,61.783,69.264,57.303C70.348,55.605,71.958,52.296,72.69,50.305C73.437,48.284,74.301,44.8,74.608,42.531C74.945,40.232,74.989,34.903,74.696,32.868C73.832,26.792,71.9,21.609,68.693,16.778C67.346,14.728,65.985,13.059,64.082,11.141C58.24,5.241,50.978,1.581,42.677,0.351C40.891,0.088,35.855,-0.029,33.981,0.146ZM25.811,24.508C26.88,25.021,27.832,26.075,28.256,27.173C28.9,28.9,28.403,31.082,27.056,32.282C25.694,33.527,23.849,33.907,22.107,33.322C20.995,32.941,19.618,31.565,19.267,30.496C18.74,28.9,19.047,27.041,20.058,25.767C21.346,24.128,23.908,23.571,25.811,24.508ZM53.438,24.611C54.799,25.343,55.619,26.455,55.912,28.007C56.366,30.482,54.829,32.809,52.281,33.468C50.173,33.995,47.874,32.927,46.894,30.921C46.337,29.793,46.308,27.978,46.82,26.865C47.186,26.06,47.962,25.182,48.724,24.713C50.114,23.849,51.945,23.82,53.438,24.611ZM21.39,45.722C31.111,48.577,43.951,48.592,53.584,45.737C54.594,45.444,55.649,45.137,55.927,45.049C56.688,44.829,57.449,45.034,58.05,45.591C58.489,46.015,58.562,46.176,58.562,46.747C58.562,47.099,58.401,47.992,58.196,48.694C55.795,57.01,47.011,62.515,36.674,62.178C31.345,62.003,27.07,60.597,23.161,57.713C19.633,55.136,16.822,50.685,16.441,47.113C16.339,46.088,16.573,45.634,17.466,45.225C18.257,44.859,18.608,44.902,21.39,45.722ZM21.39,45.722"/>
</g>
  <g id="Ultralight-S" transform="matrix(1.0,0.0,0.0,1.0,523.5202789306641,623.2902984619141)">  <path stroke-width="1px" stroke-linejoin="miter" version="1.0" fill-opacity="1" fill="#000000" preserveAspectRatio="xMidYMid meet" fill-rule="nonzero" stroke-opacity="1" stroke-dasharray="none" stroke="none" stroke-miterlimit="4" stroke-linecap="butt" d="M33.981,0.146C14.362,2.05,-0.586,18.93,0.044,38.505C0.234,44.2,1.464,49.134,3.968,54.155C7.613,61.505,13.44,67.332,20.804,70.992C32.736,76.936,46.85,76.116,57.976,68.84C62.325,65.999,66.453,61.783,69.264,57.303C70.348,55.605,71.958,52.296,72.69,50.305C73.437,48.284,74.301,44.8,74.608,42.531C74.945,40.232,74.989,34.903,74.696,32.868C73.832,26.792,71.9,21.609,68.693,16.778C67.346,14.728,65.985,13.059,64.082,11.141C58.24,5.241,50.978,1.581,42.677,0.351C40.891,0.088,35.855,-0.029,33.981,0.146ZM25.811,24.508C26.88,25.021,27.832,26.075,28.256,27.173C28.9,28.9,28.403,31.082,27.056,32.282C25.694,33.527,23.849,33.907,22.107,33.322C20.995,32.941,19.618,31.565,19.267,30.496C18.74,28.9,19.047,27.041,20.058,25.767C21.346,24.128,23.908,23.571,25.811,24.508ZM53.438,24.611C54.799,25.343,55.619,26.455,55.912,28.007C56.366,30.482,54.829,32.809,52.281,33.468C50.173,33.995,47.874,32.927,46.894,30.921C46.337,29.793,46.308,27.978,46.82,26.865C47.186,26.06,47.962,25.182,48.724,24.713C50.114,23.849,51.945,23.82,53.438,24.611ZM21.39,45.722C31.111,48.577,43.951,48.592,53.584,45.737C54.594,45.444,55.649,45.137,55.927,45.049C56.688,44.829,57.449,45.034,58.05,45.591C58.489,46.015,58.562,46.176,58.562,46.747C58.562,47.099,58.401,47.992,58.196,48.694C55.795,57.01,47.011,62.515,36.674,62.178C31.345,62.003,27.07,60.597,23.161,57.713C19.633,55.136,16.822,50.685,16.441,47.113C16.339,46.088,16.573,45.634,17.466,45.225C18.257,44.859,18.608,44.902,21.39,45.722ZM21.39,45.722"/>
</g>
 </g>
</svg>
