<?xml version="1.0" encoding="UTF-8"?>
<!-- Generator: CustomSymbols v2.7.0.46 by @serious_bret https://bretlester.com/app_content/CustomSymbols/ -->
<!-- Guides: Left/Right -0.011/0.007 Cap/Base 0.374/0.128 -->
<!-- Settings: RefScale 1.0 Min/Max Stroke Scales 0.5/2.21 -->
<!DOCTYPE svg
PUBLIC "-//W3C//DTD SVG 1.1//EN"
       "http://www.w3.org/Graphics/SVG/1.1/DTD/svg11.dtd">
<svg version="1.1" xmlns="http://www.w3.org/2000/svg" xmlns:xlink="http://www.w3.org/1999/xlink" width="3300" height="2200">
<![CDATA[<?xml version="1.0" standalone="no"?>
<!DOCTYPE svg PUBLIC "-//W3C//DTD SVG 20010904//EN"
 "http://www.w3.org/TR/2001/REC-SVG-20010904/DTD/svg10.dtd">
<svg version="1.0" xmlns="http://www.w3.org/2000/svg"
 width="512.000000pt" height="512.000000pt" viewBox="0 0 512.000000 512.000000"
 preserveAspectRatio="xMidYMid meet">

<g transform="translate(0.000000,512.000000) scale(0.100000,-0.100000)"
fill="#000000" stroke="none">
<path d="M1551 4743 l-44 -4 6 -97 c15 -242 114 -448 282 -585 74 -61 217
-130 310 -150 90 -20 232 -30 268 -20 l28 8 -31 40 c-51 65 -209 222 -298 298
-46 38 -87 79 -93 89 -14 26 13 68 45 68 31 0 188 -133 320 -271 118 -124 119
-124 91 9 -77 369 -357 603 -735 616 -58 2 -125 2 -149 -1z"/>
<path d="M2900 4433 c-63 -23 -218 -286 -305 -518 -45 -120 -102 -340 -111
-429 l-7 -65 35 -6 c48 -9 89 -3 99 15 5 8 26 53 48 100 86 186 236 406 390
573 109 118 109 122 -6 238 -86 86 -113 103 -143 92z"/>
<path d="M1768 3470 c-379 -60 -740 -321 -906 -655 -98 -198 -137 -401 -129
-675 6 -190 21 -295 67 -463 150 -543 483 -992 892 -1207 138 -72 223 -93 383
-93 106 -1 163 5 307 32 l178 33 177 -33 c143 -26 204 -33 308 -33 158 0 243
21 385 95 453 238 818 779 931 1382 30 161 37 426 15 576 -29 198 -102 386
-204 531 -146 208 -420 403 -664 474 -162 47 -296 56 -441 31 -110 -19 -157
-35 -287 -96 -187 -87 -254 -86 -451 6 -64 30 -154 64 -200 75 -96 24 -275 34
-361 20z"/>
</g>
</svg>
]]>
 <g id="Notes">
  <rect height="2200" id="artboard" style="fill:white;opacity:1" width="3300" x="0" y="0"/>
  <line id="" style="fill:none;stroke:black;opacity:1;stroke-width:0.5;" x1="263" x2="3036" y1="292" y2="292"/>
  <text id="reftext1" style="stroke:none;fill:black;font-family:-apple-system,&quot;SF Pro Display&quot;,&quot;SF Pro Text&quot;,Helvetica,sans-serif;font-weight:bold;" transform="matrix(1 0 0 1 263 322)">Weight/Scale Variations</text>
  <text id="reftext2" style="stroke:none;fill:black;font-family:-apple-system,&quot;SF Pro Display&quot;,&quot;SF Pro Text&quot;,Helvetica,sans-serif;text-anchor:middle;" transform="matrix(1 0 0 1 559.711 322)">Ultralight</text>
  <text style="stroke:none;fill:black;font-family:-apple-system,&quot;SF Pro Display&quot;,&quot;SF Pro Text&quot;,Helvetica,sans-serif;text-anchor:middle;" transform="matrix(1 0 0 1 856.422 322)">Thin</text>
  <text style="stroke:none;fill:black;font-family:-apple-system,&quot;SF Pro Display&quot;,&quot;SF Pro Text&quot;,Helvetica,sans-serif;text-anchor:middle;" transform="matrix(1 0 0 1 1153.13 322)">Light</text>
  <text style="stroke:none;fill:black;font-family:-apple-system,&quot;SF Pro Display&quot;,&quot;SF Pro Text&quot;,Helvetica,sans-serif;text-anchor:middle;" transform="matrix(1 0 0 1 1449.84 322)">Regular</text>
  <text style="stroke:none;fill:black;font-family:-apple-system,&quot;SF Pro Display&quot;,&quot;SF Pro Text&quot;,Helvetica,sans-serif;text-anchor:middle;" transform="matrix(1 0 0 1 1746.56 322)">Medium</text>
  <text style="stroke:none;fill:black;font-family:-apple-system,&quot;SF Pro Display&quot;,&quot;SF Pro Text&quot;,Helvetica,sans-serif;text-anchor:middle;" transform="matrix(1 0 0 1 2043.27 322)">Semibold</text>
  <text style="stroke:none;fill:black;font-family:-apple-system,&quot;SF Pro Display&quot;,&quot;SF Pro Text&quot;,Helvetica,sans-serif;text-anchor:middle;" transform="matrix(1 0 0 1 2339.98 322)">Bold</text>
  <text style="stroke:none;fill:black;font-family:-apple-system,&quot;SF Pro Display&quot;,&quot;SF Pro Text&quot;,Helvetica,sans-serif;text-anchor:middle;" transform="matrix(1 0 0 1 2636.69 322)">Heavy</text>
  <text style="stroke:none;fill:black;font-family:-apple-system,&quot;SF Pro Display&quot;,&quot;SF Pro Text&quot;,Helvetica,sans-serif;text-anchor:middle;" transform="matrix(1 0 0 1 2933.4 322)">Black</text>
  <line id="" style="fill:none;stroke:black;opacity:1;stroke-width:0.5;" x1="263" x2="3036" y1="1903" y2="1903"/>
  <g id="" transform="matrix(1 0 0 1 263 1933)">
   <path d="M9.24805 0.830078C13.5547 0.830078 17.1387-2.74414 17.1387-7.05078C17.1387-11.3574 13.5449-14.9316 9.23828-14.9316C4.94141-14.9316 1.36719-11.3574 1.36719-7.05078C1.36719-2.74414 4.95117 0.830078 9.24805 0.830078ZM9.24805-0.654297C5.70312-0.654297 2.87109-3.49609 2.87109-7.05078C2.87109-10.6055 5.69336-13.4473 9.23828-13.4473C12.793-13.4473 15.6348-10.6055 15.6445-7.05078C15.6543-3.49609 12.8027-0.654297 9.24805-0.654297ZM6.39648-6.31836L8.50586-6.31836L8.50586-4.19922C8.50586-3.75977 8.79883-3.45703 9.22852-3.45703C9.67773-3.45703 9.9707-3.75977 9.9707-4.19922L9.9707-6.31836L12.0996-6.31836C12.5391-6.31836 12.8418-6.61133 12.8418-7.04102C12.8418-7.48047 12.5391-7.7832 12.0996-7.7832L9.9707-7.7832L9.9707-9.89258C9.9707-10.3418 9.67773-10.6445 9.22852-10.6445C8.79883-10.6445 8.50586-10.3418 8.50586-9.89258L8.50586-7.7832L6.39648-7.7832C5.94727-7.7832 5.64453-7.48047 5.64453-7.04102C5.64453-6.61133 5.94727-6.31836 6.39648-6.31836Z"/>
  </g>
  <g id="" transform="matrix(1 0 0 1 281.506 1933)">
   <path d="M11.709 2.91016C17.1582 2.91016 21.6699-1.61133 21.6699-7.05078C21.6699-12.5 17.1484-17.0117 11.6992-17.0117C6.25977-17.0117 1.74805-12.5 1.74805-7.05078C1.74805-1.61133 6.26953 2.91016 11.709 2.91016ZM11.709 1.25C7.09961 1.25 3.41797-2.44141 3.41797-7.05078C3.41797-11.6602 7.08984-15.3516 11.6992-15.3516C16.3086-15.3516 20-11.6602 20.0098-7.05078C20.0195-2.44141 16.3184 1.25 11.709 1.25ZM7.98828-6.23047L10.8789-6.23047L10.8789-3.32031C10.8789-2.83203 11.2109-2.5 11.6895-2.5C12.1777-2.5 12.5195-2.83203 12.5195-3.32031L12.5195-6.23047L15.4297-6.23047C15.918-6.23047 16.25-6.5625 16.25-7.04102C16.25-7.5293 15.918-7.87109 15.4297-7.87109L12.5195-7.87109L12.5195-10.7617C12.5195-11.2695 12.1777-11.6016 11.6895-11.6016C11.2109-11.6016 10.8789-11.2598 10.8789-10.7617L10.8789-7.87109L7.98828-7.87109C7.48047-7.87109 7.14844-7.5293 7.14844-7.04102C7.14844-6.5625 7.49023-6.23047 7.98828-6.23047Z"/>
  </g>
  <g id="" transform="matrix(1 0 0 1 304.924 1933)">
   <path d="M14.9707 5.66406C21.9336 5.66406 27.6953-0.0976562 27.6953-7.05078C27.6953-14.0137 21.9238-19.7754 14.9609-19.7754C8.00781-19.7754 2.25586-14.0137 2.25586-7.05078C2.25586-0.0976562 8.01758 5.66406 14.9707 5.66406ZM14.9707 3.84766C8.93555 3.84766 4.08203-1.01562 4.08203-7.05078C4.08203-13.0957 8.92578-17.9492 14.9609-17.9492C21.0059-17.9492 25.8594-13.0957 25.8691-7.05078C25.8789-1.01562 21.0156 3.84766 14.9707 3.84766ZM10.0586-6.14258L14.0625-6.14258L14.0625-2.12891C14.0625-1.5918 14.4336-1.2207 14.9512-1.2207C15.4883-1.2207 15.8594-1.5918 15.8594-2.12891L15.8594-6.14258L19.8828-6.14258C20.4102-6.14258 20.791-6.51367 20.791-7.03125C20.791-7.56836 20.4199-7.94922 19.8828-7.94922L15.8594-7.94922L15.8594-11.9531C15.8594-12.5098 15.4883-12.8809 14.9512-12.8809C14.4336-12.8809 14.0625-12.5 14.0625-11.9531L14.0625-7.94922L10.0586-7.94922C9.50195-7.94922 9.13086-7.56836 9.13086-7.03125C9.13086-6.51367 9.51172-6.14258 10.0586-6.14258Z"/>
  </g>
  <text style="stroke:none;fill:black;font-family:-apple-system,&quot;SF Pro Display&quot;,&quot;SF Pro Text&quot;,Helvetica,sans-serif;font-weight:bold;" transform="matrix(1 0 0 1 263 1953)">Design Variations</text>
  <text style="stroke:none;fill:black;font-family:-apple-system,&quot;SF Pro Display&quot;,&quot;SF Pro Text&quot;,Helvetica,sans-serif;" transform="matrix(1 0 0 1 263 1971)">Symbols are supported in up to nine weights and three scales.</text>
  <text style="stroke:none;fill:black;font-family:-apple-system,&quot;SF Pro Display&quot;,&quot;SF Pro Text&quot;,Helvetica,sans-serif;" transform="matrix(1 0 0 1 263 1989)">For optimal layout with text and other symbols, vertically align</text>
  <text style="stroke:none;fill:black;font-family:-apple-system,&quot;SF Pro Display&quot;,&quot;SF Pro Text&quot;,Helvetica,sans-serif;" transform="matrix(1 0 0 1 263 2007)">symbols with the adjacent text.</text>
  <line id="" style="fill:none;stroke:#00AEEF;stroke-width:0.5;opacity:1.0;" x1="776" x2="776" y1="1919" y2="1933"/>
  <g id="" transform="matrix(1 0 0 1 776 1933)">
   <path d="M3.31055 0.126953C3.82812 0.126953 4.08203-0.0683594 4.26758-0.605469L5.52734-4.0625L11.2891-4.0625L12.5488-0.605469C12.7344-0.0683594 12.9883 0.126953 13.4961 0.126953C14.0137 0.126953 14.3457-0.185547 14.3457-0.673828C14.3457-0.839844 14.3164-0.986328 14.2383-1.20117L9.6582-13.3887C9.43359-13.9941 9.0332-14.2871 8.4082-14.2871C7.80273-14.2871 7.39258-13.9941 7.17773-13.3984L2.59766-1.19141C2.51953-0.976562 2.49023-0.830078 2.49023-0.664062C2.49023-0.175781 2.80273 0.126953 3.31055 0.126953ZM6.00586-5.53711L8.37891-12.1094L8.42773-12.1094L10.8008-5.53711Z"/>
  </g>
  <line id="" style="fill:none;stroke:#00AEEF;stroke-width:0.5;opacity:1.0;" x1="792.836" x2="792.836" y1="1919" y2="1933"/>
  <text style="stroke:none;fill:black;font-family:-apple-system,&quot;SF Pro Display&quot;,&quot;SF Pro Text&quot;,Helvetica,sans-serif;font-weight:bold;" transform="matrix(1 0 0 1 776 1953)">Margins</text>
  <text style="stroke:none;fill:black;font-family:-apple-system,&quot;SF Pro Display&quot;,&quot;SF Pro Text&quot;,Helvetica,sans-serif;" transform="matrix(1 0 0 1 776 1971)">Leading and trailing margins on the left and right side of each symbol</text>
  <text style="stroke:none;fill:black;font-family:-apple-system,&quot;SF Pro Display&quot;,&quot;SF Pro Text&quot;,Helvetica,sans-serif;" transform="matrix(1 0 0 1 776 1989)">can be adjusted by modifying the x-location of the margin guidelines.</text>
  <text style="stroke:none;fill:black;font-family:-apple-system,&quot;SF Pro Display&quot;,&quot;SF Pro Text&quot;,Helvetica,sans-serif;" transform="matrix(1 0 0 1 776 2007)">Modifications are automatically applied proportionally to all</text>
  <text style="stroke:none;fill:black;font-family:-apple-system,&quot;SF Pro Display&quot;,&quot;SF Pro Text&quot;,Helvetica,sans-serif;" transform="matrix(1 0 0 1 776 2025)">scales and weights.</text>
  <g id="" transform="matrix(1 0 0 1 1289 1933)">
   <path d="M2.8418 1.86523L4.54102 3.57422C5.40039 4.44336 6.38672 4.38477 7.31445 3.35938L17.4902-7.85156C17.7539-7.76367 18.0273-7.7832 18.3398-7.8418L19.4043-8.03711L20.0684-7.36328L20.0293-6.80664C19.9902-6.30859 20.1172-5.92773 20.6055-5.44922L21.3672-4.70703C21.8457-4.22852 22.4609-4.19922 22.9297-4.66797L25.8398-7.58789C26.3086-8.05664 26.2891-8.65234 25.8105-9.13086L25.0391-9.89258C24.5605-10.3711 24.1895-10.5273 23.7109-10.4883L23.1348-10.4395L22.4902-11.0742L22.7344-12.1973C22.8613-12.7637 22.7051-13.2031 22.1191-13.7891L19.9219-15.9766C16.582-19.2969 12.1484-19.2188 9.25781-16.3281C8.83789-15.918 8.80859-15.3418 9.04297-14.9512C9.27734-14.5898 9.73633-14.3555 10.3809-14.5215C11.8457-14.8633 13.3691-14.9219 14.7949-13.9844L14.209-12.5293C14.0137-12.0508 13.9844-11.6504 14.1113-11.2891L3.04688-0.898438C2.06055 0.0195312 1.98242 0.996094 2.8418 1.86523ZM10.752-15.957C13.1836-17.7344 16.4746-17.4316 18.7012-15.2051L21.1328-12.793C21.3672-12.5586 21.4062-12.373 21.3379-12.0312L21.0156-10.5469L22.5195-9.0625L23.5059-9.12109C23.7598-9.13086 23.8379-9.11133 24.0332-8.91602L24.6094-8.33984L22.168-5.89844L21.5918-6.47461C21.3965-6.66992 21.3672-6.74805 21.377-7.01172L21.4453-7.98828L19.9512-9.47266L18.4277-9.21875C18.1055-9.15039 17.959-9.17969 17.7148-9.41406L15.7129-11.416C15.459-11.6504 15.4297-11.8164 15.5859-12.1875L16.4648-14.2773C14.9023-15.7324 12.8711-16.3574 10.8398-15.7617C10.6836-15.7227 10.625-15.8496 10.752-15.957ZM5.27344 2.30469L4.10156 1.14258C3.63281 0.683594 3.74023 0.341797 4.14062-0.0195312L14.9512-10.1953L16.416-8.71094L6.42578 2.27539C6.07422 2.67578 5.74219 2.77344 5.27344 2.30469Z"/>
  </g>
  <text style="stroke:none;fill:black;font-family:-apple-system,&quot;SF Pro Display&quot;,&quot;SF Pro Text&quot;,Helvetica,sans-serif;font-weight:bold;" transform="matrix(1 0 0 1 1289 1953)">Exporting</text>
  <text style="stroke:none;fill:black;font-family:-apple-system,&quot;SF Pro Display&quot;,&quot;SF Pro Text&quot;,Helvetica,sans-serif;" transform="matrix(1 0 0 1 1289 1971)">Symbols should be outlined when exporting to ensure the</text>
  <text style="stroke:none;fill:black;font-family:-apple-system,&quot;SF Pro Display&quot;,&quot;SF Pro Text&quot;,Helvetica,sans-serif;" transform="matrix(1 0 0 1 1289 1989)">design is preserved when submitting to Xcode.</text>
  <text id="template-version" style="stroke:none;fill:black;font-family:-apple-system,&quot;SF Pro Display&quot;,&quot;SF Pro Text&quot;,Helvetica,sans-serif;text-anchor:end;" transform="matrix(1 0 0 1 3036 1933)">Template v.2.0</text>
  <text style="stroke:none;fill:black;font-family:-apple-system,&quot;SF Pro Display&quot;,&quot;SF Pro Text&quot;,Helvetica,sans-serif;text-anchor:end;" transform="matrix(1 0 0 1 3036 1951)">Requires Xcode 12 or greater</text>
  <text style="stroke:none;fill:black;font-family:-apple-system,&quot;SF Pro Display&quot;,&quot;SF Pro Text&quot;,Helvetica,sans-serif;" transform="matrix(1 0 0 1 263 726)">Small</text>
  <text style="stroke:none;fill:black;font-family:-apple-system,&quot;SF Pro Display&quot;,&quot;SF Pro Text&quot;,Helvetica,sans-serif;" transform="matrix(1 0 0 1 263 1156)">Medium</text>
  <text style="stroke:none;fill:black;font-family:-apple-system,&quot;SF Pro Display&quot;,&quot;SF Pro Text&quot;,Helvetica,sans-serif;" transform="matrix(1 0 0 1 263 1586)">Large</text>
 </g>
 <g id="Guides">
  <g id="H-reference" style="fill:#27AAE1;stroke:none;" transform="matrix(1 0 0 1 339 696)">
   <path d="M0.976562 0L3.66211 0L12.9883-24.4629L45.752-24.4629L55.127 0L57.7637 0L30.6152-70.459L28.125-70.459ZM29.3457-67.1387L29.4434-67.1387L44.873-26.709L13.8672-26.709Z"/>
  </g>
  <line id="Baseline-S" style="fill:none;stroke:#27AAE1;opacity:1;stroke-width:0.5;" x1="263" x2="3036" y1="696" y2="696"/>
  <line id="Capline-S" style="fill:none;stroke:#27AAE1;opacity:1;stroke-width:0.5;" x1="263" x2="3036" y1="625.541" y2="625.541"/>
  <g id="H-reference" style="fill:#27AAE1;stroke:none;" transform="matrix(1 0 0 1 339 1126)">
   <path d="M0.976562 0L3.66211 0L12.9883-24.4629L45.752-24.4629L55.127 0L57.7637 0L30.6152-70.459L28.125-70.459ZM29.3457-67.1387L29.4434-67.1387L44.873-26.709L13.8672-26.709Z"/>
  </g>
  <line id="Baseline-M" style="fill:none;stroke:#27AAE1;opacity:1;stroke-width:0.5;" x1="263" x2="3036" y1="1126" y2="1126"/>
  <line id="Capline-M" style="fill:none;stroke:#27AAE1;opacity:1;stroke-width:0.5;" x1="263" x2="3036" y1="1055.54" y2="1055.54"/>
  <g id="H-reference" style="fill:#27AAE1;stroke:none;" transform="matrix(1 0 0 1 339 1556)">
   <path d="M0.976562 0L3.66211 0L12.9883-24.4629L45.752-24.4629L55.127 0L57.7637 0L30.6152-70.459L28.125-70.459ZM29.3457-67.1387L29.4434-67.1387L44.873-26.709L13.8672-26.709Z"/>
  </g>
  <line id="Baseline-L" style="fill:none;stroke:#27AAE1;opacity:1;stroke-width:0.5;" x1="263" x2="3036" y1="1556" y2="1556"/>
  <line id="Capline-L" style="fill:none;stroke:#27AAE1;opacity:1;stroke-width:0.5;" x1="263" x2="3036" y1="1485.54" y2="1485.54"/>
  <line id="left-margin" x1="1378.8307228131275" x2="1378.8307228131275" y1="1030.79" y2="1150.12" style="fill:none;stroke:#00AEEF;stroke-width:0.5;opacity:1.0;"/>
  <line id="right-margin" x1="1520.8825316108182" x2="1520.8825316108182" y1="1030.79" y2="1150.12" style="fill:none;stroke:#00AEEF;stroke-width:0.5;opacity:1.0;"/>
 </g>
 <g id="Symbols">
  <g id="Black-L" transform="matrix(1.0,0.0,0.0,1.0,2843.421616858057,1407.0620741363894)">  <path stroke-miterlimit="4" fill-opacity="1" stroke="none" fill-rule="nonzero" preserveAspectRatio="xMidYMid meet" version="1.0" fill="#000000" stroke-width="1px" stroke-opacity="1" stroke-dasharray="none" stroke-linecap="butt" stroke-linejoin="miter" d="M55.29,13.439L53.721,13.582L53.935,17.04C54.47,25.666,57.999,33.01,63.988,37.894C66.626,40.068,71.723,42.528,75.039,43.241C78.247,43.954,83.309,44.31,84.592,43.954L85.59,43.669L84.485,42.243C82.667,39.926,77.035,34.329,73.862,31.62C72.222,30.265,70.761,28.803,70.547,28.447C70.048,27.52,71.01,26.023,72.151,26.023C73.256,26.023,78.853,30.764,83.558,35.683C87.765,40.104,87.801,40.104,86.802,35.363C84.058,22.209,74.076,13.867,60.601,13.404C58.534,13.332,56.145,13.332,55.29,13.439ZM55.29,13.439"/>
  <path preserveAspectRatio="xMidYMid meet" stroke-width="1px" fill-rule="nonzero" stroke-linecap="butt" version="1.0" stroke-opacity="1" stroke="none" fill="#000000" stroke-linejoin="miter" fill-opacity="1" stroke-dasharray="none" stroke-miterlimit="4" d="M103.379,24.49C101.133,25.31,95.607,34.685,92.506,42.956C90.902,47.233,88.87,55.076,88.549,58.249L88.3,60.566L89.547,60.78C91.258,61.1,92.72,60.886,93.076,60.245C93.255,59.96,94.003,58.355,94.788,56.68C97.853,50.05,103.2,42.207,108.69,36.254C112.576,32.047,112.576,31.905,108.476,27.77C105.411,24.704,104.448,24.098,103.379,24.49ZM103.379,24.49"/>
  <path fill="#000000" stroke-dasharray="none" stroke-linecap="butt" version="1.0" stroke-width="1px" fill-opacity="1" stroke="none" stroke-miterlimit="4" preserveAspectRatio="xMidYMid meet" stroke-opacity="1" stroke-linejoin="miter" fill-rule="nonzero" d="M63.025,58.819C49.515,60.958,36.646,70.262,30.728,82.168C27.235,89.226,25.845,96.463,26.13,106.23C26.344,113.004,26.878,116.747,28.518,122.735C33.865,142.092,45.736,158.098,60.316,165.762C65.235,168.329,68.266,169.078,73.969,169.078C77.748,169.113,79.78,168.899,84.913,167.937L91.258,166.76L97.568,167.937C102.666,168.864,104.84,169.113,108.548,169.113C114.18,169.113,117.21,168.365,122.272,165.727C138.42,157.242,151.432,137.957,155.46,116.461C156.53,110.722,156.779,101.275,155.995,95.928C154.961,88.87,152.359,82.168,148.723,76.999C143.518,69.585,133.751,62.633,125.053,60.102C119.278,58.427,114.501,58.106,109.332,58.997C105.411,59.674,103.735,60.245,99.101,62.419C92.435,65.521,90.046,65.485,83.024,62.205C80.742,61.136,77.534,59.924,75.894,59.532C72.472,58.676,66.091,58.32,63.025,58.819ZM63.025,58.819"/>
</g>
  <g id="Heavy-L" transform="matrix(1.0,0.0,0.0,1.0,2546.711616858057,1407.0620741363894)">  <path stroke-dasharray="none" fill-opacity="1" stroke="none" stroke-linejoin="miter" preserveAspectRatio="xMidYMid meet" fill="#000000" fill-rule="nonzero" stroke-opacity="1" stroke-linecap="butt" version="1.0" stroke-width="1px" stroke-miterlimit="4" d="M55.29,13.439L53.721,13.582L53.935,17.04C54.47,25.666,57.999,33.01,63.988,37.894C66.626,40.068,71.723,42.528,75.039,43.241C78.247,43.954,83.309,44.31,84.592,43.954L85.59,43.669L84.485,42.243C82.667,39.926,77.035,34.329,73.862,31.62C72.222,30.265,70.761,28.803,70.547,28.447C70.048,27.52,71.01,26.023,72.151,26.023C73.256,26.023,78.853,30.764,83.558,35.683C87.765,40.104,87.801,40.104,86.802,35.363C84.058,22.209,74.076,13.867,60.601,13.404C58.534,13.332,56.145,13.332,55.29,13.439ZM55.29,13.439"/>
  <path stroke-opacity="1" fill-opacity="1" stroke-dasharray="none" version="1.0" fill-rule="nonzero" stroke-miterlimit="4" stroke-linecap="butt" fill="#000000" stroke-linejoin="miter" stroke="none" stroke-width="1px" preserveAspectRatio="xMidYMid meet" d="M103.379,24.49C101.133,25.31,95.607,34.685,92.506,42.956C90.902,47.233,88.87,55.076,88.549,58.249L88.3,60.566L89.547,60.78C91.258,61.1,92.72,60.886,93.076,60.245C93.255,59.96,94.003,58.355,94.788,56.68C97.853,50.05,103.2,42.207,108.69,36.254C112.576,32.047,112.576,31.905,108.476,27.77C105.411,24.704,104.448,24.098,103.379,24.49ZM103.379,24.49"/>
  <path fill-opacity="1" version="1.0" fill-rule="nonzero" stroke-miterlimit="4" stroke-linejoin="miter" stroke-opacity="1" stroke="none" fill="#000000" stroke-width="1px" preserveAspectRatio="xMidYMid meet" stroke-linecap="butt" stroke-dasharray="none" d="M63.025,58.819C49.515,60.958,36.646,70.262,30.728,82.168C27.235,89.226,25.845,96.463,26.13,106.23C26.344,113.004,26.878,116.747,28.518,122.735C33.865,142.092,45.736,158.098,60.316,165.762C65.235,168.329,68.266,169.078,73.969,169.078C77.748,169.113,79.78,168.899,84.913,167.937L91.258,166.76L97.568,167.937C102.666,168.864,104.84,169.113,108.548,169.113C114.18,169.113,117.21,168.365,122.272,165.727C138.42,157.242,151.432,137.957,155.46,116.461C156.53,110.722,156.779,101.275,155.995,95.928C154.961,88.87,152.359,82.168,148.723,76.999C143.518,69.585,133.751,62.633,125.053,60.102C119.278,58.427,114.501,58.106,109.332,58.997C105.411,59.674,103.735,60.245,99.101,62.419C92.435,65.521,90.046,65.485,83.024,62.205C80.742,61.136,77.534,59.924,75.894,59.532C72.472,58.676,66.091,58.32,63.025,58.819ZM63.025,58.819"/>
</g>
  <g id="Bold-L" transform="matrix(1.0,0.0,0.0,1.0,2250.001616858057,1407.0620741363894)">  <path preserveAspectRatio="xMidYMid meet" stroke-dasharray="none" stroke-linejoin="miter" version="1.0" stroke-miterlimit="4" fill="#000000" stroke-width="1px" stroke-linecap="butt" stroke="none" fill-opacity="1" fill-rule="nonzero" stroke-opacity="1" d="M55.29,13.439L53.721,13.582L53.935,17.04C54.47,25.666,57.999,33.01,63.988,37.894C66.626,40.068,71.723,42.528,75.039,43.241C78.247,43.954,83.309,44.31,84.592,43.954L85.59,43.669L84.485,42.243C82.667,39.926,77.035,34.329,73.862,31.62C72.222,30.265,70.761,28.803,70.547,28.447C70.048,27.52,71.01,26.023,72.151,26.023C73.256,26.023,78.853,30.764,83.558,35.683C87.765,40.104,87.801,40.104,86.802,35.363C84.058,22.209,74.076,13.867,60.601,13.404C58.534,13.332,56.145,13.332,55.29,13.439ZM55.29,13.439"/>
  <path fill-rule="nonzero" stroke-opacity="1" stroke-linecap="butt" stroke-miterlimit="4" stroke-linejoin="miter" fill-opacity="1" version="1.0" preserveAspectRatio="xMidYMid meet" stroke-width="1px" stroke="none" fill="#000000" stroke-dasharray="none" d="M103.379,24.49C101.133,25.31,95.607,34.685,92.506,42.956C90.902,47.233,88.87,55.076,88.549,58.249L88.3,60.566L89.547,60.78C91.258,61.1,92.72,60.886,93.076,60.245C93.255,59.96,94.003,58.355,94.788,56.68C97.853,50.05,103.2,42.207,108.69,36.254C112.576,32.047,112.576,31.905,108.476,27.77C105.411,24.704,104.448,24.098,103.379,24.49ZM103.379,24.49"/>
  <path fill-rule="nonzero" preserveAspectRatio="xMidYMid meet" stroke-width="1px" stroke-opacity="1" fill="#000000" stroke-miterlimit="4" stroke-linejoin="miter" stroke="none" fill-opacity="1" version="1.0" stroke-linecap="butt" stroke-dasharray="none" d="M63.025,58.819C49.515,60.958,36.646,70.262,30.728,82.168C27.235,89.226,25.845,96.463,26.13,106.23C26.344,113.004,26.878,116.747,28.518,122.735C33.865,142.092,45.736,158.098,60.316,165.762C65.235,168.329,68.266,169.078,73.969,169.078C77.748,169.113,79.78,168.899,84.913,167.937L91.258,166.76L97.568,167.937C102.666,168.864,104.84,169.113,108.548,169.113C114.18,169.113,117.21,168.365,122.272,165.727C138.42,157.242,151.432,137.957,155.46,116.461C156.53,110.722,156.779,101.275,155.995,95.928C154.961,88.87,152.359,82.168,148.723,76.999C143.518,69.585,133.751,62.633,125.053,60.102C119.278,58.427,114.501,58.106,109.332,58.997C105.411,59.674,103.735,60.245,99.101,62.419C92.435,65.521,90.046,65.485,83.024,62.205C80.742,61.136,77.534,59.924,75.894,59.532C72.472,58.676,66.091,58.32,63.025,58.819ZM63.025,58.819"/>
</g>
  <g id="Semibold-L" transform="matrix(1.0,0.0,0.0,1.0,1953.291616858057,1407.0620741363894)">  <path stroke-miterlimit="4" stroke-dasharray="none" stroke-opacity="1" stroke-linejoin="miter" version="1.0" stroke-linecap="butt" fill-opacity="1" stroke-width="1px" fill-rule="nonzero" preserveAspectRatio="xMidYMid meet" fill="#000000" stroke="none" d="M55.29,13.439L53.721,13.582L53.935,17.04C54.47,25.666,57.999,33.01,63.988,37.894C66.626,40.068,71.723,42.528,75.039,43.241C78.247,43.954,83.309,44.31,84.592,43.954L85.59,43.669L84.485,42.243C82.667,39.926,77.035,34.329,73.862,31.62C72.222,30.265,70.761,28.803,70.547,28.447C70.048,27.52,71.01,26.023,72.151,26.023C73.256,26.023,78.853,30.764,83.558,35.683C87.765,40.104,87.801,40.104,86.802,35.363C84.058,22.209,74.076,13.867,60.601,13.404C58.534,13.332,56.145,13.332,55.29,13.439ZM55.29,13.439"/>
  <path preserveAspectRatio="xMidYMid meet" stroke-opacity="1" fill="#000000" stroke-width="1px" version="1.0" stroke-linejoin="miter" stroke-linecap="butt" fill-opacity="1" fill-rule="nonzero" stroke="none" stroke-dasharray="none" stroke-miterlimit="4" d="M103.379,24.49C101.133,25.31,95.607,34.685,92.506,42.956C90.902,47.233,88.87,55.076,88.549,58.249L88.3,60.566L89.547,60.78C91.258,61.1,92.72,60.886,93.076,60.245C93.255,59.96,94.003,58.355,94.788,56.68C97.853,50.05,103.2,42.207,108.69,36.254C112.576,32.047,112.576,31.905,108.476,27.77C105.411,24.704,104.448,24.098,103.379,24.49ZM103.379,24.49"/>
  <path stroke-linejoin="miter" stroke-miterlimit="4" fill-opacity="1" fill-rule="nonzero" stroke-dasharray="none" stroke-linecap="butt" version="1.0" stroke-width="1px" stroke="none" preserveAspectRatio="xMidYMid meet" fill="#000000" stroke-opacity="1" d="M63.025,58.819C49.515,60.958,36.646,70.262,30.728,82.168C27.235,89.226,25.845,96.463,26.13,106.23C26.344,113.004,26.878,116.747,28.518,122.735C33.865,142.092,45.736,158.098,60.316,165.762C65.235,168.329,68.266,169.078,73.969,169.078C77.748,169.113,79.78,168.899,84.913,167.937L91.258,166.76L97.568,167.937C102.666,168.864,104.84,169.113,108.548,169.113C114.18,169.113,117.21,168.365,122.272,165.727C138.42,157.242,151.432,137.957,155.46,116.461C156.53,110.722,156.779,101.275,155.995,95.928C154.961,88.87,152.359,82.168,148.723,76.999C143.518,69.585,133.751,62.633,125.053,60.102C119.278,58.427,114.501,58.106,109.332,58.997C105.411,59.674,103.735,60.245,99.101,62.419C92.435,65.521,90.046,65.485,83.024,62.205C80.742,61.136,77.534,59.924,75.894,59.532C72.472,58.676,66.091,58.32,63.025,58.819ZM63.025,58.819"/>
</g>
  <g id="Medium-L" transform="matrix(1.0,0.0,0.0,1.0,1656.581616858057,1407.0620741363894)">  <path stroke-miterlimit="4" preserveAspectRatio="xMidYMid meet" stroke-linecap="butt" stroke="none" stroke-dasharray="none" fill-opacity="1" stroke-opacity="1" fill="#000000" fill-rule="nonzero" version="1.0" stroke-linejoin="miter" stroke-width="1px" d="M55.29,13.439L53.721,13.582L53.935,17.04C54.47,25.666,57.999,33.01,63.988,37.894C66.626,40.068,71.723,42.528,75.039,43.241C78.247,43.954,83.309,44.31,84.592,43.954L85.59,43.669L84.485,42.243C82.667,39.926,77.035,34.329,73.862,31.62C72.222,30.265,70.761,28.803,70.547,28.447C70.048,27.52,71.01,26.023,72.151,26.023C73.256,26.023,78.853,30.764,83.558,35.683C87.765,40.104,87.801,40.104,86.802,35.363C84.058,22.209,74.076,13.867,60.601,13.404C58.534,13.332,56.145,13.332,55.29,13.439ZM55.29,13.439"/>
  <path stroke-width="1px" fill="#000000" stroke-linecap="butt" stroke-miterlimit="4" stroke="none" fill-opacity="1" version="1.0" stroke-opacity="1" preserveAspectRatio="xMidYMid meet" fill-rule="nonzero" stroke-linejoin="miter" stroke-dasharray="none" d="M103.379,24.49C101.133,25.31,95.607,34.685,92.506,42.956C90.902,47.233,88.87,55.076,88.549,58.249L88.3,60.566L89.547,60.78C91.258,61.1,92.72,60.886,93.076,60.245C93.255,59.96,94.003,58.355,94.788,56.68C97.853,50.05,103.2,42.207,108.69,36.254C112.576,32.047,112.576,31.905,108.476,27.77C105.411,24.704,104.448,24.098,103.379,24.49ZM103.379,24.49"/>
  <path stroke-linecap="butt" fill-opacity="1" version="1.0" stroke-dasharray="none" stroke-opacity="1" stroke-linejoin="miter" fill="#000000" fill-rule="nonzero" stroke-miterlimit="4" stroke-width="1px" preserveAspectRatio="xMidYMid meet" stroke="none" d="M63.025,58.819C49.515,60.958,36.646,70.262,30.728,82.168C27.235,89.226,25.845,96.463,26.13,106.23C26.344,113.004,26.878,116.747,28.518,122.735C33.865,142.092,45.736,158.098,60.316,165.762C65.235,168.329,68.266,169.078,73.969,169.078C77.748,169.113,79.78,168.899,84.913,167.937L91.258,166.76L97.568,167.937C102.666,168.864,104.84,169.113,108.548,169.113C114.18,169.113,117.21,168.365,122.272,165.727C138.42,157.242,151.432,137.957,155.46,116.461C156.53,110.722,156.779,101.275,155.995,95.928C154.961,88.87,152.359,82.168,148.723,76.999C143.518,69.585,133.751,62.633,125.053,60.102C119.278,58.427,114.501,58.106,109.332,58.997C105.411,59.674,103.735,60.245,99.101,62.419C92.435,65.521,90.046,65.485,83.024,62.205C80.742,61.136,77.534,59.924,75.894,59.532C72.472,58.676,66.091,58.32,63.025,58.819ZM63.025,58.819"/>
</g>
  <g id="Regular-L" transform="matrix(1.0,0.0,0.0,1.0,1359.871616858057,1407.0620741363894)">  <path stroke-linejoin="miter" stroke-width="1px" stroke-dasharray="none" stroke-miterlimit="4" fill-rule="nonzero" stroke-opacity="1" fill="#000000" version="1.0" preserveAspectRatio="xMidYMid meet" stroke-linecap="butt" stroke="none" fill-opacity="1" d="M55.29,13.439L53.721,13.582L53.935,17.04C54.47,25.666,57.999,33.01,63.988,37.894C66.626,40.068,71.723,42.528,75.039,43.241C78.247,43.954,83.309,44.31,84.592,43.954L85.59,43.669L84.485,42.243C82.667,39.926,77.035,34.329,73.862,31.62C72.222,30.265,70.761,28.803,70.547,28.447C70.048,27.52,71.01,26.023,72.151,26.023C73.256,26.023,78.853,30.764,83.558,35.683C87.765,40.104,87.801,40.104,86.802,35.363C84.058,22.209,74.076,13.867,60.601,13.404C58.534,13.332,56.145,13.332,55.29,13.439ZM55.29,13.439"/>
  <path stroke-opacity="1" stroke-miterlimit="4" stroke-dasharray="none" fill-rule="nonzero" stroke-width="1px" preserveAspectRatio="xMidYMid meet" fill-opacity="1" version="1.0" fill="#000000" stroke="none" stroke-linejoin="miter" stroke-linecap="butt" d="M103.379,24.49C101.133,25.31,95.607,34.685,92.506,42.956C90.902,47.233,88.87,55.076,88.549,58.249L88.3,60.566L89.547,60.78C91.258,61.1,92.72,60.886,93.076,60.245C93.255,59.96,94.003,58.355,94.788,56.68C97.853,50.05,103.2,42.207,108.69,36.254C112.576,32.047,112.576,31.905,108.476,27.77C105.411,24.704,104.448,24.098,103.379,24.49ZM103.379,24.49"/>
  <path stroke-opacity="1" stroke-linejoin="miter" stroke-linecap="butt" stroke-width="1px" stroke-miterlimit="4" fill-opacity="1" fill-rule="nonzero" preserveAspectRatio="xMidYMid meet" stroke-dasharray="none" version="1.0" stroke="none" fill="#000000" d="M63.025,58.819C49.515,60.958,36.646,70.262,30.728,82.168C27.235,89.226,25.845,96.463,26.13,106.23C26.344,113.004,26.878,116.747,28.518,122.735C33.865,142.092,45.736,158.098,60.316,165.762C65.235,168.329,68.266,169.078,73.969,169.078C77.748,169.113,79.78,168.899,84.913,167.937L91.258,166.76L97.568,167.937C102.666,168.864,104.84,169.113,108.548,169.113C114.18,169.113,117.21,168.365,122.272,165.727C138.42,157.242,151.432,137.957,155.46,116.461C156.53,110.722,156.779,101.275,155.995,95.928C154.961,88.87,152.359,82.168,148.723,76.999C143.518,69.585,133.751,62.633,125.053,60.102C119.278,58.427,114.501,58.106,109.332,58.997C105.411,59.674,103.735,60.245,99.101,62.419C92.435,65.521,90.046,65.485,83.024,62.205C80.742,61.136,77.534,59.924,75.894,59.532C72.472,58.676,66.091,58.32,63.025,58.819ZM63.025,58.819"/>
</g>
  <g id="Light-L" transform="matrix(1.0,0.0,0.0,1.0,1063.1616168580572,1407.0620741363894)">  <path stroke-dasharray="none" fill-opacity="1" stroke-opacity="1" stroke-miterlimit="4" stroke-linecap="butt" stroke-linejoin="miter" fill-rule="nonzero" stroke="none" stroke-width="1px" fill="#000000" preserveAspectRatio="xMidYMid meet" version="1.0" d="M55.29,13.439L53.721,13.582L53.935,17.04C54.47,25.666,57.999,33.01,63.988,37.894C66.626,40.068,71.723,42.528,75.039,43.241C78.247,43.954,83.309,44.31,84.592,43.954L85.59,43.669L84.485,42.243C82.667,39.926,77.035,34.329,73.862,31.62C72.222,30.265,70.761,28.803,70.547,28.447C70.048,27.52,71.01,26.023,72.151,26.023C73.256,26.023,78.853,30.764,83.558,35.683C87.765,40.104,87.801,40.104,86.802,35.363C84.058,22.209,74.076,13.867,60.601,13.404C58.534,13.332,56.145,13.332,55.29,13.439ZM55.29,13.439"/>
  <path stroke-opacity="1" stroke-width="1px" version="1.0" stroke-linejoin="miter" stroke-miterlimit="4" fill-rule="nonzero" preserveAspectRatio="xMidYMid meet" fill="#000000" stroke-dasharray="none" stroke="none" fill-opacity="1" stroke-linecap="butt" d="M103.379,24.49C101.133,25.31,95.607,34.685,92.506,42.956C90.902,47.233,88.87,55.076,88.549,58.249L88.3,60.566L89.547,60.78C91.258,61.1,92.72,60.886,93.076,60.245C93.255,59.96,94.003,58.355,94.788,56.68C97.853,50.05,103.2,42.207,108.69,36.254C112.576,32.047,112.576,31.905,108.476,27.77C105.411,24.704,104.448,24.098,103.379,24.49ZM103.379,24.49"/>
  <path stroke-linejoin="miter" stroke-miterlimit="4" stroke-width="1px" stroke-opacity="1" stroke="none" fill-rule="nonzero" stroke-linecap="butt" stroke-dasharray="none" fill-opacity="1" version="1.0" preserveAspectRatio="xMidYMid meet" fill="#000000" d="M63.025,58.819C49.515,60.958,36.646,70.262,30.728,82.168C27.235,89.226,25.845,96.463,26.13,106.23C26.344,113.004,26.878,116.747,28.518,122.735C33.865,142.092,45.736,158.098,60.316,165.762C65.235,168.329,68.266,169.078,73.969,169.078C77.748,169.113,79.78,168.899,84.913,167.937L91.258,166.76L97.568,167.937C102.666,168.864,104.84,169.113,108.548,169.113C114.18,169.113,117.21,168.365,122.272,165.727C138.42,157.242,151.432,137.957,155.46,116.461C156.53,110.722,156.779,101.275,155.995,95.928C154.961,88.87,152.359,82.168,148.723,76.999C143.518,69.585,133.751,62.633,125.053,60.102C119.278,58.427,114.501,58.106,109.332,58.997C105.411,59.674,103.735,60.245,99.101,62.419C92.435,65.521,90.046,65.485,83.024,62.205C80.742,61.136,77.534,59.924,75.894,59.532C72.472,58.676,66.091,58.32,63.025,58.819ZM63.025,58.819"/>
</g>
  <g id="Thin-L" transform="matrix(1.0,0.0,0.0,1.0,766.4516168580573,1407.0620741363894)">  <path stroke="none" version="1.0" stroke-opacity="1" fill="#000000" preserveAspectRatio="xMidYMid meet" stroke-linejoin="miter" stroke-dasharray="none" stroke-linecap="butt" stroke-miterlimit="4" stroke-width="1px" fill-opacity="1" fill-rule="nonzero" d="M55.29,13.439L53.721,13.582L53.935,17.04C54.47,25.666,57.999,33.01,63.988,37.894C66.626,40.068,71.723,42.528,75.039,43.241C78.247,43.954,83.309,44.31,84.592,43.954L85.59,43.669L84.485,42.243C82.667,39.926,77.035,34.329,73.862,31.62C72.222,30.265,70.761,28.803,70.547,28.447C70.048,27.52,71.01,26.023,72.151,26.023C73.256,26.023,78.853,30.764,83.558,35.683C87.765,40.104,87.801,40.104,86.802,35.363C84.058,22.209,74.076,13.867,60.601,13.404C58.534,13.332,56.145,13.332,55.29,13.439ZM55.29,13.439"/>
  <path preserveAspectRatio="xMidYMid meet" stroke-miterlimit="4" stroke="none" version="1.0" stroke-width="1px" stroke-opacity="1" fill="#000000" fill-rule="nonzero" stroke-dasharray="none" fill-opacity="1" stroke-linejoin="miter" stroke-linecap="butt" d="M103.379,24.49C101.133,25.31,95.607,34.685,92.506,42.956C90.902,47.233,88.87,55.076,88.549,58.249L88.3,60.566L89.547,60.78C91.258,61.1,92.72,60.886,93.076,60.245C93.255,59.96,94.003,58.355,94.788,56.68C97.853,50.05,103.2,42.207,108.69,36.254C112.576,32.047,112.576,31.905,108.476,27.77C105.411,24.704,104.448,24.098,103.379,24.49ZM103.379,24.49"/>
  <path version="1.0" stroke-width="1px" stroke-miterlimit="4" stroke="none" stroke-opacity="1" stroke-linejoin="miter" fill-rule="nonzero" stroke-dasharray="none" fill="#000000" stroke-linecap="butt" preserveAspectRatio="xMidYMid meet" fill-opacity="1" d="M63.025,58.819C49.515,60.958,36.646,70.262,30.728,82.168C27.235,89.226,25.845,96.463,26.13,106.23C26.344,113.004,26.878,116.747,28.518,122.735C33.865,142.092,45.736,158.098,60.316,165.762C65.235,168.329,68.266,169.078,73.969,169.078C77.748,169.113,79.78,168.899,84.913,167.937L91.258,166.76L97.568,167.937C102.666,168.864,104.84,169.113,108.548,169.113C114.18,169.113,117.21,168.365,122.272,165.727C138.42,157.242,151.432,137.957,155.46,116.461C156.53,110.722,156.779,101.275,155.995,95.928C154.961,88.87,152.359,82.168,148.723,76.999C143.518,69.585,133.751,62.633,125.053,60.102C119.278,58.427,114.501,58.106,109.332,58.997C105.411,59.674,103.735,60.245,99.101,62.419C92.435,65.521,90.046,65.485,83.024,62.205C80.742,61.136,77.534,59.924,75.894,59.532C72.472,58.676,66.091,58.32,63.025,58.819ZM63.025,58.819"/>
</g>
  <g id="Ultralight-L" transform="matrix(1.0,0.0,0.0,1.0,469.7416168580572,1407.0620741363894)">  <path stroke-linejoin="miter" stroke-linecap="butt" stroke-opacity="1" stroke-miterlimit="4" fill-rule="nonzero" stroke="none" version="1.0" fill="#000000" preserveAspectRatio="xMidYMid meet" stroke-width="1px" fill-opacity="1" stroke-dasharray="none" d="M55.29,13.439L53.721,13.582L53.935,17.04C54.47,25.666,57.999,33.01,63.988,37.894C66.626,40.068,71.723,42.528,75.039,43.241C78.247,43.954,83.309,44.31,84.592,43.954L85.59,43.669L84.485,42.243C82.667,39.926,77.035,34.329,73.862,31.62C72.222,30.265,70.761,28.803,70.547,28.447C70.048,27.52,71.01,26.023,72.151,26.023C73.256,26.023,78.853,30.764,83.558,35.683C87.765,40.104,87.801,40.104,86.802,35.363C84.058,22.209,74.076,13.867,60.601,13.404C58.534,13.332,56.145,13.332,55.29,13.439ZM55.29,13.439"/>
  <path stroke="none" stroke-dasharray="none" stroke-linecap="butt" stroke-linejoin="miter" stroke-opacity="1" version="1.0" fill-rule="nonzero" stroke-miterlimit="4" stroke-width="1px" fill="#000000" fill-opacity="1" preserveAspectRatio="xMidYMid meet" d="M103.379,24.49C101.133,25.31,95.607,34.685,92.506,42.956C90.902,47.233,88.87,55.076,88.549,58.249L88.3,60.566L89.547,60.78C91.258,61.1,92.72,60.886,93.076,60.245C93.255,59.96,94.003,58.355,94.788,56.68C97.853,50.05,103.2,42.207,108.69,36.254C112.576,32.047,112.576,31.905,108.476,27.77C105.411,24.704,104.448,24.098,103.379,24.49ZM103.379,24.49"/>
  <path stroke-miterlimit="4" preserveAspectRatio="xMidYMid meet" version="1.0" stroke-linejoin="miter" fill-rule="nonzero" stroke-width="1px" stroke-dasharray="none" stroke-linecap="butt" stroke="none" stroke-opacity="1" fill="#000000" fill-opacity="1" d="M63.025,58.819C49.515,60.958,36.646,70.262,30.728,82.168C27.235,89.226,25.845,96.463,26.13,106.23C26.344,113.004,26.878,116.747,28.518,122.735C33.865,142.092,45.736,158.098,60.316,165.762C65.235,168.329,68.266,169.078,73.969,169.078C77.748,169.113,79.78,168.899,84.913,167.937L91.258,166.76L97.568,167.937C102.666,168.864,104.84,169.113,108.548,169.113C114.18,169.113,117.21,168.365,122.272,165.727C138.42,157.242,151.432,137.957,155.46,116.461C156.53,110.722,156.779,101.275,155.995,95.928C154.961,88.87,152.359,82.168,148.723,76.999C143.518,69.585,133.751,62.633,125.053,60.102C119.278,58.427,114.501,58.106,109.332,58.997C105.411,59.674,103.735,60.245,99.101,62.419C92.435,65.521,90.046,65.485,83.024,62.205C80.742,61.136,77.534,59.924,75.894,59.532C72.472,58.676,66.091,58.32,63.025,58.819ZM63.025,58.819"/>
</g>
  <g id="Black-M" transform="matrix(1.0,0.0,0.0,1.0,2863.937067331827,1002.6243254267068)">  <path stroke-miterlimit="4" fill-opacity="1" stroke="none" fill-rule="nonzero" preserveAspectRatio="xMidYMid meet" version="1.0" fill="#000000" stroke-width="1px" stroke-opacity="1" stroke-dasharray="none" stroke-linecap="butt" stroke-linejoin="miter" d="M42.86,10.418L41.644,10.529L41.81,13.209C42.225,19.896,44.96,25.589,49.603,29.375C51.648,31.061,55.6,32.967,58.169,33.52C60.657,34.073,64.581,34.349,65.575,34.073L66.349,33.852L65.492,32.746C64.083,30.95,59.717,26.611,57.258,24.511C55.986,23.461,54.853,22.328,54.688,22.052C54.301,21.333,55.047,20.173,55.931,20.173C56.788,20.173,61.126,23.848,64.774,27.662C68.035,31.088,68.062,31.088,67.289,27.413C65.161,17.216,57.423,10.75,46.978,10.39C45.375,10.335,43.523,10.335,42.86,10.418ZM42.86,10.418"/>
  <path preserveAspectRatio="xMidYMid meet" stroke-width="1px" fill-rule="nonzero" stroke-linecap="butt" version="1.0" stroke-opacity="1" stroke="none" fill="#000000" stroke-linejoin="miter" fill-opacity="1" stroke-dasharray="none" stroke-miterlimit="4" d="M80.138,18.985C78.398,19.62,74.114,26.888,71.71,33.299C70.467,36.615,68.891,42.694,68.643,45.154L68.449,46.95L69.417,47.116C70.743,47.365,71.876,47.199,72.152,46.701C72.29,46.48,72.871,45.237,73.479,43.938C75.855,38.798,80,32.719,84.256,28.104C87.268,24.843,87.268,24.732,84.09,21.527C81.714,19.15,80.967,18.681,80.138,18.985ZM80.138,18.985"/>
  <path fill="#000000" stroke-dasharray="none" stroke-linecap="butt" version="1.0" stroke-width="1px" fill-opacity="1" stroke="none" stroke-miterlimit="4" preserveAspectRatio="xMidYMid meet" stroke-opacity="1" stroke-linejoin="miter" fill-rule="nonzero" d="M48.857,45.596C38.384,47.254,28.408,54.467,23.82,63.696C21.112,69.168,20.035,74.777,20.256,82.349C20.421,87.6,20.836,90.501,22.107,95.144C26.252,110.149,35.454,122.557,46.757,128.498C50.57,130.488,52.919,131.068,57.34,131.068C60.27,131.095,61.845,130.93,65.824,130.184L70.743,129.272L75.634,130.184C79.586,130.902,81.271,131.095,84.145,131.095C88.512,131.095,90.86,130.515,94.784,128.47C107.303,121.893,117.389,106.943,120.512,90.28C121.341,85.831,121.534,78.508,120.926,74.363C120.125,68.891,118.108,63.696,115.289,59.689C111.254,53.941,103.683,48.553,96.94,46.591C92.463,45.292,88.76,45.043,84.753,45.734C81.714,46.259,80.415,46.701,76.822,48.387C71.655,50.791,69.803,50.764,64.359,48.221C62.591,47.392,60.104,46.453,58.833,46.149C56.18,45.485,51.233,45.209,48.857,45.596ZM48.857,45.596"/>
</g>
  <g id="Heavy-M" transform="matrix(1.0,0.0,0.0,1.0,2567.227067331827,1002.6243254267068)">  <path stroke-dasharray="none" fill-opacity="1" stroke="none" stroke-linejoin="miter" preserveAspectRatio="xMidYMid meet" fill="#000000" fill-rule="nonzero" stroke-opacity="1" stroke-linecap="butt" version="1.0" stroke-width="1px" stroke-miterlimit="4" d="M42.86,10.418L41.644,10.529L41.81,13.209C42.225,19.896,44.96,25.589,49.603,29.375C51.648,31.061,55.6,32.967,58.169,33.52C60.657,34.073,64.581,34.349,65.575,34.073L66.349,33.852L65.492,32.746C64.083,30.95,59.717,26.611,57.258,24.511C55.986,23.461,54.853,22.328,54.688,22.052C54.301,21.333,55.047,20.173,55.931,20.173C56.788,20.173,61.126,23.848,64.774,27.662C68.035,31.088,68.062,31.088,67.289,27.413C65.161,17.216,57.423,10.75,46.978,10.39C45.375,10.335,43.523,10.335,42.86,10.418ZM42.86,10.418"/>
  <path stroke-opacity="1" fill-opacity="1" stroke-dasharray="none" version="1.0" fill-rule="nonzero" stroke-miterlimit="4" stroke-linecap="butt" fill="#000000" stroke-linejoin="miter" stroke="none" stroke-width="1px" preserveAspectRatio="xMidYMid meet" d="M80.138,18.985C78.398,19.62,74.114,26.888,71.71,33.299C70.467,36.615,68.891,42.694,68.643,45.154L68.449,46.95L69.417,47.116C70.743,47.365,71.876,47.199,72.152,46.701C72.29,46.48,72.871,45.237,73.479,43.938C75.855,38.798,80,32.719,84.256,28.104C87.268,24.843,87.268,24.732,84.09,21.527C81.714,19.15,80.967,18.681,80.138,18.985ZM80.138,18.985"/>
  <path fill-opacity="1" version="1.0" fill-rule="nonzero" stroke-miterlimit="4" stroke-linejoin="miter" stroke-opacity="1" stroke="none" fill="#000000" stroke-width="1px" preserveAspectRatio="xMidYMid meet" stroke-linecap="butt" stroke-dasharray="none" d="M48.857,45.596C38.384,47.254,28.408,54.467,23.82,63.696C21.112,69.168,20.035,74.777,20.256,82.349C20.421,87.6,20.836,90.501,22.107,95.144C26.252,110.149,35.454,122.557,46.757,128.498C50.57,130.488,52.919,131.068,57.34,131.068C60.27,131.095,61.845,130.93,65.824,130.184L70.743,129.272L75.634,130.184C79.586,130.902,81.271,131.095,84.145,131.095C88.512,131.095,90.86,130.515,94.784,128.47C107.303,121.893,117.389,106.943,120.512,90.28C121.341,85.831,121.534,78.508,120.926,74.363C120.125,68.891,118.108,63.696,115.289,59.689C111.254,53.941,103.683,48.553,96.94,46.591C92.463,45.292,88.76,45.043,84.753,45.734C81.714,46.259,80.415,46.701,76.822,48.387C71.655,50.791,69.803,50.764,64.359,48.221C62.591,47.392,60.104,46.453,58.833,46.149C56.18,45.485,51.233,45.209,48.857,45.596ZM48.857,45.596"/>
</g>
  <g id="Bold-M" transform="matrix(1.0,0.0,0.0,1.0,2270.517067331827,1002.6243254267068)">  <path preserveAspectRatio="xMidYMid meet" stroke-dasharray="none" stroke-linejoin="miter" version="1.0" stroke-miterlimit="4" fill="#000000" stroke-width="1px" stroke-linecap="butt" stroke="none" fill-opacity="1" fill-rule="nonzero" stroke-opacity="1" d="M42.86,10.418L41.644,10.529L41.81,13.209C42.225,19.896,44.96,25.589,49.603,29.375C51.648,31.061,55.6,32.967,58.169,33.52C60.657,34.073,64.581,34.349,65.575,34.073L66.349,33.852L65.492,32.746C64.083,30.95,59.717,26.611,57.258,24.511C55.986,23.461,54.853,22.328,54.688,22.052C54.301,21.333,55.047,20.173,55.931,20.173C56.788,20.173,61.126,23.848,64.774,27.662C68.035,31.088,68.062,31.088,67.289,27.413C65.161,17.216,57.423,10.75,46.978,10.39C45.375,10.335,43.523,10.335,42.86,10.418ZM42.86,10.418"/>
  <path fill-rule="nonzero" stroke-opacity="1" stroke-linecap="butt" stroke-miterlimit="4" stroke-linejoin="miter" fill-opacity="1" version="1.0" preserveAspectRatio="xMidYMid meet" stroke-width="1px" stroke="none" fill="#000000" stroke-dasharray="none" d="M80.138,18.985C78.398,19.62,74.114,26.888,71.71,33.299C70.467,36.615,68.891,42.694,68.643,45.154L68.449,46.95L69.417,47.116C70.743,47.365,71.876,47.199,72.152,46.701C72.29,46.48,72.871,45.237,73.479,43.938C75.855,38.798,80,32.719,84.256,28.104C87.268,24.843,87.268,24.732,84.09,21.527C81.714,19.15,80.967,18.681,80.138,18.985ZM80.138,18.985"/>
  <path fill-rule="nonzero" preserveAspectRatio="xMidYMid meet" stroke-width="1px" stroke-opacity="1" fill="#000000" stroke-miterlimit="4" stroke-linejoin="miter" stroke="none" fill-opacity="1" version="1.0" stroke-linecap="butt" stroke-dasharray="none" d="M48.857,45.596C38.384,47.254,28.408,54.467,23.82,63.696C21.112,69.168,20.035,74.777,20.256,82.349C20.421,87.6,20.836,90.501,22.107,95.144C26.252,110.149,35.454,122.557,46.757,128.498C50.57,130.488,52.919,131.068,57.34,131.068C60.27,131.095,61.845,130.93,65.824,130.184L70.743,129.272L75.634,130.184C79.586,130.902,81.271,131.095,84.145,131.095C88.512,131.095,90.86,130.515,94.784,128.47C107.303,121.893,117.389,106.943,120.512,90.28C121.341,85.831,121.534,78.508,120.926,74.363C120.125,68.891,118.108,63.696,115.289,59.689C111.254,53.941,103.683,48.553,96.94,46.591C92.463,45.292,88.76,45.043,84.753,45.734C81.714,46.259,80.415,46.701,76.822,48.387C71.655,50.791,69.803,50.764,64.359,48.221C62.591,47.392,60.104,46.453,58.833,46.149C56.18,45.485,51.233,45.209,48.857,45.596ZM48.857,45.596"/>
</g>
  <g id="Semibold-M" transform="matrix(1.0,0.0,0.0,1.0,1973.8070673318273,1002.6243254267068)">  <path stroke-miterlimit="4" stroke-dasharray="none" stroke-opacity="1" stroke-linejoin="miter" version="1.0" stroke-linecap="butt" fill-opacity="1" stroke-width="1px" fill-rule="nonzero" preserveAspectRatio="xMidYMid meet" fill="#000000" stroke="none" d="M42.86,10.418L41.644,10.529L41.81,13.209C42.225,19.896,44.96,25.589,49.603,29.375C51.648,31.061,55.6,32.967,58.169,33.52C60.657,34.073,64.581,34.349,65.575,34.073L66.349,33.852L65.492,32.746C64.083,30.95,59.717,26.611,57.258,24.511C55.986,23.461,54.853,22.328,54.688,22.052C54.301,21.333,55.047,20.173,55.931,20.173C56.788,20.173,61.126,23.848,64.774,27.662C68.035,31.088,68.062,31.088,67.289,27.413C65.161,17.216,57.423,10.75,46.978,10.39C45.375,10.335,43.523,10.335,42.86,10.418ZM42.86,10.418"/>
  <path preserveAspectRatio="xMidYMid meet" stroke-opacity="1" fill="#000000" stroke-width="1px" version="1.0" stroke-linejoin="miter" stroke-linecap="butt" fill-opacity="1" fill-rule="nonzero" stroke="none" stroke-dasharray="none" stroke-miterlimit="4" d="M80.138,18.985C78.398,19.62,74.114,26.888,71.71,33.299C70.467,36.615,68.891,42.694,68.643,45.154L68.449,46.95L69.417,47.116C70.743,47.365,71.876,47.199,72.152,46.701C72.29,46.48,72.871,45.237,73.479,43.938C75.855,38.798,80,32.719,84.256,28.104C87.268,24.843,87.268,24.732,84.09,21.527C81.714,19.15,80.967,18.681,80.138,18.985ZM80.138,18.985"/>
  <path stroke-linejoin="miter" stroke-miterlimit="4" fill-opacity="1" fill-rule="nonzero" stroke-dasharray="none" stroke-linecap="butt" version="1.0" stroke-width="1px" stroke="none" preserveAspectRatio="xMidYMid meet" fill="#000000" stroke-opacity="1" d="M48.857,45.596C38.384,47.254,28.408,54.467,23.82,63.696C21.112,69.168,20.035,74.777,20.256,82.349C20.421,87.6,20.836,90.501,22.107,95.144C26.252,110.149,35.454,122.557,46.757,128.498C50.57,130.488,52.919,131.068,57.34,131.068C60.27,131.095,61.845,130.93,65.824,130.184L70.743,129.272L75.634,130.184C79.586,130.902,81.271,131.095,84.145,131.095C88.512,131.095,90.86,130.515,94.784,128.47C107.303,121.893,117.389,106.943,120.512,90.28C121.341,85.831,121.534,78.508,120.926,74.363C120.125,68.891,118.108,63.696,115.289,59.689C111.254,53.941,103.683,48.553,96.94,46.591C92.463,45.292,88.76,45.043,84.753,45.734C81.714,46.259,80.415,46.701,76.822,48.387C71.655,50.791,69.803,50.764,64.359,48.221C62.591,47.392,60.104,46.453,58.833,46.149C56.18,45.485,51.233,45.209,48.857,45.596ZM48.857,45.596"/>
</g>
  <g id="Medium-M" transform="matrix(1.0,0.0,0.0,1.0,1677.0970673318272,1002.6243254267068)">  <path stroke-miterlimit="4" preserveAspectRatio="xMidYMid meet" stroke-linecap="butt" stroke="none" stroke-dasharray="none" fill-opacity="1" stroke-opacity="1" fill="#000000" fill-rule="nonzero" version="1.0" stroke-linejoin="miter" stroke-width="1px" d="M42.86,10.418L41.644,10.529L41.81,13.209C42.225,19.896,44.96,25.589,49.603,29.375C51.648,31.061,55.6,32.967,58.169,33.52C60.657,34.073,64.581,34.349,65.575,34.073L66.349,33.852L65.492,32.746C64.083,30.95,59.717,26.611,57.258,24.511C55.986,23.461,54.853,22.328,54.688,22.052C54.301,21.333,55.047,20.173,55.931,20.173C56.788,20.173,61.126,23.848,64.774,27.662C68.035,31.088,68.062,31.088,67.289,27.413C65.161,17.216,57.423,10.75,46.978,10.39C45.375,10.335,43.523,10.335,42.86,10.418ZM42.86,10.418"/>
  <path stroke-width="1px" fill="#000000" stroke-linecap="butt" stroke-miterlimit="4" stroke="none" fill-opacity="1" version="1.0" stroke-opacity="1" preserveAspectRatio="xMidYMid meet" fill-rule="nonzero" stroke-linejoin="miter" stroke-dasharray="none" d="M80.138,18.985C78.398,19.62,74.114,26.888,71.71,33.299C70.467,36.615,68.891,42.694,68.643,45.154L68.449,46.95L69.417,47.116C70.743,47.365,71.876,47.199,72.152,46.701C72.29,46.48,72.871,45.237,73.479,43.938C75.855,38.798,80,32.719,84.256,28.104C87.268,24.843,87.268,24.732,84.09,21.527C81.714,19.15,80.967,18.681,80.138,18.985ZM80.138,18.985"/>
  <path stroke-linecap="butt" fill-opacity="1" version="1.0" stroke-dasharray="none" stroke-opacity="1" stroke-linejoin="miter" fill="#000000" fill-rule="nonzero" stroke-miterlimit="4" stroke-width="1px" preserveAspectRatio="xMidYMid meet" stroke="none" d="M48.857,45.596C38.384,47.254,28.408,54.467,23.82,63.696C21.112,69.168,20.035,74.777,20.256,82.349C20.421,87.6,20.836,90.501,22.107,95.144C26.252,110.149,35.454,122.557,46.757,128.498C50.57,130.488,52.919,131.068,57.34,131.068C60.27,131.095,61.845,130.93,65.824,130.184L70.743,129.272L75.634,130.184C79.586,130.902,81.271,131.095,84.145,131.095C88.512,131.095,90.86,130.515,94.784,128.47C107.303,121.893,117.389,106.943,120.512,90.28C121.341,85.831,121.534,78.508,120.926,74.363C120.125,68.891,118.108,63.696,115.289,59.689C111.254,53.941,103.683,48.553,96.94,46.591C92.463,45.292,88.76,45.043,84.753,45.734C81.714,46.259,80.415,46.701,76.822,48.387C71.655,50.791,69.803,50.764,64.359,48.221C62.591,47.392,60.104,46.453,58.833,46.149C56.18,45.485,51.233,45.209,48.857,45.596ZM48.857,45.596"/>
</g>
  <g id="Regular-M" transform="matrix(1.0,0.0,0.0,1.0,1380.3870673318272,1002.6243254267068)">  <path stroke-linejoin="miter" stroke-width="1px" stroke-dasharray="none" stroke-miterlimit="4" fill-rule="nonzero" stroke-opacity="1" fill="#000000" version="1.0" preserveAspectRatio="xMidYMid meet" stroke-linecap="butt" stroke="none" fill-opacity="1" d="M42.86,10.418L41.644,10.529L41.81,13.209C42.225,19.896,44.96,25.589,49.603,29.375C51.648,31.061,55.6,32.967,58.169,33.52C60.657,34.073,64.581,34.349,65.575,34.073L66.349,33.852L65.492,32.746C64.083,30.95,59.717,26.611,57.258,24.511C55.986,23.461,54.853,22.328,54.688,22.052C54.301,21.333,55.047,20.173,55.931,20.173C56.788,20.173,61.126,23.848,64.774,27.662C68.035,31.088,68.062,31.088,67.289,27.413C65.161,17.216,57.423,10.75,46.978,10.39C45.375,10.335,43.523,10.335,42.86,10.418ZM42.86,10.418"/>
  <path stroke-opacity="1" stroke-miterlimit="4" stroke-dasharray="none" fill-rule="nonzero" stroke-width="1px" preserveAspectRatio="xMidYMid meet" fill-opacity="1" version="1.0" fill="#000000" stroke="none" stroke-linejoin="miter" stroke-linecap="butt" d="M80.138,18.985C78.398,19.62,74.114,26.888,71.71,33.299C70.467,36.615,68.891,42.694,68.643,45.154L68.449,46.95L69.417,47.116C70.743,47.365,71.876,47.199,72.152,46.701C72.29,46.48,72.871,45.237,73.479,43.938C75.855,38.798,80,32.719,84.256,28.104C87.268,24.843,87.268,24.732,84.09,21.527C81.714,19.15,80.967,18.681,80.138,18.985ZM80.138,18.985"/>
  <path stroke-opacity="1" stroke-linejoin="miter" stroke-linecap="butt" stroke-width="1px" stroke-miterlimit="4" fill-opacity="1" fill-rule="nonzero" preserveAspectRatio="xMidYMid meet" stroke-dasharray="none" version="1.0" stroke="none" fill="#000000" d="M48.857,45.596C38.384,47.254,28.408,54.467,23.82,63.696C21.112,69.168,20.035,74.777,20.256,82.349C20.421,87.6,20.836,90.501,22.107,95.144C26.252,110.149,35.454,122.557,46.757,128.498C50.57,130.488,52.919,131.068,57.34,131.068C60.27,131.095,61.845,130.93,65.824,130.184L70.743,129.272L75.634,130.184C79.586,130.902,81.271,131.095,84.145,131.095C88.512,131.095,90.86,130.515,94.784,128.47C107.303,121.893,117.389,106.943,120.512,90.28C121.341,85.831,121.534,78.508,120.926,74.363C120.125,68.891,118.108,63.696,115.289,59.689C111.254,53.941,103.683,48.553,96.94,46.591C92.463,45.292,88.76,45.043,84.753,45.734C81.714,46.259,80.415,46.701,76.822,48.387C71.655,50.791,69.803,50.764,64.359,48.221C62.591,47.392,60.104,46.453,58.833,46.149C56.18,45.485,51.233,45.209,48.857,45.596ZM48.857,45.596"/>
</g>
  <g id="Light-M" transform="matrix(1.0,0.0,0.0,1.0,1083.6770673318274,1002.6243254267068)">  <path stroke-dasharray="none" fill-opacity="1" stroke-opacity="1" stroke-miterlimit="4" stroke-linecap="butt" stroke-linejoin="miter" fill-rule="nonzero" stroke="none" stroke-width="1px" fill="#000000" preserveAspectRatio="xMidYMid meet" version="1.0" d="M42.86,10.418L41.644,10.529L41.81,13.209C42.225,19.896,44.96,25.589,49.603,29.375C51.648,31.061,55.6,32.967,58.169,33.52C60.657,34.073,64.581,34.349,65.575,34.073L66.349,33.852L65.492,32.746C64.083,30.95,59.717,26.611,57.258,24.511C55.986,23.461,54.853,22.328,54.688,22.052C54.301,21.333,55.047,20.173,55.931,20.173C56.788,20.173,61.126,23.848,64.774,27.662C68.035,31.088,68.062,31.088,67.289,27.413C65.161,17.216,57.423,10.75,46.978,10.39C45.375,10.335,43.523,10.335,42.86,10.418ZM42.86,10.418"/>
  <path stroke-opacity="1" stroke-width="1px" version="1.0" stroke-linejoin="miter" stroke-miterlimit="4" fill-rule="nonzero" preserveAspectRatio="xMidYMid meet" fill="#000000" stroke-dasharray="none" stroke="none" fill-opacity="1" stroke-linecap="butt" d="M80.138,18.985C78.398,19.62,74.114,26.888,71.71,33.299C70.467,36.615,68.891,42.694,68.643,45.154L68.449,46.95L69.417,47.116C70.743,47.365,71.876,47.199,72.152,46.701C72.29,46.48,72.871,45.237,73.479,43.938C75.855,38.798,80,32.719,84.256,28.104C87.268,24.843,87.268,24.732,84.09,21.527C81.714,19.15,80.967,18.681,80.138,18.985ZM80.138,18.985"/>
  <path stroke-linejoin="miter" stroke-miterlimit="4" stroke-width="1px" stroke-opacity="1" stroke="none" fill-rule="nonzero" stroke-linecap="butt" stroke-dasharray="none" fill-opacity="1" version="1.0" preserveAspectRatio="xMidYMid meet" fill="#000000" d="M48.857,45.596C38.384,47.254,28.408,54.467,23.82,63.696C21.112,69.168,20.035,74.777,20.256,82.349C20.421,87.6,20.836,90.501,22.107,95.144C26.252,110.149,35.454,122.557,46.757,128.498C50.57,130.488,52.919,131.068,57.34,131.068C60.27,131.095,61.845,130.93,65.824,130.184L70.743,129.272L75.634,130.184C79.586,130.902,81.271,131.095,84.145,131.095C88.512,131.095,90.86,130.515,94.784,128.47C107.303,121.893,117.389,106.943,120.512,90.28C121.341,85.831,121.534,78.508,120.926,74.363C120.125,68.891,118.108,63.696,115.289,59.689C111.254,53.941,103.683,48.553,96.94,46.591C92.463,45.292,88.76,45.043,84.753,45.734C81.714,46.259,80.415,46.701,76.822,48.387C71.655,50.791,69.803,50.764,64.359,48.221C62.591,47.392,60.104,46.453,58.833,46.149C56.18,45.485,51.233,45.209,48.857,45.596ZM48.857,45.596"/>
</g>
  <g id="Thin-M" transform="matrix(1.0,0.0,0.0,1.0,786.9670673318274,1002.6243254267068)">  <path stroke="none" version="1.0" stroke-opacity="1" fill="#000000" preserveAspectRatio="xMidYMid meet" stroke-linejoin="miter" stroke-dasharray="none" stroke-linecap="butt" stroke-miterlimit="4" stroke-width="1px" fill-opacity="1" fill-rule="nonzero" d="M42.86,10.418L41.644,10.529L41.81,13.209C42.225,19.896,44.96,25.589,49.603,29.375C51.648,31.061,55.6,32.967,58.169,33.52C60.657,34.073,64.581,34.349,65.575,34.073L66.349,33.852L65.492,32.746C64.083,30.95,59.717,26.611,57.258,24.511C55.986,23.461,54.853,22.328,54.688,22.052C54.301,21.333,55.047,20.173,55.931,20.173C56.788,20.173,61.126,23.848,64.774,27.662C68.035,31.088,68.062,31.088,67.289,27.413C65.161,17.216,57.423,10.75,46.978,10.39C45.375,10.335,43.523,10.335,42.86,10.418ZM42.86,10.418"/>
  <path preserveAspectRatio="xMidYMid meet" stroke-miterlimit="4" stroke="none" version="1.0" stroke-width="1px" stroke-opacity="1" fill="#000000" fill-rule="nonzero" stroke-dasharray="none" fill-opacity="1" stroke-linejoin="miter" stroke-linecap="butt" d="M80.138,18.985C78.398,19.62,74.114,26.888,71.71,33.299C70.467,36.615,68.891,42.694,68.643,45.154L68.449,46.95L69.417,47.116C70.743,47.365,71.876,47.199,72.152,46.701C72.29,46.48,72.871,45.237,73.479,43.938C75.855,38.798,80,32.719,84.256,28.104C87.268,24.843,87.268,24.732,84.09,21.527C81.714,19.15,80.967,18.681,80.138,18.985ZM80.138,18.985"/>
  <path version="1.0" stroke-width="1px" stroke-miterlimit="4" stroke="none" stroke-opacity="1" stroke-linejoin="miter" fill-rule="nonzero" stroke-dasharray="none" fill="#000000" stroke-linecap="butt" preserveAspectRatio="xMidYMid meet" fill-opacity="1" d="M48.857,45.596C38.384,47.254,28.408,54.467,23.82,63.696C21.112,69.168,20.035,74.777,20.256,82.349C20.421,87.6,20.836,90.501,22.107,95.144C26.252,110.149,35.454,122.557,46.757,128.498C50.57,130.488,52.919,131.068,57.34,131.068C60.27,131.095,61.845,130.93,65.824,130.184L70.743,129.272L75.634,130.184C79.586,130.902,81.271,131.095,84.145,131.095C88.512,131.095,90.86,130.515,94.784,128.47C107.303,121.893,117.389,106.943,120.512,90.28C121.341,85.831,121.534,78.508,120.926,74.363C120.125,68.891,118.108,63.696,115.289,59.689C111.254,53.941,103.683,48.553,96.94,46.591C92.463,45.292,88.76,45.043,84.753,45.734C81.714,46.259,80.415,46.701,76.822,48.387C71.655,50.791,69.803,50.764,64.359,48.221C62.591,47.392,60.104,46.453,58.833,46.149C56.18,45.485,51.233,45.209,48.857,45.596ZM48.857,45.596"/>
</g>
  <g id="Ultralight-M" transform="matrix(1.0,0.0,0.0,1.0,490.25706733182733,1002.6243254267068)">  <path stroke-linejoin="miter" stroke-linecap="butt" stroke-opacity="1" stroke-miterlimit="4" fill-rule="nonzero" stroke="none" version="1.0" fill="#000000" preserveAspectRatio="xMidYMid meet" stroke-width="1px" fill-opacity="1" stroke-dasharray="none" d="M42.86,10.418L41.644,10.529L41.81,13.209C42.225,19.896,44.96,25.589,49.603,29.375C51.648,31.061,55.6,32.967,58.169,33.52C60.657,34.073,64.581,34.349,65.575,34.073L66.349,33.852L65.492,32.746C64.083,30.95,59.717,26.611,57.258,24.511C55.986,23.461,54.853,22.328,54.688,22.052C54.301,21.333,55.047,20.173,55.931,20.173C56.788,20.173,61.126,23.848,64.774,27.662C68.035,31.088,68.062,31.088,67.289,27.413C65.161,17.216,57.423,10.75,46.978,10.39C45.375,10.335,43.523,10.335,42.86,10.418ZM42.86,10.418"/>
  <path stroke="none" stroke-dasharray="none" stroke-linecap="butt" stroke-linejoin="miter" stroke-opacity="1" version="1.0" fill-rule="nonzero" stroke-miterlimit="4" stroke-width="1px" fill="#000000" fill-opacity="1" preserveAspectRatio="xMidYMid meet" d="M80.138,18.985C78.398,19.62,74.114,26.888,71.71,33.299C70.467,36.615,68.891,42.694,68.643,45.154L68.449,46.95L69.417,47.116C70.743,47.365,71.876,47.199,72.152,46.701C72.29,46.48,72.871,45.237,73.479,43.938C75.855,38.798,80,32.719,84.256,28.104C87.268,24.843,87.268,24.732,84.09,21.527C81.714,19.15,80.967,18.681,80.138,18.985ZM80.138,18.985"/>
  <path stroke-miterlimit="4" preserveAspectRatio="xMidYMid meet" version="1.0" stroke-linejoin="miter" fill-rule="nonzero" stroke-width="1px" stroke-dasharray="none" stroke-linecap="butt" stroke="none" stroke-opacity="1" fill="#000000" fill-opacity="1" d="M48.857,45.596C38.384,47.254,28.408,54.467,23.82,63.696C21.112,69.168,20.035,74.777,20.256,82.349C20.421,87.6,20.836,90.501,22.107,95.144C26.252,110.149,35.454,122.557,46.757,128.498C50.57,130.488,52.919,131.068,57.34,131.068C60.27,131.095,61.845,130.93,65.824,130.184L70.743,129.272L75.634,130.184C79.586,130.902,81.271,131.095,84.145,131.095C88.512,131.095,90.86,130.515,94.784,128.47C107.303,121.893,117.389,106.943,120.512,90.28C121.341,85.831,121.534,78.508,120.926,74.363C120.125,68.891,118.108,63.696,115.289,59.689C111.254,53.941,103.683,48.553,96.94,46.591C92.463,45.292,88.76,45.043,84.753,45.734C81.714,46.259,80.415,46.701,76.822,48.387C71.655,50.791,69.803,50.764,64.359,48.221C62.591,47.392,60.104,46.453,58.833,46.149C56.18,45.485,51.233,45.209,48.857,45.596ZM48.857,45.596"/>
</g>
  <g id="Black-S" transform="matrix(1.0,0.0,0.0,1.0,2879.288283720821,591.7519410473926)">  <path stroke-miterlimit="4" fill-opacity="1" stroke="none" fill-rule="nonzero" preserveAspectRatio="xMidYMid meet" version="1.0" fill="#000000" stroke-width="1px" stroke-opacity="1" stroke-dasharray="none" stroke-linecap="butt" stroke-linejoin="miter" d="M33.56,8.157L32.608,8.244L32.737,10.343C33.062,15.579,35.204,20.036,38.839,23.001C40.44,24.32,43.534,25.813,45.547,26.246C47.494,26.679,50.567,26.895,51.346,26.679L51.951,26.506L51.281,25.64C50.177,24.234,46.758,20.837,44.833,19.192C43.837,18.37,42.95,17.483,42.82,17.267C42.517,16.704,43.102,15.795,43.794,15.795C44.465,15.795,47.862,18.673,50.718,21.659C53.271,24.342,53.293,24.342,52.687,21.464C51.021,13.48,44.962,8.417,36.784,8.136C35.529,8.092,34.079,8.092,33.56,8.157ZM33.56,8.157"/>
  <path preserveAspectRatio="xMidYMid meet" stroke-width="1px" fill-rule="nonzero" stroke-linecap="butt" version="1.0" stroke-opacity="1" stroke="none" fill="#000000" stroke-linejoin="miter" fill-opacity="1" stroke-dasharray="none" stroke-miterlimit="4" d="M62.748,14.865C61.385,15.363,58.031,21.053,56.149,26.073C55.175,28.67,53.942,33.43,53.747,35.355L53.596,36.762L54.353,36.892C55.392,37.086,56.279,36.957,56.495,36.567C56.603,36.394,57.058,35.42,57.534,34.403C59.395,30.379,62.64,25.619,65.972,22.005C68.331,19.452,68.331,19.365,65.843,16.856C63.982,14.995,63.398,14.627,62.748,14.865ZM62.748,14.865"/>
  <path fill="#000000" stroke-dasharray="none" stroke-linecap="butt" version="1.0" stroke-width="1px" fill-opacity="1" stroke="none" stroke-miterlimit="4" preserveAspectRatio="xMidYMid meet" stroke-opacity="1" stroke-linejoin="miter" fill-rule="nonzero" d="M38.255,35.702C30.054,37,22.243,42.647,18.651,49.874C16.531,54.158,15.687,58.551,15.86,64.479C15.99,68.591,16.315,70.862,17.31,74.498C20.556,86.247,27.761,95.962,36.61,100.614C39.596,102.172,41.436,102.626,44.898,102.626C47.191,102.648,48.424,102.518,51.54,101.934L55.392,101.22L59.222,101.934C62.316,102.496,63.636,102.648,65.886,102.648C69.305,102.648,71.144,102.193,74.216,100.592C84.018,95.443,91.916,83.737,94.361,70.689C95.01,67.206,95.161,61.472,94.685,58.226C94.058,53.942,92.478,49.874,90.271,46.737C87.112,42.236,81.183,38.017,75.904,36.481C72.399,35.464,69.499,35.269,66.362,35.81C63.982,36.221,62.965,36.567,60.152,37.887C56.106,39.77,54.656,39.748,50.393,37.757C49.009,37.108,47.061,36.372,46.066,36.134C43.989,35.615,40.116,35.399,38.255,35.702ZM38.255,35.702"/>
</g>
  <g id="Heavy-S" transform="matrix(1.0,0.0,0.0,1.0,2582.5782837208208,591.7519410473926)">  <path stroke-dasharray="none" fill-opacity="1" stroke="none" stroke-linejoin="miter" preserveAspectRatio="xMidYMid meet" fill="#000000" fill-rule="nonzero" stroke-opacity="1" stroke-linecap="butt" version="1.0" stroke-width="1px" stroke-miterlimit="4" d="M33.56,8.157L32.608,8.244L32.737,10.343C33.062,15.579,35.204,20.036,38.839,23.001C40.44,24.32,43.534,25.813,45.547,26.246C47.494,26.679,50.567,26.895,51.346,26.679L51.951,26.506L51.281,25.64C50.177,24.234,46.758,20.837,44.833,19.192C43.837,18.37,42.95,17.483,42.82,17.267C42.517,16.704,43.102,15.795,43.794,15.795C44.465,15.795,47.862,18.673,50.718,21.659C53.271,24.342,53.293,24.342,52.687,21.464C51.021,13.48,44.962,8.417,36.784,8.136C35.529,8.092,34.079,8.092,33.56,8.157ZM33.56,8.157"/>
  <path stroke-opacity="1" fill-opacity="1" stroke-dasharray="none" version="1.0" fill-rule="nonzero" stroke-miterlimit="4" stroke-linecap="butt" fill="#000000" stroke-linejoin="miter" stroke="none" stroke-width="1px" preserveAspectRatio="xMidYMid meet" d="M62.748,14.865C61.385,15.363,58.031,21.053,56.149,26.073C55.175,28.67,53.942,33.43,53.747,35.355L53.596,36.762L54.353,36.892C55.392,37.086,56.279,36.957,56.495,36.567C56.603,36.394,57.058,35.42,57.534,34.403C59.395,30.379,62.64,25.619,65.972,22.005C68.331,19.452,68.331,19.365,65.843,16.856C63.982,14.995,63.398,14.627,62.748,14.865ZM62.748,14.865"/>
  <path fill-opacity="1" version="1.0" fill-rule="nonzero" stroke-miterlimit="4" stroke-linejoin="miter" stroke-opacity="1" stroke="none" fill="#000000" stroke-width="1px" preserveAspectRatio="xMidYMid meet" stroke-linecap="butt" stroke-dasharray="none" d="M38.255,35.702C30.054,37,22.243,42.647,18.651,49.874C16.531,54.158,15.687,58.551,15.86,64.479C15.99,68.591,16.315,70.862,17.31,74.498C20.556,86.247,27.761,95.962,36.61,100.614C39.596,102.172,41.436,102.626,44.898,102.626C47.191,102.648,48.424,102.518,51.54,101.934L55.392,101.22L59.222,101.934C62.316,102.496,63.636,102.648,65.886,102.648C69.305,102.648,71.144,102.193,74.216,100.592C84.018,95.443,91.916,83.737,94.361,70.689C95.01,67.206,95.161,61.472,94.685,58.226C94.058,53.942,92.478,49.874,90.271,46.737C87.112,42.236,81.183,38.017,75.904,36.481C72.399,35.464,69.499,35.269,66.362,35.81C63.982,36.221,62.965,36.567,60.152,37.887C56.106,39.77,54.656,39.748,50.393,37.757C49.009,37.108,47.061,36.372,46.066,36.134C43.989,35.615,40.116,35.399,38.255,35.702ZM38.255,35.702"/>
</g>
  <g id="Bold-S" transform="matrix(1.0,0.0,0.0,1.0,2285.8682837208207,591.7519410473926)">  <path preserveAspectRatio="xMidYMid meet" stroke-dasharray="none" stroke-linejoin="miter" version="1.0" stroke-miterlimit="4" fill="#000000" stroke-width="1px" stroke-linecap="butt" stroke="none" fill-opacity="1" fill-rule="nonzero" stroke-opacity="1" d="M33.56,8.157L32.608,8.244L32.737,10.343C33.062,15.579,35.204,20.036,38.839,23.001C40.44,24.32,43.534,25.813,45.547,26.246C47.494,26.679,50.567,26.895,51.346,26.679L51.951,26.506L51.281,25.64C50.177,24.234,46.758,20.837,44.833,19.192C43.837,18.37,42.95,17.483,42.82,17.267C42.517,16.704,43.102,15.795,43.794,15.795C44.465,15.795,47.862,18.673,50.718,21.659C53.271,24.342,53.293,24.342,52.687,21.464C51.021,13.48,44.962,8.417,36.784,8.136C35.529,8.092,34.079,8.092,33.56,8.157ZM33.56,8.157"/>
  <path fill-rule="nonzero" stroke-opacity="1" stroke-linecap="butt" stroke-miterlimit="4" stroke-linejoin="miter" fill-opacity="1" version="1.0" preserveAspectRatio="xMidYMid meet" stroke-width="1px" stroke="none" fill="#000000" stroke-dasharray="none" d="M62.748,14.865C61.385,15.363,58.031,21.053,56.149,26.073C55.175,28.67,53.942,33.43,53.747,35.355L53.596,36.762L54.353,36.892C55.392,37.086,56.279,36.957,56.495,36.567C56.603,36.394,57.058,35.42,57.534,34.403C59.395,30.379,62.64,25.619,65.972,22.005C68.331,19.452,68.331,19.365,65.843,16.856C63.982,14.995,63.398,14.627,62.748,14.865ZM62.748,14.865"/>
  <path fill-rule="nonzero" preserveAspectRatio="xMidYMid meet" stroke-width="1px" stroke-opacity="1" fill="#000000" stroke-miterlimit="4" stroke-linejoin="miter" stroke="none" fill-opacity="1" version="1.0" stroke-linecap="butt" stroke-dasharray="none" d="M38.255,35.702C30.054,37,22.243,42.647,18.651,49.874C16.531,54.158,15.687,58.551,15.86,64.479C15.99,68.591,16.315,70.862,17.31,74.498C20.556,86.247,27.761,95.962,36.61,100.614C39.596,102.172,41.436,102.626,44.898,102.626C47.191,102.648,48.424,102.518,51.54,101.934L55.392,101.22L59.222,101.934C62.316,102.496,63.636,102.648,65.886,102.648C69.305,102.648,71.144,102.193,74.216,100.592C84.018,95.443,91.916,83.737,94.361,70.689C95.01,67.206,95.161,61.472,94.685,58.226C94.058,53.942,92.478,49.874,90.271,46.737C87.112,42.236,81.183,38.017,75.904,36.481C72.399,35.464,69.499,35.269,66.362,35.81C63.982,36.221,62.965,36.567,60.152,37.887C56.106,39.77,54.656,39.748,50.393,37.757C49.009,37.108,47.061,36.372,46.066,36.134C43.989,35.615,40.116,35.399,38.255,35.702ZM38.255,35.702"/>
</g>
  <g id="Semibold-S" transform="matrix(1.0,0.0,0.0,1.0,1989.1582837208207,591.7519410473926)">  <path stroke-miterlimit="4" stroke-dasharray="none" stroke-opacity="1" stroke-linejoin="miter" version="1.0" stroke-linecap="butt" fill-opacity="1" stroke-width="1px" fill-rule="nonzero" preserveAspectRatio="xMidYMid meet" fill="#000000" stroke="none" d="M33.56,8.157L32.608,8.244L32.737,10.343C33.062,15.579,35.204,20.036,38.839,23.001C40.44,24.32,43.534,25.813,45.547,26.246C47.494,26.679,50.567,26.895,51.346,26.679L51.951,26.506L51.281,25.64C50.177,24.234,46.758,20.837,44.833,19.192C43.837,18.37,42.95,17.483,42.82,17.267C42.517,16.704,43.102,15.795,43.794,15.795C44.465,15.795,47.862,18.673,50.718,21.659C53.271,24.342,53.293,24.342,52.687,21.464C51.021,13.48,44.962,8.417,36.784,8.136C35.529,8.092,34.079,8.092,33.56,8.157ZM33.56,8.157"/>
  <path preserveAspectRatio="xMidYMid meet" stroke-opacity="1" fill="#000000" stroke-width="1px" version="1.0" stroke-linejoin="miter" stroke-linecap="butt" fill-opacity="1" fill-rule="nonzero" stroke="none" stroke-dasharray="none" stroke-miterlimit="4" d="M62.748,14.865C61.385,15.363,58.031,21.053,56.149,26.073C55.175,28.67,53.942,33.43,53.747,35.355L53.596,36.762L54.353,36.892C55.392,37.086,56.279,36.957,56.495,36.567C56.603,36.394,57.058,35.42,57.534,34.403C59.395,30.379,62.64,25.619,65.972,22.005C68.331,19.452,68.331,19.365,65.843,16.856C63.982,14.995,63.398,14.627,62.748,14.865ZM62.748,14.865"/>
  <path stroke-linejoin="miter" stroke-miterlimit="4" fill-opacity="1" fill-rule="nonzero" stroke-dasharray="none" stroke-linecap="butt" version="1.0" stroke-width="1px" stroke="none" preserveAspectRatio="xMidYMid meet" fill="#000000" stroke-opacity="1" d="M38.255,35.702C30.054,37,22.243,42.647,18.651,49.874C16.531,54.158,15.687,58.551,15.86,64.479C15.99,68.591,16.315,70.862,17.31,74.498C20.556,86.247,27.761,95.962,36.61,100.614C39.596,102.172,41.436,102.626,44.898,102.626C47.191,102.648,48.424,102.518,51.54,101.934L55.392,101.22L59.222,101.934C62.316,102.496,63.636,102.648,65.886,102.648C69.305,102.648,71.144,102.193,74.216,100.592C84.018,95.443,91.916,83.737,94.361,70.689C95.01,67.206,95.161,61.472,94.685,58.226C94.058,53.942,92.478,49.874,90.271,46.737C87.112,42.236,81.183,38.017,75.904,36.481C72.399,35.464,69.499,35.269,66.362,35.81C63.982,36.221,62.965,36.567,60.152,37.887C56.106,39.77,54.656,39.748,50.393,37.757C49.009,37.108,47.061,36.372,46.066,36.134C43.989,35.615,40.116,35.399,38.255,35.702ZM38.255,35.702"/>
</g>
  <g id="Medium-S" transform="matrix(1.0,0.0,0.0,1.0,1692.4482837208207,591.7519410473926)">  <path stroke-miterlimit="4" preserveAspectRatio="xMidYMid meet" stroke-linecap="butt" stroke="none" stroke-dasharray="none" fill-opacity="1" stroke-opacity="1" fill="#000000" fill-rule="nonzero" version="1.0" stroke-linejoin="miter" stroke-width="1px" d="M33.56,8.157L32.608,8.244L32.737,10.343C33.062,15.579,35.204,20.036,38.839,23.001C40.44,24.32,43.534,25.813,45.547,26.246C47.494,26.679,50.567,26.895,51.346,26.679L51.951,26.506L51.281,25.64C50.177,24.234,46.758,20.837,44.833,19.192C43.837,18.37,42.95,17.483,42.82,17.267C42.517,16.704,43.102,15.795,43.794,15.795C44.465,15.795,47.862,18.673,50.718,21.659C53.271,24.342,53.293,24.342,52.687,21.464C51.021,13.48,44.962,8.417,36.784,8.136C35.529,8.092,34.079,8.092,33.56,8.157ZM33.56,8.157"/>
  <path stroke-width="1px" fill="#000000" stroke-linecap="butt" stroke-miterlimit="4" stroke="none" fill-opacity="1" version="1.0" stroke-opacity="1" preserveAspectRatio="xMidYMid meet" fill-rule="nonzero" stroke-linejoin="miter" stroke-dasharray="none" d="M62.748,14.865C61.385,15.363,58.031,21.053,56.149,26.073C55.175,28.67,53.942,33.43,53.747,35.355L53.596,36.762L54.353,36.892C55.392,37.086,56.279,36.957,56.495,36.567C56.603,36.394,57.058,35.42,57.534,34.403C59.395,30.379,62.64,25.619,65.972,22.005C68.331,19.452,68.331,19.365,65.843,16.856C63.982,14.995,63.398,14.627,62.748,14.865ZM62.748,14.865"/>
  <path stroke-linecap="butt" fill-opacity="1" version="1.0" stroke-dasharray="none" stroke-opacity="1" stroke-linejoin="miter" fill="#000000" fill-rule="nonzero" stroke-miterlimit="4" stroke-width="1px" preserveAspectRatio="xMidYMid meet" stroke="none" d="M38.255,35.702C30.054,37,22.243,42.647,18.651,49.874C16.531,54.158,15.687,58.551,15.86,64.479C15.99,68.591,16.315,70.862,17.31,74.498C20.556,86.247,27.761,95.962,36.61,100.614C39.596,102.172,41.436,102.626,44.898,102.626C47.191,102.648,48.424,102.518,51.54,101.934L55.392,101.22L59.222,101.934C62.316,102.496,63.636,102.648,65.886,102.648C69.305,102.648,71.144,102.193,74.216,100.592C84.018,95.443,91.916,83.737,94.361,70.689C95.01,67.206,95.161,61.472,94.685,58.226C94.058,53.942,92.478,49.874,90.271,46.737C87.112,42.236,81.183,38.017,75.904,36.481C72.399,35.464,69.499,35.269,66.362,35.81C63.982,36.221,62.965,36.567,60.152,37.887C56.106,39.77,54.656,39.748,50.393,37.757C49.009,37.108,47.061,36.372,46.066,36.134C43.989,35.615,40.116,35.399,38.255,35.702ZM38.255,35.702"/>
</g>
  <g id="Regular-S" transform="matrix(1.0,0.0,0.0,1.0,1395.7382837208206,591.7519410473926)">  <path stroke-linejoin="miter" stroke-width="1px" stroke-dasharray="none" stroke-miterlimit="4" fill-rule="nonzero" stroke-opacity="1" fill="#000000" version="1.0" preserveAspectRatio="xMidYMid meet" stroke-linecap="butt" stroke="none" fill-opacity="1" d="M33.56,8.157L32.608,8.244L32.737,10.343C33.062,15.579,35.204,20.036,38.839,23.001C40.44,24.32,43.534,25.813,45.547,26.246C47.494,26.679,50.567,26.895,51.346,26.679L51.951,26.506L51.281,25.64C50.177,24.234,46.758,20.837,44.833,19.192C43.837,18.37,42.95,17.483,42.82,17.267C42.517,16.704,43.102,15.795,43.794,15.795C44.465,15.795,47.862,18.673,50.718,21.659C53.271,24.342,53.293,24.342,52.687,21.464C51.021,13.48,44.962,8.417,36.784,8.136C35.529,8.092,34.079,8.092,33.56,8.157ZM33.56,8.157"/>
  <path stroke-opacity="1" stroke-miterlimit="4" stroke-dasharray="none" fill-rule="nonzero" stroke-width="1px" preserveAspectRatio="xMidYMid meet" fill-opacity="1" version="1.0" fill="#000000" stroke="none" stroke-linejoin="miter" stroke-linecap="butt" d="M62.748,14.865C61.385,15.363,58.031,21.053,56.149,26.073C55.175,28.67,53.942,33.43,53.747,35.355L53.596,36.762L54.353,36.892C55.392,37.086,56.279,36.957,56.495,36.567C56.603,36.394,57.058,35.42,57.534,34.403C59.395,30.379,62.64,25.619,65.972,22.005C68.331,19.452,68.331,19.365,65.843,16.856C63.982,14.995,63.398,14.627,62.748,14.865ZM62.748,14.865"/>
  <path stroke-opacity="1" stroke-linejoin="miter" stroke-linecap="butt" stroke-width="1px" stroke-miterlimit="4" fill-opacity="1" fill-rule="nonzero" preserveAspectRatio="xMidYMid meet" stroke-dasharray="none" version="1.0" stroke="none" fill="#000000" d="M38.255,35.702C30.054,37,22.243,42.647,18.651,49.874C16.531,54.158,15.687,58.551,15.86,64.479C15.99,68.591,16.315,70.862,17.31,74.498C20.556,86.247,27.761,95.962,36.61,100.614C39.596,102.172,41.436,102.626,44.898,102.626C47.191,102.648,48.424,102.518,51.54,101.934L55.392,101.22L59.222,101.934C62.316,102.496,63.636,102.648,65.886,102.648C69.305,102.648,71.144,102.193,74.216,100.592C84.018,95.443,91.916,83.737,94.361,70.689C95.01,67.206,95.161,61.472,94.685,58.226C94.058,53.942,92.478,49.874,90.271,46.737C87.112,42.236,81.183,38.017,75.904,36.481C72.399,35.464,69.499,35.269,66.362,35.81C63.982,36.221,62.965,36.567,60.152,37.887C56.106,39.77,54.656,39.748,50.393,37.757C49.009,37.108,47.061,36.372,46.066,36.134C43.989,35.615,40.116,35.399,38.255,35.702ZM38.255,35.702"/>
</g>
  <g id="Light-S" transform="matrix(1.0,0.0,0.0,1.0,1099.0282837208208,591.7519410473926)">  <path stroke-dasharray="none" fill-opacity="1" stroke-opacity="1" stroke-miterlimit="4" stroke-linecap="butt" stroke-linejoin="miter" fill-rule="nonzero" stroke="none" stroke-width="1px" fill="#000000" preserveAspectRatio="xMidYMid meet" version="1.0" d="M33.56,8.157L32.608,8.244L32.737,10.343C33.062,15.579,35.204,20.036,38.839,23.001C40.44,24.32,43.534,25.813,45.547,26.246C47.494,26.679,50.567,26.895,51.346,26.679L51.951,26.506L51.281,25.64C50.177,24.234,46.758,20.837,44.833,19.192C43.837,18.37,42.95,17.483,42.82,17.267C42.517,16.704,43.102,15.795,43.794,15.795C44.465,15.795,47.862,18.673,50.718,21.659C53.271,24.342,53.293,24.342,52.687,21.464C51.021,13.48,44.962,8.417,36.784,8.136C35.529,8.092,34.079,8.092,33.56,8.157ZM33.56,8.157"/>
  <path stroke-opacity="1" stroke-width="1px" version="1.0" stroke-linejoin="miter" stroke-miterlimit="4" fill-rule="nonzero" preserveAspectRatio="xMidYMid meet" fill="#000000" stroke-dasharray="none" stroke="none" fill-opacity="1" stroke-linecap="butt" d="M62.748,14.865C61.385,15.363,58.031,21.053,56.149,26.073C55.175,28.67,53.942,33.43,53.747,35.355L53.596,36.762L54.353,36.892C55.392,37.086,56.279,36.957,56.495,36.567C56.603,36.394,57.058,35.42,57.534,34.403C59.395,30.379,62.64,25.619,65.972,22.005C68.331,19.452,68.331,19.365,65.843,16.856C63.982,14.995,63.398,14.627,62.748,14.865ZM62.748,14.865"/>
  <path stroke-linejoin="miter" stroke-miterlimit="4" stroke-width="1px" stroke-opacity="1" stroke="none" fill-rule="nonzero" stroke-linecap="butt" stroke-dasharray="none" fill-opacity="1" version="1.0" preserveAspectRatio="xMidYMid meet" fill="#000000" d="M38.255,35.702C30.054,37,22.243,42.647,18.651,49.874C16.531,54.158,15.687,58.551,15.86,64.479C15.99,68.591,16.315,70.862,17.31,74.498C20.556,86.247,27.761,95.962,36.61,100.614C39.596,102.172,41.436,102.626,44.898,102.626C47.191,102.648,48.424,102.518,51.54,101.934L55.392,101.22L59.222,101.934C62.316,102.496,63.636,102.648,65.886,102.648C69.305,102.648,71.144,102.193,74.216,100.592C84.018,95.443,91.916,83.737,94.361,70.689C95.01,67.206,95.161,61.472,94.685,58.226C94.058,53.942,92.478,49.874,90.271,46.737C87.112,42.236,81.183,38.017,75.904,36.481C72.399,35.464,69.499,35.269,66.362,35.81C63.982,36.221,62.965,36.567,60.152,37.887C56.106,39.77,54.656,39.748,50.393,37.757C49.009,37.108,47.061,36.372,46.066,36.134C43.989,35.615,40.116,35.399,38.255,35.702ZM38.255,35.702"/>
</g>
  <g id="Thin-S" transform="matrix(1.0,0.0,0.0,1.0,802.3182837208208,591.7519410473926)">  <path stroke="none" version="1.0" stroke-opacity="1" fill="#000000" preserveAspectRatio="xMidYMid meet" stroke-linejoin="miter" stroke-dasharray="none" stroke-linecap="butt" stroke-miterlimit="4" stroke-width="1px" fill-opacity="1" fill-rule="nonzero" d="M33.56,8.157L32.608,8.244L32.737,10.343C33.062,15.579,35.204,20.036,38.839,23.001C40.44,24.32,43.534,25.813,45.547,26.246C47.494,26.679,50.567,26.895,51.346,26.679L51.951,26.506L51.281,25.64C50.177,24.234,46.758,20.837,44.833,19.192C43.837,18.37,42.95,17.483,42.82,17.267C42.517,16.704,43.102,15.795,43.794,15.795C44.465,15.795,47.862,18.673,50.718,21.659C53.271,24.342,53.293,24.342,52.687,21.464C51.021,13.48,44.962,8.417,36.784,8.136C35.529,8.092,34.079,8.092,33.56,8.157ZM33.56,8.157"/>
  <path preserveAspectRatio="xMidYMid meet" stroke-miterlimit="4" stroke="none" version="1.0" stroke-width="1px" stroke-opacity="1" fill="#000000" fill-rule="nonzero" stroke-dasharray="none" fill-opacity="1" stroke-linejoin="miter" stroke-linecap="butt" d="M62.748,14.865C61.385,15.363,58.031,21.053,56.149,26.073C55.175,28.67,53.942,33.43,53.747,35.355L53.596,36.762L54.353,36.892C55.392,37.086,56.279,36.957,56.495,36.567C56.603,36.394,57.058,35.42,57.534,34.403C59.395,30.379,62.64,25.619,65.972,22.005C68.331,19.452,68.331,19.365,65.843,16.856C63.982,14.995,63.398,14.627,62.748,14.865ZM62.748,14.865"/>
  <path version="1.0" stroke-width="1px" stroke-miterlimit="4" stroke="none" stroke-opacity="1" stroke-linejoin="miter" fill-rule="nonzero" stroke-dasharray="none" fill="#000000" stroke-linecap="butt" preserveAspectRatio="xMidYMid meet" fill-opacity="1" d="M38.255,35.702C30.054,37,22.243,42.647,18.651,49.874C16.531,54.158,15.687,58.551,15.86,64.479C15.99,68.591,16.315,70.862,17.31,74.498C20.556,86.247,27.761,95.962,36.61,100.614C39.596,102.172,41.436,102.626,44.898,102.626C47.191,102.648,48.424,102.518,51.54,101.934L55.392,101.22L59.222,101.934C62.316,102.496,63.636,102.648,65.886,102.648C69.305,102.648,71.144,102.193,74.216,100.592C84.018,95.443,91.916,83.737,94.361,70.689C95.01,67.206,95.161,61.472,94.685,58.226C94.058,53.942,92.478,49.874,90.271,46.737C87.112,42.236,81.183,38.017,75.904,36.481C72.399,35.464,69.499,35.269,66.362,35.81C63.982,36.221,62.965,36.567,60.152,37.887C56.106,39.77,54.656,39.748,50.393,37.757C49.009,37.108,47.061,36.372,46.066,36.134C43.989,35.615,40.116,35.399,38.255,35.702ZM38.255,35.702"/>
</g>
  <g id="Ultralight-S" transform="matrix(1.0,0.0,0.0,1.0,505.6082837208208,591.7519410473926)">  <path stroke-linejoin="miter" stroke-linecap="butt" stroke-opacity="1" stroke-miterlimit="4" fill-rule="nonzero" stroke="none" version="1.0" fill="#000000" preserveAspectRatio="xMidYMid meet" stroke-width="1px" fill-opacity="1" stroke-dasharray="none" d="M33.56,8.157L32.608,8.244L32.737,10.343C33.062,15.579,35.204,20.036,38.839,23.001C40.44,24.32,43.534,25.813,45.547,26.246C47.494,26.679,50.567,26.895,51.346,26.679L51.951,26.506L51.281,25.64C50.177,24.234,46.758,20.837,44.833,19.192C43.837,18.37,42.95,17.483,42.82,17.267C42.517,16.704,43.102,15.795,43.794,15.795C44.465,15.795,47.862,18.673,50.718,21.659C53.271,24.342,53.293,24.342,52.687,21.464C51.021,13.48,44.962,8.417,36.784,8.136C35.529,8.092,34.079,8.092,33.56,8.157ZM33.56,8.157"/>
  <path stroke="none" stroke-dasharray="none" stroke-linecap="butt" stroke-linejoin="miter" stroke-opacity="1" version="1.0" fill-rule="nonzero" stroke-miterlimit="4" stroke-width="1px" fill="#000000" fill-opacity="1" preserveAspectRatio="xMidYMid meet" d="M62.748,14.865C61.385,15.363,58.031,21.053,56.149,26.073C55.175,28.67,53.942,33.43,53.747,35.355L53.596,36.762L54.353,36.892C55.392,37.086,56.279,36.957,56.495,36.567C56.603,36.394,57.058,35.42,57.534,34.403C59.395,30.379,62.64,25.619,65.972,22.005C68.331,19.452,68.331,19.365,65.843,16.856C63.982,14.995,63.398,14.627,62.748,14.865ZM62.748,14.865"/>
  <path stroke-miterlimit="4" preserveAspectRatio="xMidYMid meet" version="1.0" stroke-linejoin="miter" fill-rule="nonzero" stroke-width="1px" stroke-dasharray="none" stroke-linecap="butt" stroke="none" stroke-opacity="1" fill="#000000" fill-opacity="1" d="M38.255,35.702C30.054,37,22.243,42.647,18.651,49.874C16.531,54.158,15.687,58.551,15.86,64.479C15.99,68.591,16.315,70.862,17.31,74.498C20.556,86.247,27.761,95.962,36.61,100.614C39.596,102.172,41.436,102.626,44.898,102.626C47.191,102.648,48.424,102.518,51.54,101.934L55.392,101.22L59.222,101.934C62.316,102.496,63.636,102.648,65.886,102.648C69.305,102.648,71.144,102.193,74.216,100.592C84.018,95.443,91.916,83.737,94.361,70.689C95.01,67.206,95.161,61.472,94.685,58.226C94.058,53.942,92.478,49.874,90.271,46.737C87.112,42.236,81.183,38.017,75.904,36.481C72.399,35.464,69.499,35.269,66.362,35.81C63.982,36.221,62.965,36.567,60.152,37.887C56.106,39.77,54.656,39.748,50.393,37.757C49.009,37.108,47.061,36.372,46.066,36.134C43.989,35.615,40.116,35.399,38.255,35.702ZM38.255,35.702"/>
</g>
 </g>
</svg>
